<svg xmlns="http://www.w3.org/2000/svg" version="1.1" xmlns:xlink="http://www.w3.org/1999/xlink" xmlns:svgjs="http://svgjs.com/svgjs" width="1440" height="1000" preserveAspectRatio="none" viewBox="0 0 1440 1000">
    <g fill="none">
        <path d="M358.93 555.53 a128 128 0 1 0 256 0 a128 128 0 1 0 -256 0z" fill="rgba(255, 202, 30, 1)" class="triangle-float1"></path>
        <path d="M1295.768,574.26C1343.742,577.102,1390.337,551.546,1413.696,509.547C1436.481,468.579,1428.586,418.904,1404.559,378.651C1381.195,339.509,1341.341,313.007,1295.768,311.98C1248.346,310.911,1199.992,331.448,1178.138,373.548C1157.527,413.252,1177.168,458.281,1199.787,496.876C1222.059,534.879,1251.797,571.655,1295.768,574.26" fill="rgba(255, 202, 30, 1)" class="triangle-float1"></path>
        <path d="M579.004,690.745C623.338,693.369,671.204,684.242,695.352,646.969C721.281,606.946,719.76,553.524,693.837,513.497C669.8,476.382,623.221,466.919,579.004,467.318C535.671,467.709,489.067,477.833,467.705,515.537C446.555,552.866,461.29,598.261,484.295,634.476C505.399,667.698,539.715,688.419,579.004,690.745" fill="rgba(255, 202, 30, 1)" class="triangle-float3"></path>
        <path d="M332.69 223.9 a103.81 103.81 0 1 0 207.62 0 a103.81 103.81 0 1 0 -207.62 0z" fill="rgba(255, 202, 30, 1)" class="triangle-float3"></path>
        <path d="M139.271,354.641C180.583,355.487,224.654,341.485,243.629,304.778C261.608,269.999,241.527,230.649,220.409,197.682C201.43,168.054,174.456,141.848,139.271,141.865C104.11,141.882,76.623,167.77,58.265,197.758C38.835,229.496,24.991,267.585,42.064,300.65C60.29,335.948,99.553,353.828,139.271,354.641" fill="rgba(255, 202, 30, 1)" class="triangle-float1"></path>
        <path d="M869.94,399.676C911.041,399.595,937.507,360.808,957.245,324.757C975.965,290.564,986.862,251.7,970.269,216.426C951.011,175.488,915.14,141.079,869.94,139.164C821.861,137.127,774.286,163.746,753.719,207.251C735.212,246.399,759.652,288.034,782.039,325.1C803.331,360.352,828.757,399.757,869.94,399.676" fill="rgba(255, 202, 30, 1)" class="triangle-float1"></path>
        <path d="M1126.279,118.724C1152.374,119.919,1177.128,105.313,1189.765,82.451C1202.031,60.262,1199.63,32.657,1185.488,11.613C1172.784,-7.291,1149.032,-13.045,1126.279,-12.022C1105.522,-11.089,1086.416,-1.204,1075.623,16.551C1064.373,35.056,1062.502,57.663,1072.121,77.065C1082.964,98.936,1101.894,117.608,1126.279,118.724" fill="rgba(255, 202, 30, 1)" class="triangle-float1"></path>
        <path d="M607.46 552.31 a140.64 140.64 0 1 0 281.28 0 a140.64 140.64 0 1 0 -281.28 0z" fill="rgba(255, 202, 30, 1)" class="triangle-float3"></path>
    </g>
    <defs>
        <style>
            @keyframes float1 {
                0%{transform: translate(0, 0)}
                50%{transform: translate(-10px, 0)}
                100%{transform: translate(0, 0)}
            }

            .triangle-float1 {
                animation: float1 5s infinite;
            }

            @keyframes float2 {
                0%{transform: translate(0, 0)}
                50%{transform: translate(-5px, -5px)}
                100%{transform: translate(0, 0)}
            }

            .triangle-float2 {
                animation: float2 4s infinite;
            }

            @keyframes float3 {
                0%{transform: translate(0, 0)}
                50%{transform: translate(0, -10px)}
                100%{transform: translate(0, 0)}
            }

            .triangle-float3 {
                animation: float3 6s infinite;
            }
        </style>
    </defs>
</svg>