<svg width="1920" height="1080" viewBox="0 0 1920 1080" fill="none" xmlns="http://www.w3.org/2000/svg">
<circle cx="957.775" cy="53.2856" r="4" transform="rotate(-170 957.775 53.2856)" stroke="#80808040" stroke-width="2"/>
<rect x="677.331" y="343.486" width="16.2" height="16.2" rx="2" transform="rotate(-55 677.331 343.486)" stroke="#80808040" stroke-width="2"/>
<path d="M1056 459.135C1055.31 458.856 1054.52 459.19 1054.24 459.881L1053.74 461.133C1053.46 461.824 1053.79 462.611 1054.48 462.89C1055.18 463.169 1055.96 462.835 1056.24 462.144L1056.75 460.892C1057.03 460.201 1056.69 459.414 1056 459.135Z" fill="#80808040"/>
<path d="M1053.47 465.393C1052.78 465.114 1052 465.448 1051.72 466.139L1051.21 467.391C1050.93 468.083 1051.26 468.869 1051.96 469.149C1052.65 469.428 1053.43 469.094 1053.71 468.403L1054.22 467.151C1054.5 466.459 1054.16 465.673 1053.47 465.393Z" fill="#80808040"/>
<path d="M1051.98 461.879L1050.73 461.373C1050.04 461.094 1049.25 461.428 1048.97 462.119C1048.69 462.81 1049.03 463.597 1049.72 463.876L1050.97 464.382C1051.66 464.661 1052.45 464.327 1052.73 463.636C1053.01 462.945 1052.67 462.158 1051.98 461.879Z" fill="#80808040"/>
<path d="M1058.24 464.407L1056.99 463.902C1056.3 463.622 1055.51 463.956 1055.23 464.648C1054.95 465.339 1055.29 466.126 1055.98 466.405L1057.23 466.911C1057.92 467.19 1058.71 466.856 1058.99 466.165C1059.26 465.473 1058.93 464.686 1058.24 464.407Z" fill="#80808040"/>
<path d="M174.986 71.7402C174.986 71.7402 179.405 73.6157 177.529 78.0341C175.654 82.4525 180.072 84.3281 180.072 84.3281" stroke="#80808040" stroke-width="2" stroke-linecap="round" stroke-linejoin="round"/>
<path d="M1488.78 786.838C1488.29 786.574 1487.68 786.755 1487.42 787.24C1487.16 787.726 1487.34 788.333 1487.82 788.596L1488.78 786.838ZM1496.06 782.525L1497.06 782.42L1496.06 782.525ZM1491.27 777.822L1491.36 778.818L1491.27 777.822ZM1487.28 781.627L1486.28 781.692L1487.28 781.627ZM1490.64 784.983L1490.59 785.982L1490.64 784.983ZM1492.82 781.813L1493.58 781.16L1492.82 781.813ZM1489.84 781.132C1489.51 781.577 1489.61 782.203 1490.05 782.53C1490.5 782.857 1491.12 782.762 1491.45 782.317L1489.84 781.132ZM1487.82 788.596C1489.86 789.702 1492.31 789.151 1494.08 787.964C1495.86 786.776 1497.3 784.728 1497.06 782.42L1495.07 782.63C1495.21 783.948 1494.37 785.365 1492.97 786.301C1491.57 787.238 1489.94 787.47 1488.78 786.838L1487.82 788.596ZM1497.06 782.42C1496.75 779.507 1494.55 776.531 1491.18 776.826L1491.36 778.818C1493.22 778.656 1494.83 780.328 1495.07 782.63L1497.06 782.42ZM1491.18 776.826C1489.93 776.936 1488.68 777.422 1487.76 778.239C1486.82 779.07 1486.19 780.261 1486.28 781.692L1488.28 781.563C1488.23 780.844 1488.53 780.227 1489.08 779.739C1489.65 779.238 1490.47 778.896 1491.36 778.818L1491.18 776.826ZM1486.28 781.692C1486.43 784.037 1488.22 785.854 1490.59 785.982L1490.69 783.985C1489.36 783.913 1488.36 782.92 1488.28 781.563L1486.28 781.692ZM1490.59 785.982C1491.99 786.058 1493.09 785.285 1493.66 784.346C1494.19 783.463 1494.42 782.131 1493.58 781.16L1492.07 782.466C1492.12 782.529 1492.24 782.835 1491.95 783.306C1491.7 783.72 1491.25 784.015 1490.69 783.985L1490.59 785.982ZM1493.58 781.16C1493.18 780.696 1492.6 780.237 1491.87 780.149C1491.05 780.05 1490.34 780.447 1489.84 781.132L1491.45 782.317C1491.55 782.182 1491.62 782.143 1491.63 782.136C1491.64 782.132 1491.64 782.133 1491.63 782.134C1491.63 782.135 1491.63 782.134 1491.63 782.135C1491.64 782.136 1491.69 782.145 1491.77 782.198C1491.85 782.252 1491.96 782.339 1492.07 782.466L1493.58 781.16Z" fill="#80808040"/>
<circle cx="1324.64" cy="410.636" r="4" transform="rotate(55 1324.64 410.636)" stroke="#80808040" stroke-width="2"/>
<rect x="1393.26" y="260.981" width="16.2" height="16.2" rx="2" transform="rotate(26 1393.26 260.981)" stroke="#80808040" stroke-width="2"/>
<path d="M1524.72 388.276C1525.16 388.879 1526.01 389.013 1526.61 388.574L1527.7 387.781C1528.31 387.343 1528.44 386.498 1528 385.895C1527.56 385.292 1526.72 385.158 1526.12 385.597L1525.02 386.39C1524.42 386.828 1524.29 387.673 1524.72 388.276Z" fill="#80808040"/>
<path d="M1530.19 384.308C1530.62 384.911 1531.47 385.045 1532.07 384.607L1533.16 383.813C1533.77 383.375 1533.9 382.531 1533.46 381.928C1533.02 381.325 1532.18 381.191 1531.58 381.629L1530.48 382.423C1529.88 382.861 1529.75 383.705 1530.19 384.308Z" fill="#80808040"/>
<path d="M1529.59 388.08L1530.38 389.172C1530.82 389.775 1531.66 389.909 1532.27 389.47C1532.87 389.032 1533 388.188 1532.57 387.585L1531.77 386.493C1531.33 385.89 1530.49 385.756 1529.89 386.194C1529.28 386.632 1529.15 387.477 1529.59 388.08Z" fill="#80808040"/>
<path d="M1525.62 382.619L1526.41 383.711C1526.85 384.314 1527.7 384.448 1528.3 384.01C1528.9 383.571 1529.04 382.727 1528.6 382.124L1527.81 381.032C1527.37 380.429 1526.52 380.295 1525.92 380.733C1525.32 381.171 1525.18 382.016 1525.62 382.619Z" fill="#80808040"/>
<path d="M936.916 867.204C936.916 867.204 941.193 869.383 939.014 873.66C936.835 877.937 941.112 880.116 941.112 880.116" stroke="#80808040" stroke-width="2" stroke-linecap="round" stroke-linejoin="round"/>
<path d="M344.031 793.537C343.507 793.362 342.941 793.645 342.766 794.169C342.591 794.692 342.874 795.259 343.398 795.434L344.031 793.537ZM350.458 788.024L351.42 787.748L350.458 788.024ZM344.924 784.225L345.183 785.191L344.924 784.225ZM341.653 788.666L340.681 788.902L341.653 788.666ZM345.545 791.387L345.665 792.38L345.545 791.387ZM347.146 787.886L347.778 787.111L347.146 787.886ZM344.086 787.734C343.842 788.229 344.045 788.829 344.54 789.073C345.035 789.318 345.635 789.115 345.879 788.62L344.086 787.734ZM343.398 795.434C345.599 796.169 347.91 795.202 349.453 793.724C350.995 792.247 352.06 789.979 351.42 787.748L349.497 788.3C349.863 789.575 349.285 791.115 348.069 792.28C346.853 793.445 345.289 793.957 344.031 793.537L343.398 795.434ZM351.42 787.748C350.612 784.933 347.928 782.384 344.665 783.259L345.183 785.191C346.985 784.708 348.859 786.075 349.497 788.3L351.42 787.748ZM344.665 783.259C343.444 783.586 342.306 784.28 341.535 785.246C340.752 786.228 340.342 787.51 340.681 788.902L342.624 788.429C342.454 787.729 342.639 787.07 343.099 786.493C343.571 785.901 344.323 785.421 345.183 785.191L344.665 783.259ZM340.681 788.902C341.237 791.185 343.309 792.666 345.665 792.38L345.424 790.394C344.097 790.555 342.946 789.75 342.624 788.429L340.681 788.902ZM345.665 792.38C347.065 792.21 348.006 791.259 348.406 790.235C348.782 789.273 348.771 787.922 347.778 787.111L346.513 788.66C346.577 788.713 346.744 788.994 346.543 789.507C346.367 789.959 345.979 790.327 345.424 790.394L345.665 792.38ZM347.778 787.111C347.303 786.724 346.65 786.373 345.918 786.412C345.095 786.457 344.463 786.972 344.086 787.734L345.879 788.62C345.953 788.47 346.012 788.421 346.026 788.411C346.032 788.406 346.033 788.407 346.028 788.408C346.024 788.41 346.022 788.41 346.026 788.409C346.036 788.409 346.083 788.409 346.175 788.448C346.267 788.486 346.383 788.554 346.513 788.66L347.778 787.111Z" fill="#80808040"/>
<circle cx="677.324" cy="889.391" r="4" transform="rotate(12 677.324 889.391)" stroke="#80808040" stroke-width="2"/>
<rect x="1626.2" y="219.099" width="16.2" height="16.2" rx="2" transform="rotate(-11 1626.2 219.099)" stroke="#80808040" stroke-width="2"/>
<path d="M680.985 187.605C680.251 187.734 679.761 188.434 679.89 189.169L680.124 190.498C680.254 191.233 680.954 191.723 681.688 191.593C682.422 191.464 682.913 190.764 682.783 190.029L682.549 188.7C682.419 187.965 681.719 187.475 680.985 187.605Z" fill="#80808040"/>
<path d="M682.157 194.252C681.423 194.382 680.933 195.082 681.062 195.816L681.297 197.146C681.426 197.88 682.127 198.37 682.86 198.241C683.594 198.111 684.085 197.411 683.956 196.677L683.721 195.347C683.592 194.613 682.891 194.123 682.157 194.252Z" fill="#80808040"/>
<path d="M679.029 192.062L677.7 192.297C676.966 192.426 676.475 193.126 676.605 193.861C676.734 194.595 677.435 195.085 678.169 194.956L679.498 194.721C680.232 194.592 680.723 193.892 680.593 193.157C680.464 192.423 679.763 191.933 679.029 192.062Z" fill="#80808040"/>
<path d="M685.677 190.89L684.347 191.124C683.613 191.254 683.123 191.954 683.252 192.688C683.382 193.423 684.082 193.913 684.816 193.783L686.146 193.549C686.88 193.42 687.37 192.719 687.241 191.985C687.111 191.251 686.411 190.761 685.677 190.89Z" fill="#80808040"/>
<path d="M1324.01 1008.03C1324.01 1008.03 1325.88 1003.61 1330.3 1005.49C1334.72 1007.36 1336.6 1002.95 1336.6 1002.95" stroke="#80808040" stroke-width="2" stroke-linecap="round" stroke-linejoin="round"/>
<path d="M1382.79 158.324C1382.24 158.33 1381.8 158.781 1381.8 159.334C1381.81 159.886 1382.26 160.329 1382.81 160.324L1382.79 158.324ZM1387.07 151.02L1387.89 150.446L1387.07 151.02ZM1380.6 149.229L1381.16 150.058L1380.6 149.229ZM1378.96 154.493L1378.11 155.033L1378.96 154.493ZM1383.52 155.799L1383.96 156.698L1383.52 155.799ZM1383.9 151.967L1384.24 151.029L1383.9 151.967ZM1380.95 152.82C1380.88 153.367 1381.27 153.868 1381.82 153.939C1382.37 154.009 1382.87 153.622 1382.94 153.074L1380.95 152.82ZM1382.81 160.324C1385.13 160.303 1387 158.636 1387.98 156.737C1388.96 154.837 1389.22 152.346 1387.89 150.446L1386.25 151.593C1387.02 152.68 1386.97 154.324 1386.2 155.822C1385.43 157.32 1384.12 158.312 1382.79 158.324L1382.81 160.324ZM1387.89 150.446C1386.21 148.047 1382.84 146.511 1380.04 148.4L1381.16 150.058C1382.71 149.015 1384.93 149.698 1386.25 151.593L1387.89 150.446ZM1380.04 148.4C1379 149.107 1378.15 150.134 1377.73 151.298C1377.31 152.481 1377.34 153.827 1378.11 155.033L1379.8 153.953C1379.41 153.347 1379.37 152.663 1379.62 151.968C1379.87 151.255 1380.42 150.556 1381.16 150.058L1380.04 148.4ZM1378.11 155.033C1379.38 157.011 1381.82 157.736 1383.96 156.698L1383.09 154.9C1381.88 155.484 1380.53 155.097 1379.8 153.953L1378.11 155.033ZM1383.96 156.698C1385.23 156.082 1385.81 154.876 1385.85 153.778C1385.89 152.746 1385.45 151.472 1384.24 151.029L1383.55 152.906C1383.63 152.934 1383.88 153.146 1383.85 153.697C1383.83 154.181 1383.59 154.655 1383.09 154.9L1383.96 156.698ZM1384.24 151.029C1383.67 150.817 1382.94 150.698 1382.26 150.974C1381.49 151.284 1381.06 151.977 1380.95 152.82L1382.94 153.074C1382.96 152.908 1383 152.842 1383.01 152.828C1383.01 152.822 1383.01 152.822 1383.01 152.825C1383.01 152.828 1383 152.829 1383.01 152.827C1383.02 152.823 1383.06 152.808 1383.16 152.815C1383.26 152.821 1383.39 152.847 1383.55 152.906L1384.24 151.029Z" fill="#80808040"/>
<circle cx="817.558" cy="838.077" r="4" transform="rotate(-20 817.558 838.077)" stroke="#80808040" stroke-width="2"/>
<rect x="452.452" y="317.352" width="16.2" height="16.2" rx="2" transform="rotate(55 452.452 317.352)" stroke="#80808040" stroke-width="2"/>
<path d="M172.462 533.482C171.726 533.366 171.035 533.868 170.918 534.605L170.707 535.938C170.59 536.675 171.093 537.366 171.829 537.483C172.565 537.599 173.257 537.097 173.373 536.36L173.585 535.027C173.701 534.29 173.199 533.599 172.462 533.482Z" fill="#80808040"/>
<path d="M171.406 540.149C170.67 540.033 169.979 540.535 169.862 541.272L169.651 542.605C169.534 543.342 170.037 544.033 170.773 544.149C171.509 544.266 172.201 543.764 172.317 543.027L172.529 541.694C172.645 540.957 172.143 540.266 171.406 540.149Z" fill="#80808040"/>
<path d="M169.162 537.06L167.829 536.849C167.093 536.733 166.401 537.235 166.284 537.971C166.167 538.708 166.67 539.399 167.406 539.516L168.74 539.727C169.476 539.844 170.168 539.341 170.284 538.605C170.401 537.868 169.898 537.177 169.162 537.06Z" fill="#80808040"/>
<path d="M175.829 538.116L174.496 537.905C173.76 537.788 173.068 538.291 172.951 539.027C172.834 539.764 173.337 540.455 174.073 540.572L175.407 540.783C176.143 540.9 176.835 540.397 176.951 539.661C177.068 538.924 176.565 538.233 175.829 538.116Z" fill="#80808040"/>
<path d="M1618.05 437.918C1618.05 437.918 1616.57 442.483 1612 441C1607.43 439.516 1605.95 444.082 1605.95 444.082" stroke="#80808040" stroke-width="2" stroke-linecap="round" stroke-linejoin="round"/>
<path d="M1013.54 641.641C1013.8 642.131 1014.4 642.321 1014.89 642.066C1015.38 641.811 1015.57 641.207 1015.32 640.717L1013.54 641.641ZM1005.09 641.142L1004.21 640.673L1005.09 641.142ZM1006.43 647.72L1006.92 646.845L1006.43 647.72ZM1011.87 646.798L1012.73 647.303L1011.87 646.798ZM1010.96 642.137L1011.57 641.339L1010.96 642.137ZM1007.38 643.543L1006.39 643.661L1007.38 643.543ZM1009.47 645.778C1009.99 645.591 1010.26 645.019 1010.08 644.499C1009.89 643.979 1009.32 643.708 1008.8 643.895L1009.47 645.778ZM1015.32 640.717C1014.25 638.659 1011.91 637.749 1009.77 637.741C1007.64 637.732 1005.3 638.624 1004.21 640.673L1005.97 641.612C1006.6 640.441 1008.08 639.734 1009.77 639.741C1011.45 639.747 1012.93 640.466 1013.54 641.641L1015.32 640.717ZM1004.21 640.673C1002.83 643.26 1002.99 646.957 1005.95 648.595L1006.92 646.845C1005.29 645.941 1004.89 643.655 1005.97 641.612L1004.21 640.673ZM1005.95 648.595C1007.05 649.207 1008.36 649.499 1009.58 649.339C1010.83 649.177 1012.01 648.54 1012.73 647.303L1011.01 646.293C1010.64 646.915 1010.05 647.261 1009.32 647.356C1008.57 647.454 1007.7 647.277 1006.92 646.845L1005.95 648.595ZM1012.73 647.303C1013.92 645.274 1013.46 642.77 1011.57 641.339L1010.36 642.934C1011.43 643.74 1011.69 645.119 1011.01 646.293L1012.73 647.303ZM1011.57 641.339C1010.44 640.489 1009.1 640.519 1008.1 640.978C1007.16 641.409 1006.23 642.388 1006.39 643.661L1008.37 643.425C1008.36 643.343 1008.44 643.025 1008.94 642.795C1009.38 642.593 1009.91 642.597 1010.36 642.934L1011.57 641.339ZM1006.39 643.661C1006.46 644.27 1006.68 644.975 1007.24 645.456C1007.86 645.996 1008.67 646.064 1009.47 645.778L1008.8 643.895C1008.64 643.951 1008.57 643.946 1008.55 643.943C1008.54 643.942 1008.54 643.941 1008.55 643.943C1008.55 643.945 1008.55 643.947 1008.55 643.944C1008.54 643.938 1008.51 643.904 1008.47 643.813C1008.43 643.722 1008.39 643.592 1008.37 643.425L1006.39 643.661Z" fill="#80808040"/>
<circle cx="1606" cy="936.711" r="4" transform="rotate(163 1606 936.711)" stroke="#80808040" stroke-width="2"/>
<rect x="1136.58" y="895.696" width="16.2" height="16.2" rx="2" transform="rotate(158 1136.58 895.696)" stroke="#80808040" stroke-width="2"/>
<path d="M72.3208 355.997C71.6754 355.625 70.8496 355.846 70.4767 356.491L69.8017 357.661C69.4288 358.306 69.6504 359.132 70.2959 359.505C70.9413 359.877 71.7671 359.656 72.14 359.011L72.8149 357.842C73.1878 357.196 72.9663 356.37 72.3208 355.997Z" fill="#80808040"/>
<path d="M68.9458 361.843C68.3003 361.47 67.4745 361.691 67.1017 362.337L66.4267 363.506C66.0538 364.152 66.2754 364.978 66.9208 365.35C67.5663 365.723 68.3921 365.502 68.7649 364.856L69.4399 363.687C69.8128 363.041 69.5912 362.216 68.9458 361.843Z" fill="#80808040"/>
<path d="M67.9575 358.155L66.7884 357.48C66.1429 357.107 65.3171 357.328 64.9443 357.974C64.5714 358.62 64.7929 359.445 65.4384 359.818L66.6075 360.493C67.2529 360.866 68.0788 360.645 68.4516 359.999C68.8245 359.353 68.6029 358.527 67.9575 358.155Z" fill="#80808040"/>
<path d="M73.8032 361.53L72.6341 360.855C71.9886 360.482 71.1628 360.703 70.79 361.349C70.4171 361.995 70.6387 362.82 71.2841 363.193L72.4532 363.868C73.0987 364.241 73.9245 364.02 74.2973 363.374C74.6702 362.728 74.4486 361.903 73.8032 361.53Z" fill="#80808040"/>
<path d="M671.992 622.889C671.992 622.889 672.41 627.671 667.629 628.089C662.847 628.508 663.265 633.29 663.265 633.29" stroke="#80808040" stroke-width="2" stroke-linecap="round" stroke-linejoin="round"/>
<path d="M875.156 358.787C874.649 359.007 874.418 359.596 874.638 360.103C874.859 360.609 875.448 360.841 875.954 360.62L875.156 358.787ZM876.243 350.389L876.773 349.541L876.243 350.389ZM869.588 351.269L870.427 351.814L869.588 351.269ZM870.128 356.758L869.565 357.584L870.128 356.758ZM874.842 356.176L875.596 356.833L874.842 356.176ZM873.689 352.503L873.64 351.504L873.689 352.503ZM871.313 354.437C871.463 354.969 872.015 355.279 872.547 355.129C873.078 354.98 873.388 354.428 873.239 353.896L871.313 354.437ZM875.954 360.62C878.082 359.694 879.152 357.429 879.31 355.298C879.467 353.168 878.741 350.77 876.773 349.541L875.713 351.237C876.838 351.94 877.439 353.471 877.315 355.151C877.191 356.831 876.371 358.257 875.156 358.787L875.954 360.62ZM876.773 349.541C874.288 347.989 870.589 347.891 868.749 350.725L870.427 351.814C871.443 350.249 873.75 350.011 875.713 351.237L876.773 349.541ZM868.749 350.725C868.061 351.785 867.679 353.062 867.753 354.296C867.828 355.549 868.381 356.776 869.565 357.584L870.692 355.932C870.097 355.526 869.793 354.912 869.749 354.176C869.704 353.42 869.942 352.56 870.427 351.814L868.749 350.725ZM869.565 357.584C871.506 358.909 874.036 358.622 875.596 356.833L874.088 355.519C873.21 356.527 871.815 356.699 870.692 355.932L869.565 357.584ZM875.596 356.833C876.522 355.771 876.585 354.434 876.197 353.405C875.833 352.439 874.921 351.442 873.64 351.504L873.737 353.502C873.82 353.498 874.132 353.596 874.326 354.111C874.497 354.565 874.455 355.098 874.088 355.519L875.596 356.833ZM873.64 351.504C873.028 351.534 872.308 351.71 871.791 352.23C871.209 352.813 871.084 353.619 871.313 354.437L873.239 353.896C873.194 353.735 873.204 353.659 873.208 353.643C873.209 353.635 873.21 353.635 873.208 353.639C873.206 353.643 873.204 353.644 873.207 353.641C873.214 353.635 873.25 353.603 873.343 353.57C873.437 353.537 873.569 353.51 873.737 353.502L873.64 351.504Z" fill="#80808040"/>
<circle cx="1746.58" cy="496.611" r="4" transform="rotate(-82 1746.58 496.611)" stroke="#80808040" stroke-width="2"/>
<rect x="115.708" y="857.906" width="16.2" height="16.2" rx="2" transform="rotate(-75 115.708 857.906)" stroke="#80808040" stroke-width="2"/>
<path d="M99.9349 499.545C100.202 498.85 99.8546 498.069 99.1584 497.801L97.8981 497.318C97.2018 497.05 96.4211 497.398 96.154 498.094C95.8869 498.79 96.2343 499.571 96.9305 499.838L98.1908 500.322C98.887 500.589 99.6678 500.241 99.9349 499.545Z" fill="#80808040"/>
<path d="M93.6332 497.126C93.9003 496.431 93.5528 495.65 92.8567 495.382L91.5964 494.899C90.9001 494.631 90.1194 494.979 89.8523 495.675C89.5852 496.371 89.9326 497.152 90.6288 497.419L91.8891 497.903C92.5853 498.17 93.3661 497.822 93.6332 497.126Z" fill="#80808040"/>
<path d="M97.1214 495.573L97.6052 494.313C97.8723 493.617 97.5249 492.836 96.8287 492.569C96.1325 492.302 95.3517 492.65 95.0846 493.345L94.6008 494.606C94.3337 495.302 94.6812 496.083 95.3773 496.35C96.0735 496.617 96.8544 496.269 97.1214 495.573Z" fill="#80808040"/>
<path d="M94.7024 501.875L95.1862 500.615C95.4533 499.919 95.1059 499.138 94.4097 498.871C93.7135 498.603 92.9327 498.951 92.6656 499.647L92.1818 500.908C91.9147 501.603 92.2622 502.384 92.9583 502.652C93.6545 502.919 94.4354 502.571 94.7024 501.875Z" fill="#80808040"/>
<path d="M896.209 511.563C896.209 511.563 897.289 506.886 901.966 507.966C906.643 509.046 907.723 504.369 907.723 504.369" stroke="#80808040" stroke-width="2" stroke-linecap="round" stroke-linejoin="round"/>
<path d="M477.878 958.686C478.372 958.439 478.573 957.839 478.326 957.345C478.079 956.85 477.478 956.65 476.984 956.897L477.878 958.686ZM477.231 967.129L476.747 968.003L477.231 967.129ZM483.831 965.901L482.965 965.402L483.831 965.901ZM483.004 960.448L483.524 959.594L483.004 960.448ZM478.328 961.276L477.541 960.659L478.328 961.276ZM479.672 964.884L479.772 965.879L479.672 964.884ZM481.942 962.828C481.765 962.305 481.198 962.025 480.675 962.202C480.151 962.379 479.871 962.946 480.048 963.469L481.942 962.828ZM476.984 956.897C474.908 957.933 473.958 960.251 473.912 962.387C473.866 964.522 474.717 966.879 476.747 968.003L477.716 966.254C476.556 965.611 475.875 964.114 475.911 962.43C475.947 960.745 476.691 959.278 477.878 958.686L476.984 956.897ZM476.747 968.003C479.309 969.423 483.009 969.327 484.698 966.401L482.965 965.402C482.032 967.018 479.74 967.376 477.716 966.254L476.747 968.003ZM484.698 966.401C485.329 965.307 485.643 964.011 485.505 962.783C485.365 961.536 484.749 960.339 483.524 959.594L482.485 961.303C483.1 961.677 483.436 962.274 483.518 963.007C483.603 963.76 483.41 964.631 482.965 965.402L484.698 966.401ZM483.524 959.594C481.517 958.373 479.005 958.791 477.541 960.659L479.115 961.893C479.939 960.841 481.323 960.596 482.485 961.303L483.524 959.594ZM477.541 960.659C476.671 961.769 476.678 963.107 477.119 964.114C477.534 965.06 478.496 966.008 479.772 965.879L479.571 963.889C479.489 963.897 479.172 963.816 478.951 963.311C478.756 962.867 478.77 962.333 479.115 961.893L477.541 960.659ZM479.772 965.879C480.382 965.817 481.092 965.604 481.581 965.058C482.132 964.444 482.215 963.633 481.942 962.828L480.048 963.469C480.101 963.628 480.095 963.705 480.092 963.721C480.091 963.729 480.09 963.729 480.092 963.724C480.094 963.72 480.096 963.719 480.093 963.722C480.087 963.729 480.052 963.763 479.96 963.8C479.869 963.838 479.739 963.872 479.571 963.889L479.772 965.879Z" fill="#80808040"/>
<circle cx="577.442" cy="502.077" r="4" transform="rotate(-160 577.442 502.077)" stroke="#80808040" stroke-width="2"/>
<rect x="1508.61" y="595.181" width="16.2" height="16.2" rx="2" transform="rotate(107 1508.61 595.181)" stroke="#80808040" stroke-width="2"/>
<path d="M197.591 1009.32C196.86 1009.46 196.382 1010.17 196.524 1010.9L196.781 1012.23C196.924 1012.96 197.633 1013.44 198.364 1013.3C199.096 1013.15 199.574 1012.45 199.432 1011.71L199.174 1010.39C199.032 1009.66 198.323 1009.18 197.591 1009.32Z" fill="#80808040"/>
<path d="M198.879 1015.95C198.148 1016.09 197.67 1016.8 197.812 1017.53L198.069 1018.85C198.212 1019.59 198.921 1020.06 199.652 1019.92C200.384 1019.78 200.862 1019.07 200.72 1018.34L200.462 1017.01C200.32 1016.28 199.611 1015.8 198.879 1015.95Z" fill="#80808040"/>
<path d="M195.714 1013.81L194.389 1014.07C193.657 1014.21 193.179 1014.92 193.321 1015.65C193.463 1016.38 194.172 1016.86 194.904 1016.72L196.229 1016.46C196.961 1016.32 197.439 1015.61 197.297 1014.88C197.154 1014.15 196.445 1013.67 195.714 1013.81Z" fill="#80808040"/>
<path d="M202.34 1012.52L201.015 1012.78C200.283 1012.92 199.805 1013.63 199.947 1014.36C200.089 1015.1 200.798 1015.57 201.53 1015.43L202.855 1015.17C203.587 1015.03 204.065 1014.32 203.923 1013.59C203.78 1012.86 203.071 1012.38 202.34 1012.52Z" fill="#80808040"/>
<path d="M1160.82 104.87C1160.82 104.87 1164.75 107.623 1162 111.555C1159.24 115.487 1163.18 118.24 1163.18 118.24" stroke="#80808040" stroke-width="2" stroke-linecap="round" stroke-linejoin="round"/>
<path d="M1188.03 548.774C1188.49 548.461 1188.6 547.838 1188.29 547.383C1187.98 546.928 1187.35 546.813 1186.9 547.127L1188.03 548.774ZM1188.57 557.225L1188.21 558.158L1188.57 557.225ZM1194.93 555.091L1194 554.716L1194.93 555.091ZM1193.35 549.806L1193.75 548.888L1193.35 549.806ZM1188.84 551.277L1187.97 550.775L1188.84 551.277ZM1190.67 554.662L1190.91 555.633L1190.67 554.662ZM1192.63 552.31C1192.39 551.817 1191.78 551.618 1191.29 551.866C1190.8 552.114 1190.6 552.716 1190.85 553.209L1192.63 552.31ZM1186.9 547.127C1184.99 548.442 1184.37 550.87 1184.62 552.991C1184.87 555.112 1186.04 557.327 1188.21 558.158L1188.92 556.291C1187.69 555.816 1186.8 554.428 1186.61 552.755C1186.41 551.082 1186.94 549.526 1188.03 548.774L1186.9 547.127ZM1188.21 558.158C1190.94 559.208 1194.59 558.598 1195.86 555.465L1194 554.716C1193.31 556.447 1191.09 557.12 1188.92 556.291L1188.21 558.158ZM1195.86 555.465C1196.33 554.294 1196.46 552.967 1196.16 551.77C1195.84 550.554 1195.07 549.455 1193.75 548.888L1192.96 550.724C1193.62 551.009 1194.03 551.554 1194.22 552.268C1194.41 553.002 1194.34 553.891 1194 554.716L1195.86 555.465ZM1193.75 548.888C1191.59 547.958 1189.16 548.722 1187.97 550.775L1189.7 551.778C1190.37 550.621 1191.71 550.186 1192.96 550.724L1193.75 548.888ZM1187.97 550.775C1187.27 551.995 1187.46 553.32 1188.04 554.255C1188.58 555.134 1189.66 555.939 1190.91 555.633L1190.43 553.691C1190.35 553.711 1190.03 553.674 1189.74 553.205C1189.48 552.792 1189.42 552.261 1189.7 551.778L1187.97 550.775ZM1190.91 555.633C1191.5 555.487 1192.18 555.177 1192.59 554.569C1193.05 553.884 1193.02 553.07 1192.63 552.31L1190.85 553.209C1190.92 553.358 1190.93 553.435 1190.93 553.452C1190.93 553.46 1190.92 553.46 1190.93 553.455C1190.93 553.451 1190.93 553.449 1190.93 553.453C1190.92 553.461 1190.89 553.499 1190.81 553.549C1190.72 553.599 1190.6 553.651 1190.43 553.691L1190.91 555.633Z" fill="#80808040"/>
<circle cx="217.554" cy="220.554" r="4" transform="rotate(-161 217.554 220.554)" stroke="#80808040" stroke-width="2"/>
<rect x="575.156" y="773.326" width="16.2" height="16.2" rx="2" transform="rotate(77 575.156 773.326)" stroke="#80808040" stroke-width="2"/>
<path d="M955.723 246.433C956.085 247.085 956.906 247.321 957.559 246.959L958.739 246.305C959.392 245.943 959.627 245.121 959.266 244.47C958.904 243.818 958.083 243.582 957.43 243.943L956.25 244.598C955.597 244.959 955.362 245.781 955.723 246.433Z" fill="#80808040"/>
<path d="M961.627 243.161C961.988 243.812 962.81 244.048 963.462 243.687L964.643 243.032C965.295 242.671 965.531 241.849 965.169 241.197C964.808 240.545 963.986 240.309 963.334 240.671L962.153 241.325C961.501 241.687 961.266 242.509 961.627 243.161Z" fill="#80808040"/>
<path d="M960.575 246.831L961.229 248.012C961.591 248.664 962.412 248.9 963.064 248.538C963.717 248.176 963.952 247.355 963.591 246.703L962.936 245.522C962.575 244.87 961.753 244.634 961.101 244.996C960.449 245.357 960.213 246.179 960.575 246.831Z" fill="#80808040"/>
<path d="M957.302 240.927L957.957 242.108C958.318 242.76 959.14 242.996 959.792 242.634C960.444 242.273 960.679 241.451 960.318 240.799L959.664 239.618C959.302 238.966 958.481 238.731 957.828 239.092C957.176 239.454 956.941 240.275 957.302 240.927Z" fill="#80808040"/>
<path d="M1168.39 282.258C1168.39 282.258 1165.18 285.825 1161.61 282.614C1158.05 279.402 1154.83 282.969 1154.83 282.969" stroke="#80808040" stroke-width="2" stroke-linecap="round" stroke-linejoin="round"/>
<path d="M1847.17 934.417C1847.72 934.364 1848.12 933.875 1848.07 933.326C1848.02 932.776 1847.53 932.374 1846.98 932.427L1847.17 934.417ZM1843.54 942.068L1842.78 942.711L1843.54 942.068ZM1850.14 943.287L1849.51 942.51L1850.14 943.287ZM1851.33 937.9L1852.12 937.289L1851.33 937.9ZM1846.66 936.997L1846.15 936.139L1846.66 936.997ZM1846.62 940.847L1846.36 941.812L1846.62 940.847ZM1849.48 939.741C1849.5 939.189 1849.07 938.724 1848.52 938.702C1847.97 938.68 1847.5 939.109 1847.48 939.661L1849.48 939.741ZM1846.98 932.427C1844.67 932.651 1842.95 934.474 1842.14 936.451C1841.33 938.429 1841.28 940.933 1842.78 942.711L1844.31 941.425C1843.45 940.409 1843.36 938.767 1843.99 937.208C1844.63 935.648 1845.85 934.545 1847.17 934.417L1846.98 932.427ZM1842.78 942.711C1844.66 944.954 1848.15 946.191 1850.77 944.064L1849.51 942.51C1848.06 943.685 1845.8 943.198 1844.31 941.425L1842.78 942.711ZM1850.77 944.064C1851.75 943.269 1852.51 942.172 1852.82 940.976C1853.14 939.761 1852.99 938.423 1852.12 937.289L1850.53 938.511C1850.97 939.081 1851.07 939.759 1850.89 940.473C1850.7 941.206 1850.21 941.95 1849.51 942.51L1850.77 944.064ZM1852.12 937.289C1850.68 935.429 1848.18 934.92 1846.15 936.139L1847.18 937.855C1848.32 937.168 1849.7 937.435 1850.53 938.511L1852.12 937.289ZM1846.15 936.139C1844.94 936.863 1844.47 938.115 1844.52 939.213C1844.57 940.245 1845.12 941.475 1846.36 941.812L1846.89 939.882C1846.81 939.86 1846.54 939.671 1846.51 939.12C1846.49 938.636 1846.7 938.142 1847.18 937.855L1846.15 936.139ZM1846.36 941.812C1846.95 941.972 1847.69 942.027 1848.34 941.693C1849.08 941.318 1849.45 940.59 1849.48 939.741L1847.48 939.661C1847.48 939.828 1847.44 939.897 1847.43 939.911C1847.43 939.919 1847.43 939.918 1847.43 939.915C1847.44 939.911 1847.44 939.911 1847.43 939.913C1847.43 939.917 1847.38 939.936 1847.28 939.939C1847.18 939.941 1847.05 939.926 1846.89 939.882L1846.36 941.812Z" fill="#80808040"/>
<circle cx="1693.84" cy="728.84" r="4" transform="rotate(-36 1693.84 728.84)" stroke="#80808040" stroke-width="2"/>
<rect x="390.468" y="601.458" width="16.2" height="16.2" rx="2" transform="rotate(10 390.468 601.458)" stroke="#80808040" stroke-width="2"/>
<path d="M1273.51 794.054C1274 793.491 1273.94 792.639 1273.38 792.149L1272.36 791.264C1271.8 790.774 1270.95 790.834 1270.46 791.397C1269.97 791.959 1270.03 792.812 1270.59 793.301L1271.61 794.187C1272.17 794.676 1273.02 794.616 1273.51 794.054Z" fill="#80808040"/>
<path d="M1268.42 789.626C1268.91 789.063 1268.85 788.21 1268.29 787.721L1267.27 786.835C1266.7 786.346 1265.85 786.406 1265.36 786.969C1264.87 787.531 1264.93 788.384 1265.5 788.873L1266.51 789.759C1267.08 790.248 1267.93 790.188 1268.42 789.626Z" fill="#80808040"/>
<path d="M1272.23 789.359L1273.11 788.34C1273.6 787.778 1273.54 786.925 1272.98 786.436C1272.42 785.947 1271.57 786.006 1271.08 786.569L1270.19 787.588C1269.7 788.15 1269.76 789.003 1270.32 789.492C1270.89 789.982 1271.74 789.922 1272.23 789.359Z" fill="#80808040"/>
<path d="M1267.8 794.453L1268.69 793.435C1269.17 792.872 1269.12 792.019 1268.55 791.53C1267.99 791.041 1267.14 791.101 1266.65 791.663L1265.76 792.682C1265.27 793.245 1265.33 794.097 1265.9 794.587C1266.46 795.076 1267.31 795.016 1267.8 794.453Z" fill="#80808040"/>
<path d="M315.153 450.014C315.153 450.014 319.81 448.852 320.971 453.51C322.133 458.167 326.79 457.006 326.79 457.006" stroke="#80808040" stroke-width="2" stroke-linecap="round" stroke-linejoin="round"/>
<path d="M435.537 142.454C436.064 142.288 436.356 141.726 436.189 141.2C436.023 140.673 435.461 140.381 434.934 140.547L435.537 142.454ZM433.578 150.692L432.962 151.48L433.578 150.692ZM440.288 150.513L439.511 149.883L440.288 150.513ZM440.325 144.997L440.972 144.235L440.325 144.997ZM435.576 145.083L434.895 144.351L435.576 145.083ZM436.339 148.857L436.283 149.855L436.339 148.857ZM438.903 147.182C438.81 146.637 438.294 146.271 437.749 146.364C437.205 146.457 436.839 146.974 436.932 147.518L438.903 147.182ZM434.934 140.547C432.722 141.246 431.42 143.387 431.041 145.489C430.662 147.591 431.133 150.052 432.962 151.48L434.193 149.904C433.148 149.088 432.71 147.502 433.009 145.844C433.308 144.187 434.272 142.854 435.537 142.454L434.934 140.547ZM432.962 151.48C435.271 153.283 438.94 153.767 441.066 151.142L439.511 149.883C438.337 151.334 436.017 151.329 434.193 149.904L432.962 151.48ZM441.066 151.142C441.861 150.16 442.374 148.929 442.43 147.695C442.486 146.44 442.065 145.162 440.972 144.235L439.678 145.76C440.227 146.226 440.465 146.868 440.432 147.604C440.398 148.361 440.071 149.191 439.511 149.883L441.066 151.142ZM440.972 144.235C439.18 142.715 436.633 142.735 434.895 144.351L436.257 145.816C437.236 144.905 438.641 144.88 439.678 145.76L440.972 144.235ZM434.895 144.351C433.863 145.311 433.66 146.634 433.938 147.697C434.2 148.696 435.002 149.783 436.283 149.855L436.395 147.858C436.313 147.854 436.013 147.724 435.873 147.191C435.75 146.722 435.848 146.196 436.257 145.816L434.895 144.351ZM436.283 149.855C436.895 149.89 437.629 149.79 438.198 149.327C438.838 148.807 439.046 148.019 438.903 147.182L436.932 147.518C436.96 147.683 436.941 147.758 436.937 147.774C436.934 147.782 436.933 147.781 436.936 147.777C436.939 147.773 436.94 147.772 436.937 147.775C436.93 147.781 436.891 147.809 436.794 147.832C436.697 147.855 436.564 147.868 436.395 147.858L436.283 149.855Z" fill="#80808040"/>
<circle cx="846.865" cy="1020.86" r="4" transform="rotate(-91 846.865 1020.86)" stroke="#80808040" stroke-width="2"/>
<rect x="1440.09" y="44.2078" width="16.2" height="16.2" rx="2" transform="rotate(68 1440.09 44.2078)" stroke="#80808040" stroke-width="2"/>
<path d="M1823.48 103.76C1823.87 103.128 1823.68 102.295 1823.05 101.9L1821.9 101.184C1821.27 100.789 1820.44 100.982 1820.04 101.614C1819.65 102.246 1819.84 103.079 1820.47 103.474L1821.62 104.189C1822.25 104.585 1823.08 104.392 1823.48 103.76Z" fill="#80808040"/>
<path d="M1817.75 100.183C1818.15 99.5508 1817.96 98.7178 1817.32 98.3227L1816.18 97.6073C1815.55 97.2121 1814.71 97.4047 1814.32 98.0368C1813.92 98.6688 1814.12 99.5018 1814.75 99.897L1815.89 100.612C1816.53 101.008 1817.36 100.815 1817.75 100.183Z" fill="#80808040"/>
<path d="M1821.47 99.3239L1822.19 98.179C1822.58 97.547 1822.39 96.714 1821.76 96.3188C1821.13 95.9237 1820.29 96.1162 1819.9 96.7483L1819.18 97.8931C1818.79 98.5252 1818.98 99.3582 1819.61 99.7534C1820.25 100.149 1821.08 99.9559 1821.47 99.3239Z" fill="#80808040"/>
<path d="M1817.9 105.048L1818.61 103.903C1819.01 103.271 1818.82 102.438 1818.18 102.043C1817.55 101.648 1816.72 101.841 1816.32 102.473L1815.61 103.618C1815.21 104.25 1815.4 105.083 1816.04 105.478C1816.67 105.873 1817.5 105.68 1817.9 105.048Z" fill="#80808040"/>
<path d="M1520.34 102.441C1520.34 102.441 1523.97 99.2914 1527.12 102.914C1530.27 106.537 1533.89 103.388 1533.89 103.388" stroke="#80808040" stroke-width="2" stroke-linecap="round" stroke-linejoin="round"/>
<path d="M698.244 40.8097C698.428 41.3302 699 41.6024 699.521 41.4177C700.041 41.233 700.313 40.6614 700.129 40.1409L698.244 40.8097ZM689.943 39.139L689.134 38.5513L689.943 39.139ZM690.356 45.8395L690.958 45.0408L690.356 45.8395ZM695.87 45.6832L696.654 46.3031L695.87 45.6832ZM695.618 40.9406L696.326 40.2345L695.618 40.9406ZM691.873 41.8348L690.874 41.8134L691.873 41.8348ZM693.637 44.339C694.178 44.227 694.525 43.6979 694.414 43.1571C694.302 42.6162 693.772 42.2686 693.232 42.3805L693.637 44.339ZM700.129 40.1409C699.353 37.9541 697.168 36.7279 695.054 36.4222C692.94 36.1166 690.497 36.6739 689.134 38.5513L690.752 39.7266C691.531 38.6535 693.101 38.1607 694.768 38.4017C696.435 38.6427 697.8 39.5599 698.244 40.8097L700.129 40.1409ZM689.134 38.5513C687.412 40.9215 687.057 44.6054 689.755 46.6382L690.958 45.0408C689.468 43.9178 689.392 41.5993 690.752 39.7266L689.134 38.5513ZM689.755 46.6382C690.764 47.3986 692.012 47.8684 693.247 47.881C694.503 47.8938 695.766 47.4278 696.654 46.3031L695.085 45.0633C694.639 45.6284 694.005 45.8886 693.268 45.8811C692.51 45.8734 691.669 45.5765 690.958 45.0408L689.755 46.6382ZM696.654 46.3031C698.111 44.4593 698.002 41.9151 696.326 40.2345L694.91 41.6467C695.854 42.5932 695.928 43.9961 695.085 45.0633L696.654 46.3031ZM696.326 40.2345C695.331 39.2362 694.001 39.0799 692.948 39.3951C691.959 39.6914 690.901 40.5312 690.874 41.8134L692.873 41.8561C692.875 41.7735 692.994 41.4691 693.522 41.3111C693.987 41.172 694.515 41.251 694.91 41.6467L696.326 40.2345ZM690.874 41.8134C690.861 42.4261 690.986 43.1564 691.468 43.7091C692.01 44.3304 692.805 44.5113 693.637 44.339L693.232 42.3805C693.068 42.4144 692.992 42.3984 692.977 42.394C692.969 42.3918 692.969 42.3909 692.973 42.3935C692.977 42.396 692.978 42.3976 692.975 42.3946C692.969 42.3873 692.94 42.3493 692.914 42.2534C692.887 42.1576 692.87 42.0245 692.873 41.8561L690.874 41.8134Z" fill="#80808040"/>
</svg>
