<svg width="1080" height="1920" viewBox="0 0 1080 1920" fill="none" xmlns="http://www.w3.org/2000/svg">
<g clip-path="url(#clip0_1632_4324)">
<circle cx="1026.71" cy="957.776" r="4" transform="rotate(-80 1026.71 957.776)" stroke="#808080" stroke-opacity="0.25" stroke-width="2"/>
<rect x="425.787" y="819.331" width="16.2" height="16.2" rx="2" transform="rotate(35 425.787 819.331)" stroke="#808080" stroke-opacity="0.25" stroke-width="2"/>
<path d="M620.865 1056C621.144 1055.31 620.811 1054.52 620.119 1054.24L618.867 1053.74C618.176 1053.46 617.389 1053.79 617.11 1054.49C616.831 1055.18 617.165 1055.96 617.856 1056.24L619.108 1056.75C619.799 1057.03 620.586 1056.69 620.865 1056Z" fill="#808080" fill-opacity="0.25"/>
<path d="M614.607 1053.47C614.886 1052.78 614.552 1052 613.861 1051.72L612.609 1051.21C611.917 1050.93 611.131 1051.27 610.852 1051.96C610.572 1052.65 610.906 1053.43 611.598 1053.71L612.849 1054.22C613.541 1054.5 614.327 1054.16 614.607 1053.47Z" fill="#808080" fill-opacity="0.25"/>
<path d="M618.121 1051.98L618.627 1050.73C618.906 1050.04 618.573 1049.25 617.881 1048.97C617.19 1048.69 616.403 1049.03 616.124 1049.72L615.618 1050.97C615.339 1051.66 615.673 1052.45 616.364 1052.73C617.055 1053.01 617.842 1052.67 618.121 1051.98Z" fill="#808080" fill-opacity="0.25"/>
<path d="M615.593 1058.24L616.098 1056.99C616.378 1056.3 616.044 1055.51 615.353 1055.23C614.661 1054.95 613.874 1055.29 613.595 1055.98L613.089 1057.23C612.81 1057.92 613.144 1058.71 613.835 1058.99C614.527 1059.27 615.314 1058.93 615.593 1058.24Z" fill="#808080" fill-opacity="0.25"/>
<path d="M1008.26 174.986C1008.26 174.986 1006.38 179.405 1001.97 177.529C997.548 175.654 995.672 180.072 995.672 180.072" stroke="#808080" stroke-opacity="0.25" stroke-width="2" stroke-linecap="round" stroke-linejoin="round"/>
<path d="M293.162 1488.78C293.426 1488.29 293.245 1487.68 292.76 1487.42C292.274 1487.16 291.667 1487.34 291.404 1487.82L293.162 1488.78ZM297.475 1496.06L297.58 1497.06L297.475 1496.06ZM302.178 1491.27L301.182 1491.36L302.178 1491.27ZM298.373 1487.28L298.308 1486.28L298.373 1487.28ZM295.017 1490.64L294.018 1490.59L295.017 1490.64ZM298.187 1492.82L298.84 1493.58L298.187 1492.82ZM298.868 1489.84C298.423 1489.51 297.797 1489.61 297.47 1490.05C297.143 1490.5 297.239 1491.12 297.684 1491.45L298.868 1489.84ZM291.404 1487.82C290.298 1489.86 290.849 1492.31 292.036 1494.08C293.224 1495.86 295.272 1497.3 297.58 1497.06L297.371 1495.07C296.052 1495.21 294.635 1494.37 293.699 1492.97C292.762 1491.57 292.53 1489.94 293.162 1488.78L291.404 1487.82ZM297.58 1497.06C300.493 1496.75 303.469 1494.55 303.174 1491.18L301.182 1491.36C301.345 1493.22 299.672 1494.83 297.371 1495.07L297.58 1497.06ZM303.174 1491.18C303.064 1489.93 302.578 1488.68 301.761 1487.76C300.93 1486.82 299.739 1486.19 298.308 1486.28L298.437 1488.28C299.156 1488.23 299.773 1488.53 300.261 1489.08C300.762 1489.65 301.104 1490.47 301.182 1491.36L303.174 1491.18ZM298.308 1486.28C295.964 1486.43 294.146 1488.22 294.018 1490.59L296.015 1490.69C296.087 1489.36 297.08 1488.37 298.437 1488.28L298.308 1486.28ZM294.018 1490.59C293.942 1491.99 294.716 1493.09 295.654 1493.66C296.537 1494.2 297.869 1494.42 298.84 1493.58L297.534 1492.07C297.471 1492.12 297.165 1492.24 296.694 1491.95C296.28 1491.7 295.985 1491.25 296.015 1490.69L294.018 1490.59ZM298.84 1493.58C299.304 1493.18 299.763 1492.6 299.851 1491.87C299.95 1491.05 299.553 1490.34 298.868 1489.84L297.684 1491.45C297.818 1491.55 297.857 1491.62 297.864 1491.63C297.868 1491.64 297.867 1491.64 297.866 1491.63C297.865 1491.63 297.866 1491.63 297.865 1491.63C297.864 1491.64 297.856 1491.69 297.802 1491.77C297.748 1491.86 297.661 1491.96 297.534 1492.07L298.84 1493.58Z" fill="#808080" fill-opacity="0.25"/>
<circle cx="669.364" cy="1324.64" r="4" transform="rotate(145 669.364 1324.64)" stroke="#808080" stroke-opacity="0.25" stroke-width="2"/>
<rect x="720.735" y="646.263" width="16.2" height="16.2" rx="2" transform="rotate(116 720.735 646.263)" stroke="#808080" stroke-opacity="0.25" stroke-width="2"/>
<path d="M691.724 1524.72C691.121 1525.16 690.987 1526.01 691.426 1526.61L692.219 1527.7C692.658 1528.31 693.502 1528.44 694.105 1528C694.708 1527.56 694.842 1526.72 694.404 1526.12L693.61 1525.02C693.172 1524.42 692.327 1524.29 691.724 1524.72Z" fill="#808080" fill-opacity="0.25"/>
<path d="M695.692 1530.19C695.089 1530.62 694.955 1531.47 695.393 1532.07L696.187 1533.16C696.625 1533.77 697.47 1533.9 698.072 1533.46C698.675 1533.02 698.809 1532.18 698.371 1531.58L697.578 1530.48C697.139 1529.88 696.295 1529.75 695.692 1530.19Z" fill="#808080" fill-opacity="0.25"/>
<path d="M691.921 1529.59L690.828 1530.38C690.226 1530.82 690.091 1531.66 690.53 1532.27C690.968 1532.87 691.812 1533 692.415 1532.57L693.508 1531.77C694.111 1531.33 694.245 1530.49 693.806 1529.89C693.368 1529.28 692.524 1529.15 691.921 1529.59Z" fill="#808080" fill-opacity="0.25"/>
<path d="M697.382 1525.62L696.289 1526.41C695.686 1526.85 695.552 1527.7 695.991 1528.3C696.429 1528.9 697.273 1529.04 697.876 1528.6L698.969 1527.81C699.571 1527.37 699.705 1526.52 699.267 1525.92C698.829 1525.32 697.984 1525.18 697.382 1525.62Z" fill="#808080" fill-opacity="0.25"/>
<path d="M212.796 936.917C212.796 936.917 210.617 941.194 206.34 939.014C202.063 936.835 199.884 941.112 199.884 941.112" stroke="#808080" stroke-opacity="0.25" stroke-width="2" stroke-linecap="round" stroke-linejoin="round"/>
<path d="M286.464 344.031C286.638 343.507 286.356 342.941 285.832 342.766C285.308 342.591 284.741 342.874 284.566 343.398L286.464 344.031ZM291.976 350.458L292.252 351.42L291.976 350.458ZM295.775 344.924L294.81 345.183L295.775 344.924ZM291.335 341.653L291.098 340.681L291.335 341.653ZM288.613 345.545L287.621 345.665L288.613 345.545ZM292.115 347.146L292.889 347.778L292.115 347.146ZM292.267 344.086C291.771 343.842 291.172 344.045 290.927 344.54C290.682 345.035 290.885 345.635 291.38 345.879L292.267 344.086ZM284.566 343.398C283.832 345.599 284.798 347.91 286.276 349.453C287.754 350.995 290.022 352.06 292.252 351.42L291.7 349.497C290.426 349.863 288.885 349.285 287.72 348.069C286.555 346.853 286.043 345.289 286.464 344.031L284.566 343.398ZM292.252 351.42C295.068 350.612 297.616 347.928 296.741 344.665L294.81 345.183C295.293 346.985 293.925 348.859 291.7 349.497L292.252 351.42ZM296.741 344.665C296.414 343.444 295.72 342.306 294.754 341.535C293.773 340.752 292.491 340.342 291.098 340.681L291.571 342.624C292.271 342.454 292.931 342.639 293.507 343.099C294.099 343.571 294.579 344.323 294.81 345.183L296.741 344.665ZM291.098 340.681C288.815 341.237 287.335 343.309 287.621 345.665L289.606 345.424C289.445 344.097 290.25 342.946 291.571 342.624L291.098 340.681ZM287.621 345.665C287.79 347.065 288.742 348.006 289.765 348.406C290.728 348.782 292.078 348.771 292.889 347.778L291.34 346.513C291.288 346.577 291.006 346.744 290.493 346.543C290.041 346.367 289.673 345.979 289.606 345.424L287.621 345.665ZM292.889 347.778C293.277 347.303 293.628 346.65 293.588 345.918C293.543 345.095 293.028 344.463 292.267 344.086L291.38 345.879C291.53 345.953 291.58 346.012 291.59 346.026C291.594 346.032 291.594 346.033 291.592 346.028C291.59 346.024 291.591 346.022 291.591 346.026C291.591 346.036 291.591 346.083 291.553 346.175C291.514 346.267 291.446 346.383 291.34 346.513L292.889 347.778Z" fill="#808080" fill-opacity="0.25"/>
<circle cx="190.609" cy="677.323" r="4" transform="rotate(102 190.609 677.323)" stroke="#808080" stroke-opacity="0.25" stroke-width="2"/>
<rect x="860.901" y="1626.2" width="16.2" height="16.2" rx="2" transform="rotate(79 860.901 1626.2)" stroke="#808080" stroke-opacity="0.25" stroke-width="2"/>
<path d="M892.395 680.985C892.266 680.251 891.566 679.76 890.832 679.89L889.502 680.124C888.768 680.254 888.278 680.954 888.407 681.688C888.536 682.422 889.237 682.913 889.971 682.783L891.3 682.549C892.035 682.419 892.525 681.719 892.395 680.985Z" fill="#808080" fill-opacity="0.25"/>
<path d="M885.748 682.157C885.619 681.423 884.918 680.933 884.184 681.062L882.855 681.296C882.12 681.426 881.63 682.126 881.76 682.86C881.889 683.594 882.589 684.085 883.323 683.955L884.653 683.721C885.387 683.591 885.877 682.891 885.748 682.157Z" fill="#808080" fill-opacity="0.25"/>
<path d="M887.938 679.029L887.704 677.7C887.574 676.966 886.874 676.475 886.14 676.605C885.405 676.734 884.915 677.435 885.045 678.169L885.279 679.498C885.409 680.232 886.109 680.723 886.843 680.593C887.577 680.464 888.067 679.763 887.938 679.029Z" fill="#808080" fill-opacity="0.25"/>
<path d="M889.11 685.677L888.876 684.347C888.746 683.613 888.046 683.123 887.312 683.252C886.577 683.382 886.087 684.082 886.217 684.816L886.451 686.146C886.581 686.88 887.281 687.37 888.015 687.241C888.749 687.111 889.24 686.411 889.11 685.677Z" fill="#808080" fill-opacity="0.25"/>
<path d="M71.9692 1324.01C71.9692 1324.01 76.3876 1325.88 74.5121 1330.3C72.6366 1334.72 77.055 1336.6 77.055 1336.6" stroke="#808080" stroke-opacity="0.25" stroke-width="2" stroke-linecap="round" stroke-linejoin="round"/>
<path d="M921.676 1382.79C921.671 1382.24 921.219 1381.8 920.667 1381.8C920.114 1381.81 919.671 1382.26 919.676 1382.81L921.676 1382.79ZM928.981 1387.07L929.554 1387.89L928.981 1387.07ZM930.771 1380.6L929.942 1381.16L930.771 1380.6ZM925.507 1378.96L924.967 1378.12L925.507 1378.96ZM924.201 1383.52L923.302 1383.96L924.201 1383.52ZM928.033 1383.9L928.971 1384.24L928.033 1383.9ZM927.181 1380.95C926.633 1380.88 926.132 1381.27 926.062 1381.82C925.991 1382.37 926.379 1382.87 926.926 1382.94L927.181 1380.95ZM919.676 1382.81C919.698 1385.13 921.364 1387 923.264 1387.98C925.163 1388.96 927.654 1389.22 929.554 1387.89L928.407 1386.26C927.321 1387.02 925.676 1386.97 924.179 1386.2C922.681 1385.43 921.688 1384.12 921.676 1382.79L919.676 1382.81ZM929.554 1387.89C931.954 1386.21 933.489 1382.85 931.6 1380.04L929.942 1381.16C930.986 1382.71 930.303 1384.93 928.407 1386.26L929.554 1387.89ZM931.6 1380.04C930.893 1379 929.866 1378.15 928.702 1377.73C927.519 1377.31 926.173 1377.34 924.967 1378.12L926.047 1379.8C926.653 1379.41 927.337 1379.37 928.032 1379.62C928.746 1379.87 929.444 1380.43 929.942 1381.16L931.6 1380.04ZM924.967 1378.12C922.99 1379.38 922.264 1381.83 923.302 1383.96L925.101 1383.09C924.516 1381.88 924.903 1380.53 926.047 1379.8L924.967 1378.12ZM923.302 1383.96C923.918 1385.23 925.124 1385.81 926.222 1385.85C927.254 1385.9 928.528 1385.45 928.971 1384.24L927.095 1383.55C927.066 1383.63 926.854 1383.88 926.303 1383.86C925.819 1383.84 925.345 1383.59 925.101 1383.09L923.302 1383.96ZM928.971 1384.24C929.183 1383.67 929.302 1382.94 929.026 1382.26C928.716 1381.49 928.024 1381.06 927.181 1380.95L926.926 1382.94C927.092 1382.96 927.158 1383 927.172 1383.01C927.179 1383.01 927.178 1383.01 927.175 1383.01C927.172 1383.01 927.172 1383 927.173 1383.01C927.177 1383.02 927.192 1383.06 927.186 1383.16C927.179 1383.26 927.153 1383.39 927.095 1383.55L928.971 1384.24Z" fill="#808080" fill-opacity="0.25"/>
<circle cx="241.923" cy="817.558" r="4" transform="rotate(70 241.923 817.558)" stroke="#808080" stroke-opacity="0.25" stroke-width="2"/>
<rect x="762.648" y="452.452" width="16.2" height="16.2" rx="2" transform="rotate(145 762.648 452.452)" stroke="#808080" stroke-opacity="0.25" stroke-width="2"/>
<path d="M502.54 38.051C502.656 37.3149 502.154 36.6232 501.418 36.5065L500.084 36.2953C499.348 36.1787 498.656 36.6814 498.54 37.4175C498.423 38.1536 498.925 38.8454 499.662 38.962L500.995 39.1732C501.732 39.2899 502.423 38.7872 502.54 38.051Z" fill="#808080" fill-opacity="0.25"/>
<path d="M495.873 36.9951C495.989 36.259 495.487 35.5672 494.751 35.4506L493.417 35.2394C492.681 35.1227 491.989 35.6254 491.873 36.3616C491.756 37.0977 492.258 37.7894 492.995 37.9061L494.328 38.1173C495.065 38.2339 495.756 37.7312 495.873 36.9951Z" fill="#808080" fill-opacity="0.25"/>
<path d="M498.962 34.7507L499.173 33.4173C499.29 32.6812 498.787 31.9894 498.051 31.8728C497.314 31.7561 496.623 32.2588 496.506 32.9949L496.295 34.3283C496.179 35.0644 496.681 35.7562 497.417 35.8729C498.154 35.9895 498.845 35.4868 498.962 34.7507Z" fill="#808080" fill-opacity="0.25"/>
<path d="M497.906 41.4176L498.117 40.0843C498.234 39.3482 497.732 38.6564 496.995 38.5397C496.258 38.4231 495.567 38.9258 495.45 39.6619L495.239 40.9953C495.123 41.7314 495.625 42.4232 496.361 42.5398C497.098 42.6565 497.789 42.1537 497.906 41.4176Z" fill="#808080" fill-opacity="0.25"/>
<path d="M642.082 1618.05C642.082 1618.05 637.517 1616.57 639.001 1612C640.484 1607.44 635.919 1605.95 635.919 1605.95" stroke="#808080" stroke-opacity="0.25" stroke-width="2" stroke-linecap="round" stroke-linejoin="round"/>
<path d="M438.359 1013.54C437.869 1013.8 437.679 1014.4 437.934 1014.89C438.19 1015.38 438.794 1015.57 439.283 1015.32L438.359 1013.54ZM438.858 1005.09L439.327 1004.21L438.858 1005.09ZM432.28 1006.43L433.155 1006.92L432.28 1006.43ZM433.202 1011.87L432.698 1012.73L433.202 1011.87ZM437.864 1010.96L438.661 1011.57L437.864 1010.96ZM436.457 1007.38L436.339 1006.39L436.457 1007.38ZM434.223 1009.47C434.409 1009.99 434.981 1010.26 435.501 1010.08C436.021 1009.89 436.292 1009.32 436.106 1008.8L434.223 1009.47ZM439.283 1015.32C441.341 1014.24 442.251 1011.91 442.26 1009.77C442.268 1007.64 441.376 1005.3 439.327 1004.21L438.389 1005.97C439.56 1006.6 440.266 1008.08 440.26 1009.77C440.253 1011.45 439.535 1012.93 438.359 1013.54L439.283 1015.32ZM439.327 1004.21C436.741 1002.83 433.043 1002.99 431.405 1005.95L433.155 1006.92C434.059 1005.29 436.345 1004.89 438.389 1005.97L439.327 1004.21ZM431.405 1005.95C430.793 1007.05 430.501 1008.36 430.661 1009.58C430.823 1010.83 431.46 1012.01 432.698 1012.73L433.707 1011.01C433.085 1010.64 432.739 1010.05 432.644 1009.32C432.546 1008.57 432.723 1007.7 433.155 1006.92L431.405 1005.95ZM432.698 1012.73C434.726 1013.92 437.23 1013.46 438.661 1011.57L437.066 1010.36C436.26 1011.43 434.881 1011.69 433.707 1011.01L432.698 1012.73ZM438.661 1011.57C439.512 1010.44 439.481 1009.1 439.023 1008.1C438.591 1007.16 437.613 1006.23 436.339 1006.39L436.575 1008.37C436.657 1008.36 436.975 1008.44 437.205 1008.94C437.408 1009.38 437.403 1009.91 437.066 1010.36L438.661 1011.57ZM436.339 1006.39C435.73 1006.46 435.025 1006.68 434.545 1007.24C434.005 1007.86 433.936 1008.67 434.223 1009.47L436.106 1008.8C436.049 1008.64 436.055 1008.56 436.057 1008.55C436.058 1008.54 436.059 1008.54 436.057 1008.55C436.055 1008.55 436.053 1008.55 436.056 1008.55C436.062 1008.54 436.096 1008.51 436.187 1008.47C436.278 1008.43 436.408 1008.39 436.575 1008.37L436.339 1006.39Z" fill="#808080" fill-opacity="0.25"/>
<circle cx="143.289" cy="1606" r="4" transform="rotate(-107 143.289 1606)" stroke="#808080" stroke-opacity="0.25" stroke-width="2"/>
<rect x="184.305" y="1136.58" width="16.2" height="16.2" rx="2" transform="rotate(-112 184.305 1136.58)" stroke="#808080" stroke-opacity="0.25" stroke-width="2"/>
<path d="M724.003 72.3208C724.376 71.6754 724.155 70.8496 723.509 70.4767L722.34 69.8017C721.694 69.4288 720.868 69.6504 720.496 70.2959C720.123 70.9413 720.344 71.7671 720.99 72.14L722.159 72.8149C722.805 73.1878 723.63 72.9663 724.003 72.3208Z" fill="#808080" fill-opacity="0.25"/>
<path d="M718.157 68.9458C718.53 68.3003 718.309 67.4745 717.663 67.1017L716.494 66.4267C715.848 66.0538 715.022 66.2754 714.65 66.9208C714.277 67.5663 714.498 68.3921 715.144 68.7649L716.313 69.4399C716.959 69.8128 717.785 69.5912 718.157 68.9458Z" fill="#808080" fill-opacity="0.25"/>
<path d="M721.845 67.9575L722.52 66.7884C722.893 66.1429 722.672 65.3171 722.026 64.9443C721.38 64.5714 720.555 64.7929 720.182 65.4384L719.507 66.6075C719.135 67.2529 719.356 68.0788 720.001 68.4516C720.647 68.8245 721.473 68.6029 721.845 67.9575Z" fill="#808080" fill-opacity="0.25"/>
<path d="M718.47 73.8032L719.145 72.6341C719.518 71.9886 719.297 71.1628 718.651 70.79C718.005 70.4171 717.18 70.6387 716.807 71.2841L716.132 72.4532C715.76 73.0987 715.98 73.9245 716.626 74.2973C717.272 74.6702 718.098 74.4486 718.47 73.8032Z" fill="#808080" fill-opacity="0.25"/>
<path d="M457.111 671.992C457.111 671.992 452.329 672.41 451.911 667.628C451.492 662.847 446.711 663.265 446.711 663.265" stroke="#808080" stroke-opacity="0.25" stroke-width="2" stroke-linecap="round" stroke-linejoin="round"/>
<path d="M721.214 875.155C720.993 874.649 720.404 874.417 719.898 874.638C719.391 874.858 719.16 875.447 719.38 875.954L721.214 875.155ZM729.611 876.243L730.459 876.772L729.611 876.243ZM728.731 869.587L728.186 870.426L728.731 869.587ZM723.242 870.128L722.416 869.564L723.242 870.128ZM723.824 874.841L723.167 875.595L723.824 874.841ZM727.497 873.688L728.496 873.64L727.497 873.688ZM725.563 871.313C725.031 871.462 724.722 872.015 724.871 872.546C725.02 873.078 725.572 873.388 726.104 873.238L725.563 871.313ZM719.38 875.954C720.307 878.081 722.572 879.152 724.702 879.309C726.832 879.467 729.23 878.74 730.459 876.772L728.763 875.713C728.06 876.838 726.529 877.439 724.849 877.315C723.169 877.191 721.743 876.371 721.214 875.155L719.38 875.954ZM730.459 876.772C732.011 874.288 732.109 870.588 729.276 868.749L728.186 870.426C729.752 871.442 729.989 873.75 728.763 875.713L730.459 876.772ZM729.276 868.749C728.216 868.06 726.938 867.679 725.705 867.752C724.451 867.827 723.224 868.38 722.416 869.564L724.068 870.691C724.474 870.097 725.088 869.793 725.824 869.749C726.58 869.704 727.44 869.941 728.186 870.426L729.276 868.749ZM722.416 869.564C721.092 871.505 721.378 874.035 723.167 875.595L724.481 874.088C723.474 873.209 723.302 871.815 724.068 870.691L722.416 869.564ZM723.167 875.595C724.23 876.522 725.566 876.585 726.595 876.197C727.561 875.832 728.558 874.921 728.496 873.64L726.498 873.737C726.502 873.819 726.404 874.131 725.889 874.326C725.435 874.497 724.902 874.455 724.481 874.088L723.167 875.595ZM728.496 873.64C728.466 873.028 728.29 872.308 727.771 871.79C727.187 871.208 726.381 871.083 725.563 871.313L726.104 873.238C726.265 873.193 726.341 873.204 726.358 873.207C726.366 873.209 726.365 873.21 726.361 873.207C726.357 873.205 726.356 873.204 726.359 873.207C726.366 873.213 726.397 873.249 726.43 873.343C726.463 873.437 726.49 873.568 726.498 873.737L728.496 873.64Z" fill="#808080" fill-opacity="0.25"/>
<circle cx="583.389" cy="1746.58" r="4" transform="rotate(8 583.389 1746.58)" stroke="#808080" stroke-opacity="0.25" stroke-width="2"/>
<rect x="266.632" y="52.2461" width="16.2" height="16.2" rx="2" transform="rotate(15 266.632 52.2461)" stroke="#808080" stroke-opacity="0.25" stroke-width="2"/>
<path d="M504.662 1334.64C505.358 1334.91 506.139 1334.56 506.407 1333.86L506.89 1332.6C507.158 1331.91 506.81 1331.13 506.114 1330.86C505.418 1330.59 504.637 1330.94 504.37 1331.63L503.886 1332.9C503.619 1333.59 503.967 1334.37 504.662 1334.64Z" fill="#808080" fill-opacity="0.25"/>
<path d="M507.081 1328.34C507.777 1328.6 508.558 1328.26 508.826 1327.56L509.309 1326.3C509.577 1325.6 509.229 1324.82 508.533 1324.56C507.837 1324.29 507.056 1324.64 506.789 1325.33L506.305 1326.59C506.038 1327.29 506.386 1328.07 507.081 1328.34Z" fill="#808080" fill-opacity="0.25"/>
<path d="M508.635 1331.83L509.895 1332.31C510.591 1332.58 511.372 1332.23 511.639 1331.53C511.906 1330.84 511.558 1330.06 510.862 1329.79L509.602 1329.31C508.906 1329.04 508.125 1329.39 507.858 1330.08C507.591 1330.78 507.939 1331.56 508.635 1331.83Z" fill="#808080" fill-opacity="0.25"/>
<path d="M502.333 1329.41L503.593 1329.89C504.289 1330.16 505.07 1329.81 505.337 1329.11C505.605 1328.42 505.257 1327.64 504.561 1327.37L503.3 1326.89C502.605 1326.62 501.824 1326.97 501.556 1327.66C501.289 1328.36 501.637 1329.14 502.333 1329.41Z" fill="#808080" fill-opacity="0.25"/>
<path d="M568.437 896.209C568.437 896.209 573.114 897.289 572.034 901.966C570.954 906.643 575.631 907.723 575.631 907.723" stroke="#808080" stroke-opacity="0.25" stroke-width="2" stroke-linecap="round" stroke-linejoin="round"/>
<path d="M121.314 477.878C121.561 478.372 122.162 478.572 122.656 478.326C123.15 478.079 123.35 477.478 123.104 476.984L121.314 477.878ZM112.871 477.231L111.997 476.746L112.871 477.231ZM114.099 483.831L114.599 482.965L114.099 483.831ZM119.552 483.004L120.406 483.524L119.552 483.004ZM118.724 478.328L119.341 477.54L118.724 478.328ZM115.116 479.671L114.121 479.772L115.116 479.671ZM117.172 481.942C117.695 481.765 117.976 481.197 117.799 480.674C117.622 480.151 117.054 479.871 116.531 480.048L117.172 481.942ZM123.104 476.984C122.067 474.908 119.749 473.957 117.613 473.912C115.478 473.866 113.121 474.717 111.997 476.746L113.746 477.716C114.389 476.556 115.887 475.875 117.571 475.911C119.255 475.947 120.722 476.691 121.314 477.878L123.104 476.984ZM111.997 476.746C110.577 479.309 110.673 483.008 113.599 484.697L114.599 482.965C112.982 482.032 112.624 479.74 113.746 477.716L111.997 476.746ZM113.599 484.697C114.693 485.329 115.989 485.643 117.217 485.505C118.465 485.365 119.661 484.748 120.406 483.524L118.697 482.485C118.323 483.1 117.726 483.435 116.993 483.518C116.241 483.602 115.37 483.41 114.599 482.965L113.599 484.697ZM120.406 483.524C121.627 481.516 121.209 479.004 119.341 477.54L118.107 479.115C119.159 479.939 119.404 481.323 118.697 482.485L120.406 483.524ZM119.341 477.54C118.231 476.671 116.893 476.678 115.886 477.119C114.94 477.534 113.992 478.496 114.121 479.772L116.111 479.571C116.103 479.489 116.184 479.172 116.689 478.951C117.133 478.756 117.667 478.77 118.107 479.115L119.341 477.54ZM114.121 479.772C114.183 480.382 114.397 481.091 114.942 481.581C115.556 482.132 116.367 482.215 117.172 481.942L116.531 480.048C116.372 480.101 116.296 480.094 116.279 480.092C116.271 480.091 116.272 480.09 116.276 480.092C116.28 480.094 116.281 480.095 116.278 480.093C116.271 480.086 116.238 480.052 116.2 479.96C116.162 479.868 116.128 479.738 116.111 479.571L114.121 479.772Z" fill="#808080" fill-opacity="0.25"/>
<circle cx="156.086" cy="305.086" r="4" transform="rotate(-70 156.086 305.086)" stroke="#808080" stroke-opacity="0.25" stroke-width="2"/>
<rect x="923.687" y="343.615" width="16.2" height="16.2" rx="2" transform="rotate(-163 923.687 343.615)" stroke="#808080" stroke-opacity="0.25" stroke-width="2"/>
<path d="M70.6793 197.592C70.5371 196.86 69.8285 196.382 69.0965 196.524L67.7714 196.782C67.0393 196.924 66.5616 197.633 66.7038 198.364C66.846 199.096 67.5545 199.574 68.2865 199.432L69.6116 199.174C70.3437 199.032 70.8215 198.323 70.6793 197.592Z" fill="#808080" fill-opacity="0.25"/>
<path d="M64.0532 198.88C63.911 198.148 63.2025 197.67 62.4705 197.812L61.1453 198.07C60.4132 198.212 59.9355 198.921 60.0777 199.652C60.2199 200.384 60.9285 200.862 61.6605 200.72L62.9857 200.462C63.7177 200.32 64.1955 199.611 64.0532 198.88Z" fill="#808080" fill-opacity="0.25"/>
<path d="M66.1884 195.714L65.9308 194.389C65.7886 193.657 65.0801 193.179 64.3481 193.321C63.6161 193.463 63.1383 194.172 63.2805 194.904L63.5381 196.229C63.6803 196.961 64.3888 197.439 65.1208 197.297C65.8528 197.154 66.3306 196.446 66.1884 195.714Z" fill="#808080" fill-opacity="0.25"/>
<path d="M67.4764 202.34L67.2188 201.015C67.0766 200.283 66.368 199.805 65.636 199.947C64.904 200.089 64.4262 200.798 64.5685 201.53L64.826 202.855C64.9683 203.587 65.6768 204.065 66.4088 203.923C67.1408 203.78 67.6186 203.072 67.4764 202.34Z" fill="#808080" fill-opacity="0.25"/>
<path d="M975.131 1160.82C975.131 1160.82 972.378 1164.75 968.446 1162C964.514 1159.24 961.761 1163.18 961.761 1163.18" stroke="#808080" stroke-opacity="0.25" stroke-width="2" stroke-linecap="round" stroke-linejoin="round"/>
<path d="M531.226 1188.03C531.539 1188.49 532.162 1188.6 532.617 1188.29C533.072 1187.98 533.187 1187.35 532.874 1186.9L531.226 1188.03ZM522.776 1188.57L521.842 1188.21L522.776 1188.57ZM524.909 1194.93L525.284 1194.01L524.909 1194.93ZM530.194 1193.35L531.113 1193.75L530.194 1193.35ZM528.724 1188.84L529.225 1187.97L528.724 1188.84ZM525.338 1190.67L524.367 1190.91L525.338 1190.67ZM527.69 1192.63C528.183 1192.39 528.382 1191.78 528.134 1191.29C527.886 1190.8 527.285 1190.6 526.791 1190.85L527.69 1192.63ZM532.874 1186.9C531.558 1184.99 529.131 1184.37 527.009 1184.62C524.888 1184.87 522.673 1186.04 521.842 1188.21L523.709 1188.93C524.184 1187.69 525.573 1186.8 527.245 1186.61C528.918 1186.41 530.474 1186.94 531.226 1188.03L532.874 1186.9ZM521.842 1188.21C520.793 1190.94 521.403 1194.59 524.535 1195.86L525.284 1194.01C523.553 1193.31 522.88 1191.09 523.709 1188.93L521.842 1188.21ZM524.535 1195.86C525.706 1196.33 527.033 1196.46 528.23 1196.16C529.446 1195.84 530.545 1195.07 531.113 1193.75L529.276 1192.96C528.991 1193.62 528.446 1194.04 527.732 1194.22C526.999 1194.41 526.109 1194.34 525.284 1194.01L524.535 1195.86ZM531.113 1193.75C532.042 1191.59 531.279 1189.16 529.225 1187.97L528.222 1189.7C529.379 1190.37 529.814 1191.71 529.276 1192.96L531.113 1193.75ZM529.225 1187.97C528.005 1187.27 526.681 1187.46 525.745 1188.04C524.866 1188.58 524.061 1189.66 524.367 1190.91L526.309 1190.43C526.29 1190.35 526.326 1190.03 526.795 1189.74C527.208 1189.48 527.739 1189.42 528.222 1189.7L529.225 1187.97ZM524.367 1190.91C524.513 1191.5 524.823 1192.18 525.432 1192.59C526.116 1193.05 526.93 1193.02 527.69 1192.63L526.791 1190.85C526.642 1190.92 526.565 1190.93 526.548 1190.93C526.54 1190.93 526.54 1190.93 526.545 1190.93C526.549 1190.93 526.551 1190.93 526.547 1190.93C526.539 1190.92 526.501 1190.89 526.451 1190.81C526.401 1190.72 526.349 1190.6 526.309 1190.43L524.367 1190.91Z" fill="#808080" fill-opacity="0.25"/>
<circle cx="859.446" cy="217.554" r="4" transform="rotate(-71 859.446 217.554)" stroke="#808080" stroke-opacity="0.25" stroke-width="2"/>
<rect x="311.606" y="529.156" width="16.2" height="16.2" rx="2" transform="rotate(167 311.606 529.156)" stroke="#808080" stroke-opacity="0.25" stroke-width="2"/>
<path d="M833.567 955.723C832.915 956.084 832.679 956.906 833.041 957.558L833.695 958.739C834.057 959.391 834.879 959.627 835.531 959.265C836.182 958.904 836.418 958.082 836.057 957.43L835.402 956.249C835.041 955.597 834.219 955.362 833.567 955.723Z" fill="#808080" fill-opacity="0.25"/>
<path d="M836.84 961.627C836.188 961.988 835.952 962.81 836.313 963.462L836.968 964.643C837.329 965.295 838.151 965.53 838.803 965.169C839.455 964.808 839.691 963.986 839.329 963.334L838.675 962.153C838.313 961.501 837.491 961.266 836.84 961.627Z" fill="#808080" fill-opacity="0.25"/>
<path d="M833.169 960.574L831.988 961.229C831.337 961.59 831.101 962.412 831.462 963.064C831.824 963.716 832.645 963.952 833.297 963.59L834.478 962.936C835.13 962.574 835.366 961.753 835.004 961.101C834.643 960.448 833.821 960.213 833.169 960.574Z" fill="#808080" fill-opacity="0.25"/>
<path d="M839.073 957.302L837.892 957.956C837.24 958.318 837.004 959.139 837.366 959.792C837.727 960.444 838.549 960.679 839.201 960.318L840.382 959.663C841.034 959.302 841.27 958.48 840.908 957.828C840.546 957.176 839.725 956.941 839.073 957.302Z" fill="#808080" fill-opacity="0.25"/>
<path d="M64.9692 90.3926C64.9692 90.3926 61.4021 87.1808 64.6139 83.6137C67.8257 80.0466 64.2586 76.8348 64.2586 76.8348" stroke="#808080" stroke-opacity="0.25" stroke-width="2" stroke-linecap="round" stroke-linejoin="round"/>
<path d="M145.583 1847.17C145.636 1847.72 146.125 1848.12 146.674 1848.07C147.224 1848.02 147.627 1847.53 147.573 1846.98L145.583 1847.17ZM137.932 1843.54L137.289 1842.78L137.932 1843.54ZM136.713 1850.14L137.49 1849.51L136.713 1850.14ZM142.1 1851.33L142.711 1852.12L142.1 1851.33ZM143.003 1846.66L143.861 1846.15L143.003 1846.66ZM139.154 1846.62L138.189 1846.36L139.154 1846.62ZM140.259 1849.48C140.811 1849.5 141.276 1849.07 141.298 1848.52C141.321 1847.97 140.891 1847.5 140.339 1847.48L140.259 1849.48ZM147.573 1846.98C147.35 1844.67 145.526 1842.95 143.549 1842.14C141.572 1841.33 139.067 1841.28 137.289 1842.78L138.575 1844.31C139.591 1843.46 141.233 1843.36 142.792 1843.99C144.352 1844.63 145.455 1845.85 145.583 1847.17L147.573 1846.98ZM137.289 1842.78C135.046 1844.66 133.81 1848.15 135.936 1850.77L137.49 1849.51C136.315 1848.06 136.803 1845.8 138.575 1844.31L137.289 1842.78ZM135.936 1850.77C136.731 1851.75 137.828 1852.51 139.024 1852.82C140.239 1853.14 141.577 1852.99 142.711 1852.12L141.489 1850.53C140.919 1850.97 140.241 1851.07 139.528 1850.89C138.794 1850.7 138.05 1850.21 137.49 1849.51L135.936 1850.77ZM142.711 1852.12C144.571 1850.68 145.081 1848.19 143.861 1846.15L142.145 1847.18C142.832 1848.32 142.565 1849.7 141.489 1850.53L142.711 1852.12ZM143.861 1846.15C143.137 1844.94 141.885 1844.47 140.787 1844.52C139.755 1844.57 138.525 1845.12 138.189 1846.36L140.118 1846.89C140.14 1846.81 140.33 1846.54 140.88 1846.52C141.364 1846.49 141.858 1846.7 142.145 1847.18L143.861 1846.15ZM138.189 1846.36C138.028 1846.95 137.973 1847.69 138.307 1848.35C138.682 1849.08 139.41 1849.45 140.259 1849.48L140.339 1847.48C140.172 1847.48 140.103 1847.44 140.089 1847.43C140.082 1847.43 140.082 1847.43 140.085 1847.43C140.089 1847.44 140.089 1847.44 140.087 1847.43C140.083 1847.43 140.064 1847.38 140.061 1847.28C140.059 1847.18 140.074 1847.05 140.118 1846.89L138.189 1846.36Z" fill="#808080" fill-opacity="0.25"/>
<circle cx="351.16" cy="1693.84" r="4" transform="rotate(54 351.16 1693.84)" stroke="#808080" stroke-opacity="0.25" stroke-width="2"/>
<rect x="478.542" y="390.469" width="16.2" height="16.2" rx="2" transform="rotate(100 478.542 390.469)" stroke="#808080" stroke-opacity="0.25" stroke-width="2"/>
<path d="M285.946 1273.51C286.509 1274 287.362 1273.94 287.851 1273.38L288.736 1272.36C289.226 1271.8 289.166 1270.95 288.603 1270.46C288.041 1269.97 287.188 1270.03 286.699 1270.59L285.813 1271.61C285.324 1272.17 285.384 1273.03 285.946 1273.51Z" fill="#808080" fill-opacity="0.25"/>
<path d="M290.375 1268.42C290.937 1268.91 291.79 1268.85 292.279 1268.29L293.165 1267.27C293.654 1266.71 293.594 1265.85 293.032 1265.36C292.469 1264.87 291.616 1264.93 291.127 1265.5L290.242 1266.52C289.752 1267.08 289.812 1267.93 290.375 1268.42Z" fill="#808080" fill-opacity="0.25"/>
<path d="M290.641 1272.23L291.66 1273.11C292.222 1273.6 293.075 1273.54 293.564 1272.98C294.054 1272.42 293.994 1271.57 293.431 1271.08L292.412 1270.19C291.85 1269.7 290.997 1269.76 290.508 1270.32C290.019 1270.89 290.079 1271.74 290.641 1272.23Z" fill="#808080" fill-opacity="0.25"/>
<path d="M285.547 1267.8L286.566 1268.69C287.128 1269.18 287.981 1269.12 288.47 1268.55C288.959 1267.99 288.899 1267.14 288.337 1266.65L287.318 1265.76C286.756 1265.27 285.903 1265.33 285.414 1265.9C284.924 1266.46 284.984 1267.31 285.547 1267.8Z" fill="#808080" fill-opacity="0.25"/>
<path d="M629.987 315.153C629.987 315.153 631.148 319.81 626.49 320.972C621.833 322.133 622.994 326.79 622.994 326.79" stroke="#808080" stroke-opacity="0.25" stroke-width="2" stroke-linecap="round" stroke-linejoin="round"/>
<path d="M203.987 186.537C204.154 187.064 204.715 187.356 205.242 187.189C205.769 187.023 206.061 186.461 205.894 185.934L203.987 186.537ZM195.749 184.578L194.961 183.962L195.749 184.578ZM195.929 191.288L196.558 190.511L195.929 191.288ZM201.444 191.325L202.207 191.972L201.444 191.325ZM201.358 186.576L202.091 185.895L201.358 186.576ZM197.585 187.339L196.586 187.283L197.585 187.339ZM199.26 189.903C199.804 189.81 200.17 189.294 200.077 188.749C199.984 188.205 199.468 187.839 198.923 187.932L199.26 189.903ZM205.894 185.934C205.195 183.722 203.054 182.42 200.952 182.041C198.85 181.662 196.39 182.133 194.961 183.962L196.538 185.193C197.354 184.148 198.94 183.71 200.597 184.009C202.255 184.308 203.588 185.272 203.987 186.537L205.894 185.934ZM194.961 183.962C193.158 186.271 192.674 189.94 195.3 192.066L196.558 190.511C195.108 189.337 195.113 187.017 196.538 185.193L194.961 183.962ZM195.3 192.066C196.282 192.861 197.513 193.374 198.747 193.43C200.001 193.486 201.28 193.065 202.207 191.972L200.682 190.678C200.216 191.227 199.574 191.465 198.837 191.432C198.08 191.398 197.25 191.071 196.558 190.511L195.3 192.066ZM202.207 191.972C203.727 190.18 203.707 187.633 202.091 185.895L200.626 187.257C201.536 188.236 201.562 189.641 200.682 190.678L202.207 191.972ZM202.091 185.895C201.131 184.863 199.808 184.66 198.744 184.938C197.745 185.2 196.659 186.002 196.586 187.283L198.583 187.395C198.588 187.313 198.718 187.013 199.251 186.873C199.72 186.75 200.246 186.848 200.626 187.257L202.091 185.895ZM196.586 187.283C196.552 187.895 196.652 188.629 197.114 189.198C197.634 189.838 198.422 190.046 199.26 189.903L198.923 187.932C198.758 187.96 198.684 187.941 198.668 187.937C198.66 187.934 198.66 187.933 198.664 187.936C198.668 187.939 198.669 187.94 198.667 187.937C198.661 187.93 198.633 187.891 198.61 187.794C198.587 187.697 198.574 187.564 198.583 187.395L196.586 187.283Z" fill="#808080" fill-opacity="0.25"/>
<circle cx="59.1352" cy="846.865" r="4" transform="rotate(-0.999999 59.1352 846.865)" stroke="#808080" stroke-opacity="0.25" stroke-width="2"/>
<rect x="1035.79" y="1440.09" width="16.2" height="16.2" rx="2" transform="rotate(158 1035.79 1440.09)" stroke="#808080" stroke-opacity="0.25" stroke-width="2"/>
<path d="M976.24 1823.48C976.872 1823.87 977.705 1823.68 978.1 1823.05L978.816 1821.9C979.211 1821.27 979.018 1820.44 978.386 1820.04C977.754 1819.65 976.921 1819.84 976.526 1820.47L975.811 1821.62C975.415 1822.25 975.608 1823.08 976.24 1823.48Z" fill="#808080" fill-opacity="0.25"/>
<path d="M979.817 1817.75C980.449 1818.15 981.282 1817.96 981.677 1817.32L982.393 1816.18C982.788 1815.55 982.595 1814.71 981.963 1814.32C981.331 1813.92 980.498 1814.12 980.103 1814.75L979.388 1815.89C978.992 1816.53 979.185 1817.36 979.817 1817.75Z" fill="#808080" fill-opacity="0.25"/>
<path d="M980.676 1821.47L981.821 1822.19C982.453 1822.58 983.286 1822.39 983.681 1821.76C984.076 1821.13 983.884 1820.3 983.252 1819.9L982.107 1819.18C981.475 1818.79 980.642 1818.98 980.247 1819.61C979.851 1820.25 980.044 1821.08 980.676 1821.47Z" fill="#808080" fill-opacity="0.25"/>
<path d="M974.952 1817.9L976.097 1818.61C976.729 1819.01 977.562 1818.82 977.957 1818.18C978.352 1817.55 978.159 1816.72 977.527 1816.32L976.382 1815.61C975.75 1815.21 974.917 1815.4 974.522 1816.04C974.127 1816.67 974.32 1817.5 974.952 1817.9Z" fill="#808080" fill-opacity="0.25"/>
<path d="M977.56 1520.35C977.56 1520.35 980.709 1523.97 977.086 1527.12C973.463 1530.27 976.613 1533.89 976.613 1533.89" stroke="#808080" stroke-opacity="0.25" stroke-width="2" stroke-linecap="round" stroke-linejoin="round"/>
<path d="M1039.19 698.244C1038.67 698.428 1038.4 699 1038.58 699.52C1038.77 700.041 1039.34 700.313 1039.86 700.128L1039.19 698.244ZM1040.86 689.943L1041.45 689.133L1040.86 689.943ZM1034.16 690.356L1034.96 690.958L1034.16 690.356ZM1034.32 695.87L1033.7 696.654L1034.32 695.87ZM1039.06 695.618L1039.77 696.326L1039.06 695.618ZM1038.17 691.873L1038.19 690.873L1038.17 691.873ZM1035.66 693.637C1035.77 694.178 1036.3 694.525 1036.84 694.413C1037.38 694.301 1037.73 693.772 1037.62 693.231L1035.66 693.637ZM1039.86 700.128C1042.05 699.353 1043.27 697.168 1043.58 695.054C1043.88 692.94 1043.33 690.497 1041.45 689.133L1040.27 690.752C1041.35 691.531 1041.84 693.101 1041.6 694.768C1041.36 696.435 1040.44 697.8 1039.19 698.244L1039.86 700.128ZM1041.45 689.133C1039.08 687.412 1035.39 687.056 1033.36 689.755L1034.96 690.958C1036.08 689.468 1038.4 689.392 1040.27 690.752L1041.45 689.133ZM1033.36 689.755C1032.6 690.764 1032.13 692.012 1032.12 693.247C1032.11 694.503 1032.57 695.766 1033.7 696.654L1034.94 695.085C1034.37 694.638 1034.11 694.005 1034.12 693.268C1034.13 692.51 1034.42 691.669 1034.96 690.958L1033.36 689.755ZM1033.7 696.654C1035.54 698.111 1038.09 698.002 1039.77 696.326L1038.35 694.91C1037.41 695.854 1036 695.928 1034.94 695.085L1033.7 696.654ZM1039.77 696.326C1040.76 695.33 1040.92 694.001 1040.6 692.948C1040.31 691.959 1039.47 690.901 1038.19 690.873L1038.14 692.873C1038.23 692.875 1038.53 692.994 1038.69 693.522C1038.83 693.987 1038.75 694.515 1038.35 694.91L1039.77 696.326ZM1038.19 690.873C1037.57 690.86 1036.84 690.986 1036.29 691.468C1035.67 692.01 1035.49 692.805 1035.66 693.637L1037.62 693.231C1037.59 693.068 1037.6 692.992 1037.61 692.976C1037.61 692.969 1037.61 692.969 1037.61 692.973C1037.6 692.977 1037.6 692.978 1037.61 692.975C1037.61 692.969 1037.65 692.94 1037.75 692.913C1037.84 692.887 1037.98 692.869 1038.14 692.873L1038.19 690.873Z" fill="#808080" fill-opacity="0.25"/>
<path d="M73.8239 551.838C75.9915 553.231 79.2774 554.077 82.401 552.325C82.451 552.297 82.5103 552.346 82.4923 552.4C80.7922 557.555 77.2747 558.889 74.3435 558.699C72.1536 558.557 71.4295 558.093 70.2599 557.43C69.0964 556.771 62.571 550.471 70.3009 543.794C70.3436 543.757 70.4127 543.79 70.4073 543.846C70.0425 547.682 71.6529 550.443 73.8239 551.838Z" stroke="#FFCA1E" stroke-width="2"/>
<path d="M333.92 605.341C342.339 610.545 344.327 613.489 344.107 614.729C343.767 616.649 337.38 615.755 328.927 612.773M333.92 605.341C333.92 605.341 335.997 595.497 326.824 590.691C317.651 585.885 310.632 594.478 310.632 594.478M333.92 605.341C333.565 606.493 333.552 606.567 332.963 607.753M310.632 594.478C300.988 591.329 297.26 591.496 296.764 592.83C296.146 594.495 300.424 598.363 307.978 602.854M310.632 594.478C310.007 595.41 309.723 595.942 309.367 596.912M332.963 607.753C332.963 607.753 334.71 609.369 334.722 610.265C334.73 610.924 332.979 611.115 330.685 610.768M332.963 607.753C332.311 609.161 331.695 609.842 330.685 610.768M309.367 596.912C309.367 596.912 306.922 596.191 306.336 597.099C305.939 597.714 306.503 598.762 308.402 600.234M309.367 596.912C308.924 597.97 308.603 598.68 308.402 600.234M308.402 600.234C310.502 601.861 314.112 604.144 319.386 606.612C324.659 609.079 328.115 610.205 330.685 610.768M307.978 602.854C310.897 604.59 314.643 606.62 318.282 608.353C321.988 610.117 325.616 611.606 328.927 612.773M307.978 602.854C307.978 602.854 307.641 610.576 315.662 614.382C323.684 618.187 328.927 612.773 328.927 612.773" stroke="#FFCA1E" stroke-width="2"/>
<path d="M215.967 1354.79L216.965 1354.74C216.943 1354.31 216.644 1353.94 216.225 1353.83L215.967 1354.79ZM215.773 1351L216.133 1351.94C216.536 1351.78 216.794 1351.38 216.772 1350.95L215.773 1351ZM219.305 1349.64L218.527 1350.27C218.8 1350.6 219.26 1350.73 219.666 1350.57L219.305 1349.64ZM221.682 1352.59L220.843 1352.04C220.608 1352.41 220.632 1352.88 220.903 1353.21L221.682 1352.59ZM219.619 1355.77L219.877 1354.81C219.458 1354.7 219.015 1354.87 218.779 1355.23L219.619 1355.77ZM224.376 1355.93L225.155 1355.3L225.155 1355.3L224.376 1355.93ZM223.31 1348.09L223.67 1349.02L223.67 1349.02L223.31 1348.09ZM224.021 1348.97L224.861 1349.52L224.861 1349.52L224.021 1348.97ZM215.553 1346.71L216.552 1346.65L216.552 1346.65L215.553 1346.71ZM216.611 1346.3L215.832 1346.92L215.832 1346.92L216.611 1346.3ZM211.769 1352.55L212.129 1353.48L211.769 1352.55ZM216.186 1359.09L217.185 1359.04L217.185 1359.04L216.186 1359.09ZM217.279 1359.39L218.119 1359.93L217.279 1359.39ZM217.185 1359.04L216.965 1354.74L214.968 1354.85L215.187 1359.14L217.185 1359.04ZM216.225 1353.83L212.085 1352.72L211.568 1354.65L215.708 1355.76L216.225 1353.83ZM212.129 1353.48L216.133 1351.94L215.413 1350.07L211.408 1351.62L212.129 1353.48ZM216.772 1350.95L216.552 1346.65L214.555 1346.76L214.774 1351.05L216.772 1350.95ZM215.832 1346.92L218.527 1350.27L220.084 1349.01L217.389 1345.67L215.832 1346.92ZM219.666 1350.57L223.67 1349.02L222.949 1347.16L218.945 1348.71L219.666 1350.57ZM223.182 1348.43L220.843 1352.04L222.521 1353.13L224.861 1349.52L223.182 1348.43ZM220.903 1353.21L223.598 1356.56L225.155 1355.3L222.46 1351.96L220.903 1353.21ZM224.017 1355.92L219.877 1354.81L219.36 1356.74L223.5 1357.85L224.017 1355.92ZM218.779 1355.23L216.44 1358.84L218.119 1359.93L220.458 1356.32L218.779 1355.23ZM223.598 1356.56C223.359 1356.26 223.63 1355.81 224.017 1355.92L223.5 1357.85C225.001 1358.25 226.118 1356.5 225.155 1355.3L223.598 1356.56ZM223.67 1349.02C223.289 1349.17 222.979 1348.74 223.182 1348.43L224.861 1349.52C225.693 1348.23 224.408 1346.6 222.949 1347.16L223.67 1349.02ZM216.552 1346.65C216.571 1347.03 216.089 1347.24 215.832 1346.92L217.389 1345.67C216.408 1344.45 214.477 1345.23 214.555 1346.76L216.552 1346.65ZM212.085 1352.72C212.473 1352.82 212.483 1353.35 212.129 1353.48L211.408 1351.62C209.977 1352.17 210.066 1354.25 211.568 1354.65L212.085 1352.72ZM215.187 1359.14C215.266 1360.69 217.277 1361.23 218.119 1359.93L216.44 1358.84C216.653 1358.51 217.165 1358.65 217.185 1359.04L215.187 1359.14Z" fill="#FFCA1E"/>
<path d="M312.586 1018.95L312.709 1017.96C312.279 1017.91 311.863 1018.14 311.68 1018.53L312.586 1018.95ZM308.818 1018.49L309.8 1018.29C309.716 1017.87 309.37 1017.55 308.942 1017.49L308.818 1018.49ZM308.088 1014.77L308.571 1015.65C308.952 1015.44 309.153 1015 309.069 1014.58L308.088 1014.77ZM311.404 1012.94L310.723 1013.67C311.039 1013.97 311.509 1014.03 311.887 1013.82L311.404 1012.94ZM314.184 1015.53L313.277 1015.1C313.094 1015.5 313.185 1015.96 313.503 1016.26L314.184 1015.53ZM315.163 1010.87L314.68 1009.99L314.68 1009.99L315.163 1010.87ZM307.26 1010.56L308.241 1010.36L308.241 1010.36L307.26 1010.56ZM308.252 1010.01L308.933 1009.28L308.933 1009.28L308.252 1010.01ZM304.548 1017.96L304.671 1016.96L304.671 1016.96L304.548 1017.96ZM304.329 1016.84L304.812 1017.72L304.812 1017.72L304.329 1016.84ZM309.647 1022.7L310.628 1022.5L309.647 1022.7ZM316.857 1019.48L316.98 1018.49L316.98 1018.49L316.857 1019.48ZM317.335 1018.46L318.016 1017.73L317.335 1018.46ZM316.98 1018.49L312.709 1017.96L312.463 1019.95L316.734 1020.48L316.98 1018.49ZM311.68 1018.53L309.868 1022.42L311.681 1023.26L313.492 1019.38L311.68 1018.53ZM310.628 1022.5L309.8 1018.29L307.837 1018.68L308.665 1022.89L310.628 1022.5ZM308.942 1017.49L304.671 1016.96L304.424 1018.95L308.695 1019.48L308.942 1017.49ZM304.812 1017.72L308.571 1015.65L307.605 1013.89L303.846 1015.97L304.812 1017.72ZM309.069 1014.58L308.241 1010.36L306.279 1010.75L307.107 1014.96L309.069 1014.58ZM307.571 1010.74L310.723 1013.67L312.085 1012.21L308.933 1009.28L307.571 1010.74ZM311.887 1013.82L315.646 1011.74L314.68 1009.99L310.921 1012.07L311.887 1013.82ZM315.089 1011.22L313.277 1015.1L315.09 1015.95L316.901 1012.06L315.089 1011.22ZM313.503 1016.26L316.654 1019.19L318.016 1017.73L314.865 1014.79L313.503 1016.26ZM315.646 1011.74C315.313 1011.93 314.919 1011.58 315.089 1011.22L316.901 1012.06C317.558 1010.66 316.024 1009.25 314.68 1009.99L315.646 1011.74ZM308.241 1010.36C308.32 1010.77 307.845 1011 307.571 1010.74L308.933 1009.28C307.812 1008.24 305.977 1009.22 306.279 1010.75L308.241 1010.36ZM304.671 1016.96C305.041 1017.01 305.17 1017.52 304.812 1017.72L303.846 1015.97C302.477 1016.72 302.905 1018.76 304.424 1018.95L304.671 1016.96ZM309.868 1022.42C310.038 1022.05 310.555 1022.13 310.628 1022.5L308.665 1022.89C308.962 1024.4 311.024 1024.67 311.681 1023.26L309.868 1022.42ZM316.734 1020.48C318.271 1020.67 319.15 1018.78 318.016 1017.73L316.654 1019.19C316.368 1018.92 316.592 1018.44 316.98 1018.49L316.734 1020.48Z" fill="#FFCA1E"/>
<path d="M613.117 177.789C614.103 180.17 616.319 182.739 619.885 183.081C619.942 183.086 619.962 183.16 619.917 183.195C615.579 186.46 611.93 185.548 609.631 183.72C607.913 182.355 607.583 181.561 607 180.349C606.42 179.144 604.654 170.248 614.812 169.172C614.868 169.166 614.906 169.232 614.869 169.276C612.382 172.219 612.13 175.405 613.117 177.789Z" stroke="#FFCA1E" stroke-width="2"/>
<path d="M533.771 445.193L532.953 444.619C532.703 444.974 532.711 445.449 532.972 445.795L533.771 445.193ZM531.589 448.3L531.88 447.343C531.466 447.218 531.019 447.372 530.771 447.726L531.589 448.3ZM527.966 447.201L528.966 447.186C528.959 446.751 528.672 446.37 528.256 446.244L527.966 447.201ZM527.908 443.415L528.235 444.36C528.643 444.219 528.914 443.831 528.908 443.399L527.908 443.415ZM531.496 442.174L530.697 442.776C530.958 443.122 531.413 443.261 531.822 443.119L531.496 442.174ZM527.842 439.122L526.842 439.138L526.842 439.138L527.842 439.122ZM523.858 445.955L524.148 444.998L524.148 444.998L523.858 445.955ZM523.84 444.821L523.514 443.876L523.514 443.876L523.84 444.821ZM529.116 451.822L528.298 451.248L528.298 451.248L529.116 451.822ZM528.031 451.493L529.031 451.478L529.031 451.478L528.031 451.493ZM535.697 449.547L535.988 448.59L535.697 449.547ZM536.244 441.671L535.426 441.097L535.426 441.097L536.244 441.671ZM535.563 440.767L535.236 439.822L535.563 440.767ZM535.426 441.097L532.953 444.619L534.589 445.768L537.063 442.246L535.426 441.097ZM532.972 445.795L535.552 449.218L537.149 448.015L534.57 444.592L532.972 445.795ZM535.988 448.59L531.88 447.343L531.299 449.257L535.407 450.503L535.988 448.59ZM530.771 447.726L528.298 451.248L529.935 452.397L532.408 448.875L530.771 447.726ZM529.031 451.478L528.966 447.186L526.966 447.216L527.031 451.509L529.031 451.478ZM528.256 446.244L524.148 444.998L523.567 446.912L527.675 448.158L528.256 446.244ZM524.167 445.766L528.235 444.36L527.581 442.47L523.514 443.876L524.167 445.766ZM528.908 443.399L528.842 439.107L526.842 439.138L526.908 443.43L528.908 443.399ZM528.118 439.353L530.697 442.776L532.294 441.572L529.715 438.149L528.118 439.353ZM531.822 443.119L535.89 441.712L535.236 439.822L531.169 441.229L531.822 443.119ZM528.842 439.107C528.848 439.487 528.359 439.673 528.118 439.353L529.715 438.149C528.779 436.908 526.819 437.603 526.842 439.138L528.842 439.107ZM524.148 444.998C524.539 445.116 524.52 445.644 524.167 445.766L523.514 443.876C522.067 444.376 522.071 446.458 523.567 446.912L524.148 444.998ZM528.298 451.248C528.512 450.942 529.025 451.069 529.031 451.478L527.031 451.509C527.055 453.072 529.055 453.65 529.935 452.397L528.298 451.248ZM535.552 449.218C535.31 448.898 535.624 448.479 535.988 448.59L535.407 450.503C536.876 450.949 538.085 449.256 537.149 448.015L535.552 449.218ZM537.063 442.246C537.953 440.978 536.7 439.316 535.236 439.822L535.89 441.712C535.52 441.84 535.201 441.417 535.426 441.097L537.063 442.246Z" fill="#FFCA1E"/>
<path d="M404.992 1640.38C407.568 1640.32 410.765 1639.19 412.375 1635.99C412.4 1635.94 412.477 1635.94 412.492 1636C413.966 1641.22 411.795 1644.3 409.259 1645.78C407.364 1646.88 406.505 1646.9 405.164 1647.01C403.831 1647.11 394.898 1645.54 397.573 1635.68C397.588 1635.63 397.663 1635.62 397.69 1635.66C399.533 1639.05 402.412 1640.44 404.992 1640.38Z" stroke="#FFCA1E" stroke-width="2"/>
<path d="M854.765 1319.55L855.657 1319.1C855.46 1318.71 855.037 1318.5 854.609 1318.57L854.765 1319.55ZM853.046 1316.17L853.755 1316.87C854.06 1316.57 854.133 1316.1 853.938 1315.72L853.046 1316.17ZM855.718 1313.48L855.262 1314.37C855.649 1314.57 856.12 1314.5 856.427 1314.19L855.718 1313.48ZM859.088 1315.21L858.1 1315.06C858.033 1315.48 858.248 1315.9 858.632 1316.1L859.088 1315.21ZM858.499 1318.96L858.343 1317.97C857.915 1318.04 857.579 1318.38 857.512 1318.81L858.499 1318.96ZM862.909 1317.17L863.365 1316.28L863.365 1316.28L862.909 1317.17ZM858.747 1310.44L859.456 1311.15L859.456 1311.15L858.747 1310.44ZM859.756 1310.96L860.744 1311.11L860.744 1311.11L859.756 1310.96ZM851.097 1312.33L851.989 1311.88L851.989 1311.88L851.097 1312.33ZM851.897 1311.53L851.441 1312.42L851.441 1312.42L851.897 1311.53ZM850.017 1319.21L850.726 1319.92L850.017 1319.21ZM856.714 1323.39L857.606 1322.94L857.606 1322.94L856.714 1323.39ZM857.832 1323.21L858.82 1323.37L857.832 1323.21ZM857.606 1322.94L855.657 1319.1L853.874 1320.01L855.822 1323.84L857.606 1322.94ZM854.609 1318.57L850.375 1319.24L850.688 1321.21L854.922 1320.54L854.609 1318.57ZM850.726 1319.92L853.755 1316.87L852.338 1315.46L849.309 1318.5L850.726 1319.92ZM853.938 1315.72L851.989 1311.88L850.206 1312.78L852.155 1316.62L853.938 1315.72ZM851.441 1312.42L855.262 1314.37L856.174 1312.59L852.353 1310.64L851.441 1312.42ZM856.427 1314.19L859.456 1311.15L858.038 1309.74L855.009 1312.78L856.427 1314.19ZM858.768 1310.8L858.1 1315.06L860.076 1315.37L860.744 1311.11L858.768 1310.8ZM858.632 1316.1L862.453 1318.06L863.365 1316.28L859.544 1314.32L858.632 1316.1ZM862.576 1317.3L858.343 1317.97L858.656 1319.95L862.889 1319.28L862.576 1317.3ZM857.512 1318.81L856.844 1323.06L858.82 1323.37L859.487 1319.12L857.512 1318.81ZM862.453 1318.06C862.115 1317.88 862.18 1317.37 862.576 1317.3L862.889 1319.28C864.425 1319.04 864.731 1316.98 863.365 1316.28L862.453 1318.06ZM859.456 1311.15C859.167 1311.44 858.71 1311.17 858.768 1310.8L860.744 1311.11C860.981 1309.6 859.141 1308.63 858.038 1309.74L859.456 1311.15ZM851.989 1311.88C852.158 1312.21 851.805 1312.6 851.441 1312.42L852.353 1310.64C850.962 1309.92 849.513 1311.42 850.206 1312.78L851.989 1311.88ZM850.375 1319.24C850.772 1319.17 850.994 1319.65 850.726 1319.92L849.309 1318.5C848.226 1319.59 849.153 1321.45 850.688 1321.21L850.375 1319.24ZM855.822 1323.84C856.524 1325.22 858.579 1324.9 858.82 1323.37L856.844 1323.06C856.905 1322.67 857.428 1322.59 857.606 1322.94L855.822 1323.84Z" fill="#FFCA1E"/>
<path d="M724.268 1851.69C723.546 1849.21 721.621 1846.42 718.114 1845.69C718.058 1845.68 718.045 1845.61 718.094 1845.58C722.76 1842.8 726.289 1844.1 728.377 1846.17C729.936 1847.71 730.179 1848.54 730.626 1849.81C731.072 1851.07 731.864 1860.1 721.649 1860.07C721.593 1860.07 721.562 1860 721.603 1859.96C724.395 1857.3 724.991 1854.16 724.268 1851.69Z" stroke="#FFCA1E" stroke-width="2"/>
<path d="M783.668 1455.86C792.466 1451.32 796.012 1451.13 796.962 1451.96C798.433 1453.24 794.377 1458.26 787.468 1463.97M783.668 1455.86C783.668 1455.86 776.3 1449.01 767.456 1454.39C758.612 1459.78 762.363 1470.22 762.363 1470.22M783.668 1455.86C784.473 1456.76 784.53 1456.8 785.244 1457.92M762.363 1470.22C754.697 1476.87 752.92 1480.15 753.808 1481.26C754.917 1482.65 760.435 1480.98 768.176 1476.81M762.363 1470.22C762.84 1471.24 763.15 1471.76 763.798 1472.56M785.244 1457.92C785.244 1457.92 787.529 1457.25 788.302 1457.71C788.872 1458.04 788.133 1459.64 786.654 1461.43M785.244 1457.92C786.115 1459.2 786.381 1460.08 786.654 1461.43M763.798 1472.56C763.798 1472.56 761.92 1474.29 762.397 1475.26C762.72 1475.91 763.909 1475.97 766.149 1475.1M763.798 1472.56C764.477 1473.49 764.92 1474.13 766.149 1475.1M766.149 1475.1C768.625 1474.14 772.441 1472.22 777.272 1468.97C782.104 1465.72 784.848 1463.34 786.654 1461.43M768.176 1476.81C771.167 1475.21 774.837 1473.04 778.196 1470.81C781.617 1468.55 784.762 1466.2 787.468 1463.97M768.176 1476.81C768.176 1476.81 774.622 1481.08 782.015 1476.16C789.408 1471.25 787.468 1463.97 787.468 1463.97" stroke="#FFCA1E" stroke-width="2"/>
<path d="M921.484 564.732L920.484 564.696C920.469 565.129 920.734 565.523 921.142 565.672L921.484 564.732ZM921.346 568.526L921.069 567.565C920.654 567.685 920.363 568.058 920.347 568.49L921.346 568.526ZM917.708 569.577L918.539 569.02C918.296 568.659 917.848 568.496 917.431 568.617L917.708 569.577ZM915.598 566.433L916.387 567.048C916.652 566.707 916.669 566.235 916.428 565.876L915.598 566.433ZM917.931 563.439L917.589 564.379C917.997 564.527 918.453 564.396 918.72 564.053L917.931 563.439ZM913.205 562.869L912.375 563.427L912.375 563.427L913.205 562.869ZM913.584 570.77L913.307 569.809L913.307 569.809L913.584 570.77ZM912.953 569.828L912.164 569.214L912.164 569.214L912.953 569.828ZM921.19 572.827L920.191 572.79L920.191 572.79L921.19 572.827ZM920.101 573.142L920.932 572.584L920.932 572.584L920.101 573.142ZM925.47 567.334L925.193 566.373L925.47 567.334ZM921.64 560.431L920.64 560.395L920.64 560.395L921.64 560.431ZM920.576 560.044L919.787 559.429L920.576 560.044ZM920.64 560.395L920.484 564.696L922.483 564.768L922.639 560.467L920.64 560.395ZM921.142 565.672L925.169 567.138L925.853 565.258L921.826 563.792L921.142 565.672ZM925.193 566.373L921.069 567.565L921.624 569.486L925.748 568.294L925.193 566.373ZM920.347 568.49L920.191 572.79L922.19 572.863L922.346 568.562L920.347 568.49ZM920.932 572.584L918.539 569.02L916.878 570.135L919.271 573.699L920.932 572.584ZM917.431 568.617L913.307 569.809L913.862 571.73L917.986 570.538L917.431 568.617ZM913.741 570.443L916.387 567.048L914.809 565.819L912.164 569.214L913.741 570.443ZM916.428 565.876L914.035 562.312L912.375 563.427L914.767 566.991L916.428 565.876ZM913.561 562.913L917.589 564.379L918.273 562.499L914.245 561.033L913.561 562.913ZM918.72 564.053L921.365 560.659L919.787 559.429L917.142 562.824L918.72 564.053ZM914.035 562.312C914.247 562.627 913.939 563.05 913.561 562.913L914.245 561.033C912.785 560.502 911.519 562.153 912.375 563.427L914.035 562.312ZM913.307 569.809C913.699 569.695 913.971 570.148 913.741 570.443L912.164 569.214C911.223 570.422 912.36 572.164 913.862 571.73L913.307 569.809ZM920.191 572.79C920.205 572.417 920.704 572.245 920.932 572.584L919.271 573.699C920.142 574.997 922.134 574.393 922.19 572.863L920.191 572.79ZM925.169 567.138C924.792 567 924.828 566.478 925.193 566.373L925.748 568.294C927.222 567.868 927.314 565.79 925.853 565.258L925.169 567.138ZM922.639 560.467C922.695 558.919 920.739 558.208 919.787 559.429L921.365 560.659C921.124 560.967 920.626 560.786 920.64 560.395L922.639 560.467Z" fill="#FFCA1E"/>
<path d="M786.385 1141.7L786.176 1142.68C786.6 1142.77 787.034 1142.58 787.251 1142.2L786.385 1141.7ZM790.097 1142.5L789.103 1142.61C789.149 1143.03 789.466 1143.39 789.888 1143.48L790.097 1142.5ZM790.501 1146.26L790.096 1145.35C789.699 1145.53 789.46 1145.94 789.507 1146.37L790.501 1146.26ZM787.038 1147.8L787.781 1147.13C787.491 1146.81 787.029 1146.71 786.634 1146.88L787.038 1147.8ZM784.494 1144.98L785.36 1145.48C785.577 1145.1 785.527 1144.63 785.237 1144.31L784.494 1144.98ZM783.113 1149.53L783.518 1150.45L783.518 1150.45L783.113 1149.53ZM790.959 1150.53L789.965 1150.64L789.965 1150.64L790.959 1150.53ZM789.922 1150.99L789.18 1151.66L789.18 1151.66L789.922 1150.99ZM794.306 1143.4L794.096 1144.38L794.096 1144.38L794.306 1143.4ZM794.427 1144.53L794.022 1143.61L794.022 1143.61L794.427 1144.53ZM789.639 1138.23L788.645 1138.34L789.639 1138.23ZM782.176 1140.8L781.967 1141.78L781.967 1141.78L782.176 1140.8ZM781.61 1141.78L780.868 1142.45L781.61 1141.78ZM781.967 1141.78L786.176 1142.68L786.594 1140.73L782.386 1139.83L781.967 1141.78ZM787.251 1142.2L789.394 1138.49L787.662 1137.49L785.519 1141.2L787.251 1142.2ZM788.645 1138.34L789.103 1142.61L791.091 1142.39L790.634 1138.12L788.645 1138.34ZM789.888 1143.48L794.096 1144.38L794.515 1142.42L790.306 1141.52L789.888 1143.48ZM794.022 1143.61L790.096 1145.35L790.906 1147.18L794.831 1145.44L794.022 1143.61ZM789.507 1146.37L789.965 1150.64L791.953 1150.43L791.495 1146.16L789.507 1146.37ZM790.665 1150.32L787.781 1147.13L786.296 1148.47L789.18 1151.66L790.665 1150.32ZM786.634 1146.88L782.708 1148.62L783.518 1150.45L787.443 1148.71L786.634 1146.88ZM783.217 1149.19L785.36 1145.48L783.628 1144.48L781.485 1148.19L783.217 1149.19ZM785.237 1144.31L782.353 1141.11L780.868 1142.45L783.752 1145.65L785.237 1144.31ZM782.708 1148.62C783.056 1148.47 783.418 1148.84 783.217 1149.19L781.485 1148.19C780.708 1149.54 782.114 1151.07 783.518 1150.45L782.708 1148.62ZM789.965 1150.64C789.921 1150.23 790.414 1150.04 790.665 1150.32L789.18 1151.66C790.206 1152.8 792.12 1151.98 791.953 1150.43L789.965 1150.64ZM794.096 1144.38C793.731 1144.3 793.648 1143.78 794.022 1143.61L794.831 1145.44C796.261 1144.81 796.012 1142.74 794.515 1142.42L794.096 1144.38ZM789.394 1138.49C789.193 1138.84 788.685 1138.71 788.645 1138.34L790.634 1138.12C790.47 1136.6 788.439 1136.15 787.662 1137.49L789.394 1138.49ZM782.386 1139.83C780.871 1139.5 779.83 1141.3 780.868 1142.45L782.353 1141.11C782.615 1141.4 782.35 1141.86 781.967 1141.78L782.386 1139.83Z" fill="#FFCA1E"/>
<path d="M552.692 765.407L553.55 764.893C553.327 764.521 552.89 764.335 552.467 764.433L552.692 765.407ZM550.741 762.151L551.497 762.805C551.78 762.478 551.821 762.007 551.599 761.637L550.741 762.151ZM553.219 759.287L552.827 760.207C553.227 760.378 553.691 760.271 553.975 759.942L553.219 759.287ZM556.702 760.774L555.706 760.689C555.669 761.119 555.912 761.524 556.309 761.694L556.702 760.774ZM556.376 764.557L556.151 763.582C555.728 763.68 555.417 764.039 555.38 764.471L556.376 764.557ZM560.65 762.46L561.043 761.541L561.043 761.541L560.65 762.46ZM556.029 756.041L556.785 756.696L556.785 756.696L556.029 756.041ZM557.071 756.487L558.068 756.572L558.068 756.572L557.071 756.487ZM548.53 758.459L549.387 757.945L549.387 757.945L548.53 758.459ZM549.271 757.601L548.879 758.521L548.879 758.521L549.271 757.601ZM547.932 765.396L548.688 766.051L547.932 765.396ZM554.904 769.099L555.762 768.585L555.762 768.585L554.904 769.099ZM556.007 768.845L557.003 768.93L556.007 768.845ZM555.762 768.585L553.55 764.893L551.834 765.921L554.046 769.613L555.762 768.585ZM552.467 764.433L548.291 765.397L548.741 767.346L552.917 766.382L552.467 764.433ZM548.688 766.051L551.497 762.805L549.985 761.496L547.176 764.742L548.688 766.051ZM551.599 761.637L549.387 757.945L547.672 758.973L549.883 762.664L551.599 761.637ZM548.879 758.521L552.827 760.207L553.612 758.368L549.664 756.682L548.879 758.521ZM553.975 759.942L556.785 756.696L555.273 755.387L552.463 758.633L553.975 759.942ZM556.075 756.401L555.706 760.689L557.698 760.86L558.068 756.572L556.075 756.401ZM556.309 761.694L560.257 763.38L561.043 761.541L557.095 759.855L556.309 761.694ZM560.327 762.618L556.151 763.582L556.601 765.531L560.777 764.567L560.327 762.618ZM555.38 764.471L555.01 768.759L557.003 768.93L557.372 764.643L555.38 764.471ZM560.257 763.38C559.908 763.231 559.936 762.709 560.327 762.618L560.777 764.567C562.292 764.217 562.454 762.143 561.043 761.541L560.257 763.38ZM556.785 756.696C556.517 757.005 556.043 756.773 556.075 756.401L558.068 756.572C558.199 755.047 556.296 754.205 555.273 755.387L556.785 756.696ZM549.387 757.945C549.579 758.265 549.254 758.682 548.879 758.521L549.664 756.682C548.226 756.068 546.885 757.659 547.672 758.973L549.387 757.945ZM548.291 765.397C548.682 765.307 548.937 765.764 548.688 766.051L547.176 764.742C546.171 765.902 547.226 767.695 548.741 767.346L548.291 765.397ZM554.046 769.613C554.842 770.942 556.87 770.474 557.003 768.93L555.01 768.759C555.044 768.369 555.561 768.25 555.762 768.585L554.046 769.613Z" fill="#FFCA1E"/>
<path d="M332.528 178.436L331.897 179.212C332.234 179.485 332.709 179.511 333.072 179.274L332.528 178.436ZM335.475 180.829L334.54 180.472C334.386 180.876 334.509 181.333 334.844 181.605L335.475 180.829ZM334.125 184.367L334.18 183.368C333.746 183.345 333.346 183.604 333.191 184.01L334.125 184.367ZM330.344 184.161L331.31 183.9C331.197 183.483 330.83 183.186 330.399 183.162L330.344 184.161ZM329.357 180.495L329.901 181.333C330.265 181.097 330.435 180.654 330.322 180.235L329.357 180.495ZM326.058 183.927L326.003 184.925L326.003 184.925L326.058 183.927ZM332.596 188.378L331.661 188.022L331.661 188.022L332.596 188.378ZM331.464 188.316L330.498 188.576L330.498 188.576L331.464 188.316ZM338.816 183.542L338.185 184.318L338.185 184.318L338.816 183.542ZM338.412 184.601L338.466 183.602L338.466 183.602L338.412 184.601ZM337.005 176.818L336.07 176.461L337.005 176.818ZM329.187 175.723L328.556 176.499L328.556 176.499L329.187 175.723ZM328.237 176.339L327.272 176.599L328.237 176.339ZM328.556 176.499L331.897 179.212L333.158 177.659L329.817 174.946L328.556 176.499ZM333.072 179.274L336.667 176.94L335.578 175.263L331.983 177.597L333.072 179.274ZM336.07 176.461L334.54 180.472L336.409 181.185L337.939 177.174L336.07 176.461ZM334.844 181.605L338.185 184.318L339.446 182.765L336.105 180.052L334.844 181.605ZM338.466 183.602L334.18 183.368L334.071 185.365L338.357 185.599L338.466 183.602ZM333.191 184.01L331.661 188.022L333.53 188.734L335.06 184.723L333.191 184.01ZM332.429 188.056L331.31 183.9L329.379 184.421L330.498 188.576L332.429 188.056ZM330.399 183.162L326.112 182.928L326.003 184.925L330.29 185.159L330.399 183.162ZM326.307 183.668L329.901 181.333L328.812 179.656L325.217 181.991L326.307 183.668ZM330.322 180.235L329.203 176.079L327.272 176.599L328.391 180.755L330.322 180.235ZM326.112 182.928C326.492 182.949 326.644 183.449 326.307 183.668L325.217 181.991C323.914 182.837 324.471 184.841 326.003 184.925L326.112 182.928ZM331.661 188.022C331.807 187.64 332.332 187.695 332.429 188.056L330.498 188.576C330.896 190.055 332.973 190.195 333.53 188.734L331.661 188.022ZM338.185 184.318C337.895 184.082 338.058 183.58 338.466 183.602L338.357 185.599C339.918 185.684 340.635 183.73 339.446 182.765L338.185 184.318ZM336.667 176.94C336.33 177.159 335.935 176.816 336.07 176.461L337.939 177.174C338.486 175.74 336.881 174.416 335.578 175.263L336.667 176.94ZM329.817 174.946C328.615 173.97 326.869 175.104 327.272 176.599L329.203 176.079C329.305 176.457 328.86 176.746 328.556 176.499L329.817 174.946Z" fill="#FFCA1E"/>
</g>
<defs>
<clipPath id="clip0_1632_4324">
<rect width="1920" height="1080" fill="white" transform="translate(1080) rotate(90)"/>
</clipPath>
</defs>
</svg>
