<?xml version="1.0" encoding="utf-8"?>
<!-- Svg Vector Icons : http://www.onlinewebfonts.com/icon -->
<!DOCTYPE svg PUBLIC "-//W3C//DTD SVG 1.1//EN" "http://www.w3.org/Graphics/SVG/1.1/DTD/svg11.dtd">
<svg version="1.1" xmlns="http://www.w3.org/2000/svg" xmlns:xlink="http://www.w3.org/1999/xlink" x="0px" y="0px" viewBox="0 0 1000 1000" enable-background="new 0 0 1000 1000" xml:space="preserve">
<metadata> Svg Vector Icons : http://www.onlinewebfonts.com/icon </metadata>
<g><g transform="translate(0.000000,512.000000) scale(0.100000,-0.100000)"><path d="M6605.8,5000.6c-615.5-117.3-1236.9-654-1529.3-1321.5c-34.6-78.9-100-184.7-146.2-236.6c-73.1-82.7-157.7-234.7-213.5-377c-19.2-46.2-19.2-46.2-44.2,28.9c-46.2,146.2-211.6,469.3-250.1,490.5c-48.1,25-75,11.5-263.5-130.8c-88.5-65.4-140.4-119.3-140.4-140.4c0-21.2,51.9-98.1,115.4-175c153.9-182.7,284.7-411.6,384.7-673.3c80.8-207.7,84.6-213.5,167.4-250.1c46.2-21.2,100-30.8,121.2-25c71.2,23.1,76.9,67.3,34.6,286.6l-40.4,207.8l42.3,167.3c42.3,175,125,357.8,202,454l46.2,57.7l132.7-34.6c71.2-17.3,325.1-127,563.6-244.3c617.5-300.1,794.4-352,1192.6-350.1c494.4,0,834.8,150,1244.6,548.2c394.3,382.8,698.3,871.4,804,1290.7c53.9,209.7,63.5,367.4,25,350.1c-13.5-3.9-107.7-36.5-207.7-71.2c-157.7-53.9-209.7-63.5-375.1-63.5c-163.5,0-242.4,11.5-519.4,80.8c-178.9,44.2-404,94.3-500.1,109.6C7211.8,5023.7,6775.1,5033.3,6605.8,5000.6z"/><path d="M3087.6,2430.7c-1000.3-113.5-1787-863.7-2058.2-1962c-177-723.3-136.6-1483.1,132.7-2414.1c186.6-642.5,423.2-1173.4,731-1637c167.4-250.1,232.8-330.9,429-534.8c346.2-355.9,732.9-569.4,1158-638.6c325.1-53.9,625.2-19.2,1027.2,117.3c171.2,57.7,277,84.7,305.8,77c23.1-7.7,121.2-42.3,215.4-77c294.3-107.7,448.2-134.6,759.8-132.7c307.8,1.9,448.2,30.8,717.5,142.4c836.7,348.2,1577.3,1467.7,1946.6,2941.1c194.3,775.2,223.1,1394.6,96.2,2006.3c-250.1,1211.9-1042.6,1998.6-2129.4,2112.1c-440.5,46.2-1031-71.2-1473.5-296.2c-53.9-26.9-128.9-50-163.5-50c-36.6,0-152,38.5-257.8,84.6C4041.7,2384.5,3518.5,2478.8,3087.6,2430.7z"/></g></g>
</svg>