<?xml version="1.0" encoding="UTF-8" standalone="no"?>
<!DOCTYPE svg PUBLIC "-//W3C//DTD SVG 1.1//EN" "http://www.w3.org/Graphics/SVG/1.1/DTD/svg11.dtd">
<svg version="1.1" xmlns="http://www.w3.org/2000/svg" xmlns:xlink="http://www.w3.org/1999/xlink" preserveAspectRatio="xMidYMid meet" viewBox="0 0 1972 1501.12" width="1972" height="1501.12"><defs><path d="M1728.49 1345.94C1761.56 1379.47 1761.56 1434.33 1728.49 1467.85C1728.49 1467.85 1728.49 1467.85 1728.49 1467.85C1695.42 1501.37 1641.31 1501.37 1608.24 1467.85C1552.53 1411.37 1106.83 959.56 1051.12 903.09C1018.05 869.57 1018.05 814.71 1051.12 781.18C1051.12 781.18 1051.12 781.18 1051.12 781.18C1084.19 747.66 1138.3 747.66 1171.37 781.18C1282.8 894.14 1672.78 1289.47 1728.49 1345.94Z" id="b74QXgUrZ"></path><linearGradient id="gradientawP807YSe" gradientUnits="userSpaceOnUse" x1="1728.49" y1="1467.85" x2="1051.11" y2="781.18"><stop style="stop-color: #ff9a1d;stop-opacity: 1" offset="0%"></stop><stop style="stop-color: #ffb713;stop-opacity: 1" offset="100%"></stop></linearGradient><path d="M1159.73 1084.86C1221.96 1147.94 1221.96 1251.17 1159.73 1314.25C1159.73 1314.25 1159.73 1314.25 1159.73 1314.25C1097.5 1377.33 995.67 1377.33 933.44 1314.25C877.18 1257.21 427.05 800.91 370.79 743.88C308.56 680.8 308.56 577.57 370.79 514.49C370.79 514.49 370.79 514.49 370.79 514.49C433.01 451.41 534.84 451.41 597.07 514.49C709.6 628.56 1103.46 1027.82 1159.73 1084.86Z" id="bDWaavlP4"></path><linearGradient id="gradienthAXrTB6KI" gradientUnits="userSpaceOnUse" x1="1159.73" y1="1314.25" x2="370.79" y2="514.49"><stop style="stop-color: #f26007;stop-opacity: 1" offset="0%"></stop><stop style="stop-color: #ffca1e;stop-opacity: 1" offset="100%"></stop></linearGradient><path d="M1856.36 805.64C1907.88 857.87 1907.88 943.33 1856.36 995.55C1856.36 995.55 1856.36 995.55 1856.36 995.55C1804.84 1047.78 1720.54 1047.78 1669.02 995.55C1622.43 948.33 1249.77 570.56 1203.19 523.34C1151.67 471.11 1151.67 385.65 1203.19 333.43C1203.19 333.43 1203.19 333.43 1203.19 333.43C1254.71 281.2 1339.01 281.2 1390.53 333.42C1483.7 427.87 1809.78 758.42 1856.36 805.64Z" id="gzIuqC9HP"></path><linearGradient id="gradienti1lrJzDHX" gradientUnits="userSpaceOnUse" x1="1856.36" y1="995.55" x2="1203.19" y2="333.43"><stop style="stop-color: #e65f00;stop-opacity: 1" offset="0%"></stop><stop style="stop-color: #ffca1e;stop-opacity: 1" offset="100%"></stop></linearGradient><path d="M1667.78 930.95C1690.79 954.27 1690.79 992.44 1667.78 1015.76C1667.78 1015.76 1667.78 1015.76 1667.78 1015.76C1644.78 1039.08 1607.13 1039.08 1584.12 1015.76C1545.36 976.47 1235.28 662.14 1196.52 622.84C1173.51 599.52 1173.51 561.36 1196.52 538.03C1196.52 538.03 1196.52 538.03 1196.52 538.03C1219.53 514.71 1257.18 514.71 1280.18 538.03C1357.7 616.62 1629.02 891.66 1667.78 930.95Z" id="b3BJMI6Jqz"></path><linearGradient id="gradientc17tiplXLE" gradientUnits="userSpaceOnUse" x1="1667.78" y1="1015.76" x2="1196.52" y2="538.03"><stop style="stop-color: #ff721d;stop-opacity: 1" offset="0%"></stop><stop style="stop-color: #ffde00;stop-opacity: 1" offset="100%"></stop></linearGradient><path d="M882.88 1130.36C915.95 1163.88 915.95 1218.74 882.88 1252.26C882.88 1252.26 882.88 1252.26 882.88 1252.26C849.81 1285.79 795.7 1285.79 762.63 1252.26C706.91 1195.79 261.22 743.98 205.5 687.5C172.43 653.98 172.43 599.12 205.5 565.6C205.5 565.6 205.5 565.6 205.5 565.6C238.57 532.07 292.69 532.07 325.76 565.6C437.18 678.55 827.17 1073.88 882.88 1130.36Z" id="aJbyuYrwI"></path><linearGradient id="gradientflo6sEN0X" gradientUnits="userSpaceOnUse" x1="882.88" y1="1252.26" x2="205.5" y2="565.6"><stop style="stop-color: #ff5c33;stop-opacity: 1" offset="0%"></stop><stop style="stop-color: #ffb627;stop-opacity: 1" offset="100%"></stop></linearGradient><path d="M800.6 1366.64C818.71 1384.98 818.71 1415.02 800.6 1433.37C800.6 1433.37 800.6 1433.37 800.6 1433.37C782.5 1451.72 752.87 1451.72 734.77 1433.37C710.14 1408.4 513.09 1208.64 488.45 1183.68C470.35 1165.32 470.35 1135.29 488.45 1116.94C488.45 1116.94 488.45 1116.94 488.45 1116.94C506.56 1098.59 536.18 1098.59 554.29 1116.94C603.55 1166.88 775.97 1341.67 800.6 1366.64Z" id="b3YhlRq1ft"></path><linearGradient id="gradiente3WZ1LbQxg" gradientUnits="userSpaceOnUse" x1="800.6" y1="1433.37" x2="488.45" y2="1116.94"><stop style="stop-color: #ffca1e;stop-opacity: 1" offset="0%"></stop><stop style="stop-color: #ffca1e;stop-opacity: 1" offset="100%"></stop></linearGradient><path d="M1279.62 832C1297.73 850.36 1297.73 880.39 1279.62 898.74C1279.62 898.74 1279.62 898.74 1279.62 898.74C1261.52 917.09 1231.89 917.09 1213.79 898.74C1189.16 873.77 992.1 674.01 967.47 649.04C949.37 630.69 949.37 600.66 967.47 582.31C967.47 582.31 967.47 582.31 967.47 582.31C985.57 563.96 1015.2 563.96 1033.3 582.31C1082.57 632.25 1254.99 807.04 1279.62 832Z" id="a7E9hM0uIO"></path><linearGradient id="gradientb1ihl1xYcX" gradientUnits="userSpaceOnUse" x1="1279.62" y1="898.74" x2="967.47" y2="582.31"><stop style="stop-color: #ff7f47;stop-opacity: 1" offset="0%"></stop><stop style="stop-color: #ffca1e;stop-opacity: 1" offset="100%"></stop></linearGradient><path d="M904.7 731.27C904.7 731.27 904.7 731.27 904.7 731.27C912.31 723.54 924.67 723.54 932.29 731.26C935.62 734.64 962.24 761.62 965.56 765C973.18 772.72 973.18 785.25 965.56 792.97C965.56 792.97 965.56 792.97 965.56 792.97C957.94 800.7 945.59 800.7 937.97 792.97C935.75 790.72 924.66 779.48 904.69 759.24C899.61 745.74 899.61 736.42 904.7 731.27Z" id="bj345dPIe"></path><path d="M1364.35 530.17C1364.35 530.17 1364.35 530.17 1364.35 530.17C1371.98 522.44 1384.33 522.44 1391.95 530.16C1395.28 533.54 1421.9 560.52 1425.23 563.9C1432.85 571.62 1432.85 584.14 1425.22 591.87C1425.22 591.87 1425.22 591.87 1425.22 591.87C1417.6 599.6 1405.25 599.6 1397.63 591.87C1395.41 589.62 1384.32 578.38 1364.35 558.14C1359.27 544.64 1359.27 535.32 1364.35 530.17Z" id="elVggFhzO"></path><path d="M420.84 1010.84C420.84 1010.84 420.84 1010.84 420.84 1010.84C428.46 1003.12 440.81 1003.12 448.43 1010.84C451.76 1014.21 478.38 1041.2 481.71 1044.57C489.33 1052.3 489.33 1064.82 481.71 1072.55C481.71 1072.55 481.71 1072.55 481.71 1072.55C474.09 1080.27 461.73 1080.27 454.11 1072.55C451.9 1070.3 440.8 1059.05 420.84 1038.81C415.76 1025.32 415.76 1015.99 420.84 1010.84Z" id="bAmFJqHMe"></path><path d="M1241.67 1267.64C1241.67 1267.64 1241.67 1267.64 1241.67 1267.64C1259.59 1249.48 1288.64 1249.48 1306.56 1267.63C1314.38 1275.57 1376.98 1339.02 1384.8 1346.95C1402.72 1365.12 1402.72 1394.56 1384.8 1412.73C1384.8 1412.73 1384.8 1412.73 1384.8 1412.73C1366.88 1430.89 1337.83 1430.89 1319.91 1412.73C1314.7 1407.44 1288.61 1381 1241.67 1333.41C1229.73 1301.67 1229.73 1279.75 1241.67 1267.64Z" id="a4lCndk8KC"></path><path d="M904.18 476.73C904.18 476.73 904.18 476.73 904.18 476.73C912.08 468.72 924.88 468.72 932.78 476.73C936.23 480.22 963.82 508.19 967.27 511.69C975.16 519.69 975.16 532.67 967.26 540.68C967.26 540.68 967.26 540.68 967.26 540.68C959.37 548.68 946.56 548.68 938.67 540.68C936.37 538.35 924.87 526.69 904.18 505.72C898.92 491.73 898.92 482.07 904.18 476.73Z" id="hqbXihAfq"></path><path d="M1422.75 897.55C1436.27 911.25 1436.27 933.67 1422.75 947.38C1422.75 947.38 1422.75 947.38 1422.75 947.38C1409.23 961.08 1387.12 961.08 1373.6 947.38C1355.21 928.73 1208.09 779.6 1189.7 760.95C1176.18 747.25 1176.18 724.83 1189.7 711.13C1189.7 711.13 1189.7 711.13 1189.7 711.13C1203.21 697.43 1225.33 697.43 1238.85 711.13C1275.63 748.41 1404.36 878.91 1422.75 897.55Z" id="b4rJsqzfo"></path><linearGradient id="gradiente1px8Y8oDk" gradientUnits="userSpaceOnUse" x1="1422.75" y1="947.38" x2="1189.7" y2="711.13"><stop style="stop-color: #ffa21d;stop-opacity: 1" offset="0%"></stop><stop style="stop-color: #ffca1e;stop-opacity: 1" offset="100%"></stop></linearGradient><path d="M858.42 763.14C880.37 785.39 880.37 821.8 858.42 844.06C858.42 844.06 858.42 844.06 858.42 844.06C836.47 866.31 800.55 866.31 778.6 844.06C741.62 806.57 445.77 506.67 408.79 469.18C386.84 446.93 386.84 410.52 408.79 388.27C408.79 388.27 408.79 388.27 408.79 388.27C430.75 366.01 466.66 366.01 488.62 388.27C562.58 463.24 821.44 725.65 858.42 763.14Z" id="a5AfmHntzI"></path><path d="M905.55 564.05C928.56 587.37 928.56 625.54 905.55 648.86C905.55 648.86 905.55 648.86 905.55 648.86C882.54 672.18 844.89 672.18 821.88 648.86C783.12 609.57 473.05 295.24 434.29 255.94C411.28 232.62 411.28 194.46 434.29 171.13C434.29 171.13 434.29 171.13 434.29 171.13C457.29 147.81 494.94 147.81 517.95 171.13C595.47 249.72 866.79 524.76 905.55 564.05Z" id="f5m3OgEBK"></path><linearGradient id="gradientbDa36dX13" gradientUnits="userSpaceOnUse" x1="905.55" y1="648.86" x2="434.28" y2="171.13"><stop style="stop-color: #ff762f;stop-opacity: 1" offset="0%"></stop><stop style="stop-color: #ffca1e;stop-opacity: 1" offset="100%"></stop></linearGradient><path d="M977.14 240.38C977.14 240.38 977.14 240.38 977.14 240.38C985.03 232.37 997.84 232.37 1005.73 240.37C1009.18 243.87 1036.77 271.84 1040.22 275.33C1048.12 283.34 1048.11 296.32 1040.22 304.32C1040.22 304.32 1040.22 304.32 1040.22 304.32C1032.32 312.33 1019.52 312.33 1011.62 304.33C1009.32 301.99 997.83 290.34 977.13 269.36C971.87 255.38 971.87 245.71 977.14 240.38Z" id="lLGAFYUbN"></path><path d="M1116.51 417.1C1134.61 435.45 1134.61 465.48 1116.51 483.84C1116.51 483.84 1116.51 483.84 1116.51 483.84C1098.4 502.19 1068.78 502.19 1050.67 483.84C1026.04 458.87 828.99 259.11 804.35 234.14C786.25 215.79 786.25 185.76 804.35 167.4C804.35 167.4 804.35 167.4 804.35 167.4C822.46 149.05 852.08 149.05 870.19 167.4C919.45 217.34 1091.87 392.13 1116.51 417.1Z" id="a5zLrgWgq"></path><linearGradient id="gradienta1uTZrdvPn" gradientUnits="userSpaceOnUse" x1="1116.51" y1="483.84" x2="804.35" y2="167.4"><stop style="stop-color: #ff7f47;stop-opacity: 1" offset="0%"></stop><stop style="stop-color: #ffca1e;stop-opacity: 1" offset="100%"></stop></linearGradient><path d="M879.84 341.78C901.06 315.34 930.81 319.63 948.73 337.78C956.55 345.72 1019.15 409.17 1026.97 417.1C1044.89 435.27 1044.89 464.71 1026.97 482.88C1026.97 482.88 1026.97 482.88 1026.97 482.88C1009.05 501.04 980 501.04 962.08 482.88C909.92 430 886.35 406.11 891.37 411.2C886.38 406.13 882.12 400.38 878.74 394.12C867.78 373.8 868.15 356.36 879.84 341.78Z" id="bYgwAWAd1"></path><linearGradient id="gradientcdkXlZGwI" gradientUnits="userSpaceOnUse" x1="866.2" y1="409.78" x2="1040.41" y2="409.78"><stop style="stop-color: #ffca1e;stop-opacity: 1" offset="0%"></stop><stop style="stop-color: #df3e34;stop-opacity: 1" offset="100%"></stop></linearGradient><path d="M1752.69 501.48C1770.8 519.83 1770.8 549.86 1752.69 568.21C1752.69 568.21 1752.69 568.21 1752.69 568.21C1734.59 586.56 1704.96 586.56 1686.86 568.21C1662.23 543.24 1465.17 343.49 1440.54 318.52C1422.44 300.16 1422.44 270.13 1440.54 251.78C1440.54 251.78 1440.54 251.78 1440.54 251.78C1458.65 233.43 1488.27 233.43 1506.38 251.78C1555.64 301.72 1728.06 476.51 1752.69 501.48Z" id="a1VKoo9vBd"></path><linearGradient id="gradientaWacQTzBA" gradientUnits="userSpaceOnUse" x1="1752.69" y1="568.21" x2="1440.54" y2="251.78"><stop style="stop-color: #ff7f47;stop-opacity: 1" offset="0%"></stop><stop style="stop-color: #ffca1e;stop-opacity: 1" offset="100%"></stop></linearGradient><path d="M1449.71 1051.98C1470.93 1025.53 1500.68 1029.82 1518.59 1047.98C1526.42 1055.91 1589.01 1119.36 1596.84 1127.29C1614.76 1145.46 1614.75 1174.91 1596.84 1193.07C1596.84 1193.07 1596.84 1193.07 1596.84 1193.07C1578.92 1211.23 1549.87 1211.24 1531.95 1193.07C1479.79 1140.2 1456.22 1116.3 1461.24 1121.4C1456.24 1116.33 1451.99 1110.58 1448.61 1104.31C1437.65 1083.99 1438.01 1066.55 1449.71 1051.98Z" id="mjISFLSoC"></path><linearGradient id="gradientb3Mr6MkLHP" gradientUnits="userSpaceOnUse" x1="1436.07" y1="1119.97" x2="1610.28" y2="1119.97"><stop style="stop-color: #ffca1e;stop-opacity: 1" offset="0%"></stop><stop style="stop-color: #df3e34;stop-opacity: 1" offset="100%"></stop></linearGradient><path d="M1394.05 1204.97C1412.15 1223.32 1412.15 1253.35 1394.05 1271.7C1394.05 1271.7 1394.05 1271.7 1394.05 1271.7C1375.94 1290.06 1346.32 1290.06 1328.21 1271.7C1303.58 1246.73 1106.53 1046.98 1081.89 1022.01C1063.79 1003.65 1063.79 973.62 1081.89 955.27C1081.89 955.27 1081.89 955.27 1081.89 955.27C1100 936.92 1129.63 936.92 1147.73 955.27C1196.99 1005.21 1369.41 1180 1394.05 1204.97Z" id="ahe7fu1QJ"></path><linearGradient id="gradientd3xSwACclS" gradientUnits="userSpaceOnUse" x1="1394.05" y1="1271.7" x2="1081.89" y2="955.27"><stop style="stop-color: #ff7f47;stop-opacity: 1" offset="0%"></stop><stop style="stop-color: #ffca1e;stop-opacity: 1" offset="100%"></stop></linearGradient></defs><g><g><g><use xlink:href="#b74QXgUrZ" opacity="1" fill="url(#gradientawP807YSe)"></use><g><use xlink:href="#b74QXgUrZ" opacity="1" fill-opacity="0" stroke="#000000" stroke-width="1" stroke-opacity="0"></use></g></g><g><use xlink:href="#bDWaavlP4" opacity="1" fill="url(#gradienthAXrTB6KI)"></use><g><use xlink:href="#bDWaavlP4" opacity="1" fill-opacity="0" stroke="#000000" stroke-width="1" stroke-opacity="0"></use></g></g><g><use xlink:href="#gzIuqC9HP" opacity="1" fill="url(#gradienti1lrJzDHX)"></use><g><use xlink:href="#gzIuqC9HP" opacity="1" fill-opacity="0" stroke="#000000" stroke-width="1" stroke-opacity="0"></use></g></g><g><use xlink:href="#b3BJMI6Jqz" opacity="1" fill="url(#gradientc17tiplXLE)"></use><g><use xlink:href="#b3BJMI6Jqz" opacity="1" fill-opacity="0" stroke="#000000" stroke-width="1" stroke-opacity="0"></use></g></g><g><use xlink:href="#aJbyuYrwI" opacity="1" fill="url(#gradientflo6sEN0X)"></use><g><use xlink:href="#aJbyuYrwI" opacity="1" fill-opacity="0" stroke="#000000" stroke-width="1" stroke-opacity="0"></use></g></g><g><use xlink:href="#b3YhlRq1ft" opacity="1" fill="url(#gradiente3WZ1LbQxg)"></use><g><use xlink:href="#b3YhlRq1ft" opacity="1" fill-opacity="0" stroke="#000000" stroke-width="1" stroke-opacity="0"></use></g></g><g><use xlink:href="#a7E9hM0uIO" opacity="1" fill="url(#gradientb1ihl1xYcX)"></use><g><use xlink:href="#a7E9hM0uIO" opacity="1" fill-opacity="0" stroke="#000000" stroke-width="1" stroke-opacity="0"></use></g></g><g><use xlink:href="#bj345dPIe" opacity="1" fill="#ffca1e" fill-opacity="1"></use><g><use xlink:href="#bj345dPIe" opacity="1" fill-opacity="0" stroke="#000000" stroke-width="1" stroke-opacity="0"></use></g></g><g><use xlink:href="#elVggFhzO" opacity="1" fill="#fb9400" fill-opacity="1"></use><g><use xlink:href="#elVggFhzO" opacity="1" fill-opacity="0" stroke="#000000" stroke-width="1" stroke-opacity="0"></use></g></g><g><use xlink:href="#bAmFJqHMe" opacity="1" fill="#ffca1e" fill-opacity="1"></use><g><use xlink:href="#bAmFJqHMe" opacity="1" fill-opacity="0" stroke="#000000" stroke-width="1" stroke-opacity="0"></use></g></g><g><use xlink:href="#a4lCndk8KC" opacity="1" fill="#ffca1e" fill-opacity="1"></use><g><use xlink:href="#a4lCndk8KC" opacity="1" fill-opacity="0" stroke="#000000" stroke-width="1" stroke-opacity="0"></use></g></g><g><use xlink:href="#hqbXihAfq" opacity="1" fill="#ffca1e" fill-opacity="1"></use><g><use xlink:href="#hqbXihAfq" opacity="1" fill-opacity="0" stroke="#000000" stroke-width="1" stroke-opacity="0"></use></g></g><g><use xlink:href="#b4rJsqzfo" opacity="1" fill="url(#gradiente1px8Y8oDk)"></use><g><use xlink:href="#b4rJsqzfo" opacity="1" fill-opacity="0" stroke="#000000" stroke-width="1" stroke-opacity="0"></use></g></g><g><use xlink:href="#a5AfmHntzI" opacity="1" fill="#ffca1e" fill-opacity="1"></use><g><use xlink:href="#a5AfmHntzI" opacity="1" fill-opacity="0" stroke="#000000" stroke-width="1" stroke-opacity="0"></use></g></g><g><use xlink:href="#f5m3OgEBK" opacity="1" fill="url(#gradientbDa36dX13)"></use><g><use xlink:href="#f5m3OgEBK" opacity="1" fill-opacity="0" stroke="#000000" stroke-width="1" stroke-opacity="0"></use></g></g><g><use xlink:href="#lLGAFYUbN" opacity="1" fill="#ffca1e" fill-opacity="1"></use><g><use xlink:href="#lLGAFYUbN" opacity="1" fill-opacity="0" stroke="#000000" stroke-width="1" stroke-opacity="0"></use></g></g><g><use xlink:href="#a5zLrgWgq" opacity="1" fill="url(#gradienta1uTZrdvPn)"></use><g><use xlink:href="#a5zLrgWgq" opacity="1" fill-opacity="0" stroke="#000000" stroke-width="1" stroke-opacity="0"></use></g></g><g><use xlink:href="#bYgwAWAd1" opacity="1" fill="url(#gradientcdkXlZGwI)"></use><g><use xlink:href="#bYgwAWAd1" opacity="1" fill-opacity="0" stroke="#000000" stroke-width="1" stroke-opacity="0"></use></g></g><g><use xlink:href="#a1VKoo9vBd" opacity="1" fill="url(#gradientaWacQTzBA)"></use><g><use xlink:href="#a1VKoo9vBd" opacity="1" fill-opacity="0" stroke="#000000" stroke-width="1" stroke-opacity="0"></use></g></g><g><use xlink:href="#mjISFLSoC" opacity="1" fill="url(#gradientb3Mr6MkLHP)"></use><g><use xlink:href="#mjISFLSoC" opacity="1" fill-opacity="0" stroke="#000000" stroke-width="1" stroke-opacity="0"></use></g></g><g><use xlink:href="#ahe7fu1QJ" opacity="1" fill="url(#gradientd3xSwACclS)"></use><g><use xlink:href="#ahe7fu1QJ" opacity="1" fill-opacity="0" stroke="#000000" stroke-width="1" stroke-opacity="0"></use></g></g></g></g></svg>