<?xml version="1.0" encoding="UTF-8" standalone="no"?>
<!DOCTYPE svg PUBLIC "-//W3C//DTD SVG 1.1//EN" "http://www.w3.org/Graphics/SVG/1.1/DTD/svg11.dtd">
<svg version="1.1" xmlns="http://www.w3.org/2000/svg" xmlns:xlink="http://www.w3.org/1999/xlink" preserveAspectRatio="xMidYMid meet" viewBox="0 0 1700 1350" width="1700" height="1350"><defs><path d="M1135.5 1315.15C1102.43 1348.66 1048.33 1348.66 1015.26 1315.15C959.55 1258.67 513.89 806.9 458.18 750.43C425.12 716.91 425.12 662.06 458.18 628.53C458.18 628.53 458.18 628.53 458.18 628.53C491.25 595.01 545.36 595.01 578.42 628.53C689.85 741.48 1079.79 1136.78 1135.5 1193.25C1168.57 1226.77 1168.57 1281.63 1135.5 1315.15C1135.5 1315.15 1135.5 1315.15 1135.5 1315.15Z" id="c16vlDkeDL"></path><linearGradient id="gradientb10xnLGRP4" gradientUnits="userSpaceOnUse" x1="1135.5" y1="1315.15" x2="458.17" y2="628.53"><stop style="stop-color: #ff9a1d;stop-opacity: 1" offset="0%"></stop><stop style="stop-color: #ffb713;stop-opacity: 1" offset="100%"></stop></linearGradient><path d="M978.95 1179.12C916.73 1242.19 814.91 1242.19 752.68 1179.12C696.43 1122.08 246.33 665.82 190.08 608.8C127.85 545.72 127.85 442.5 190.08 379.42C190.08 379.42 190.08 379.42 190.08 379.42C252.29 316.35 354.11 316.35 416.34 379.42C528.86 493.48 922.69 892.71 978.95 949.75C1041.18 1012.82 1041.18 1116.04 978.95 1179.12C978.95 1179.12 978.95 1179.12 978.95 1179.12Z" id="b3PM7uZXp"></path><linearGradient id="gradientbs2vxTE6N" gradientUnits="userSpaceOnUse" x1="978.95" y1="1179.12" x2="190.08" y2="379.42"><stop style="stop-color: #f26007;stop-opacity: 1" offset="0%"></stop><stop style="stop-color: #ffca1e;stop-opacity: 1" offset="100%"></stop></linearGradient><path d="M1661.36 858.97C1609.85 911.2 1525.55 911.2 1474.04 858.97C1427.45 811.76 1054.82 434.02 1008.25 386.8C956.73 334.57 956.73 249.12 1008.25 196.91C1008.25 196.91 1008.25 196.91 1008.25 196.91C1059.76 144.68 1144.05 144.68 1195.57 196.9C1288.73 291.34 1614.79 621.86 1661.36 669.08C1712.88 721.3 1712.88 806.76 1661.36 858.97C1661.36 858.97 1661.36 858.97 1661.36 858.97Z" id="fvfSvl6ia"></path><linearGradient id="gradientb5YIBXOPWw" gradientUnits="userSpaceOnUse" x1="1661.36" y1="858.97" x2="1008.25" y2="196.91"><stop style="stop-color: #e65f00;stop-opacity: 1" offset="0%"></stop><stop style="stop-color: #ffca1e;stop-opacity: 1" offset="100%"></stop></linearGradient><path d="M1486.96 880.65C1463.97 903.97 1426.32 903.97 1403.31 880.65C1364.55 841.37 1054.5 527.06 1015.74 487.76C992.73 464.45 992.73 426.29 1015.74 402.96C1015.74 402.96 1015.74 402.96 1015.74 402.96C1038.75 379.64 1076.4 379.64 1099.39 402.96C1176.91 481.55 1448.21 756.56 1486.96 795.85C1509.97 819.17 1509.97 857.34 1486.96 880.65C1486.96 880.65 1486.96 880.65 1486.96 880.65Z" id="d1z43a2jXZ"></path><linearGradient id="gradientcBJVxCQHH" gradientUnits="userSpaceOnUse" x1="1486.96" y1="880.65" x2="1015.74" y2="402.96"><stop style="stop-color: #ff721d;stop-opacity: 1" offset="0%"></stop><stop style="stop-color: #ffde00;stop-opacity: 1" offset="100%"></stop></linearGradient><path d="M702.13 1117.13C669.06 1150.66 614.95 1150.66 581.89 1117.13C526.17 1060.67 80.52 608.9 24.8 552.42C-8.27 518.9 -8.27 464.05 24.8 430.53C24.8 430.53 24.8 430.53 24.8 430.53C57.87 397 111.98 397 145.05 430.53C256.46 543.47 646.42 938.77 702.13 995.24C735.19 1028.76 735.19 1083.62 702.13 1117.13C702.13 1117.13 702.13 1117.13 702.13 1117.13Z" id="f105bppqb6"></path><linearGradient id="gradienta224WRJzgh" gradientUnits="userSpaceOnUse" x1="702.13" y1="1117.13" x2="24.8" y2="430.53"><stop style="stop-color: #ff5c33;stop-opacity: 1" offset="0%"></stop><stop style="stop-color: #ffb627;stop-opacity: 1" offset="100%"></stop></linearGradient><path d="M619.85 1298.23C601.75 1316.58 572.13 1316.58 554.03 1298.23C529.4 1273.26 332.37 1073.52 307.73 1048.56C289.63 1030.2 289.63 1000.17 307.73 981.83C307.73 981.83 307.73 981.83 307.73 981.83C325.84 963.48 355.45 963.48 373.56 981.83C422.82 1031.76 595.22 1206.54 619.85 1231.51C637.96 1249.84 637.96 1279.88 619.85 1298.23C619.85 1298.23 619.85 1298.23 619.85 1298.23Z" id="c5Gsi3XID"></path><linearGradient id="gradientb1Qo6ip8an" gradientUnits="userSpaceOnUse" x1="619.85" y1="1298.23" x2="307.73" y2="981.83"><stop style="stop-color: #ffca1e;stop-opacity: 1" offset="0%"></stop><stop style="stop-color: #ffca1e;stop-opacity: 1" offset="100%"></stop></linearGradient><path d="M1098.83 763.64C1080.74 781.99 1051.11 781.99 1033.01 763.64C1008.38 738.67 811.34 538.93 786.71 513.96C768.61 495.61 768.61 465.59 786.71 447.24C786.71 447.24 786.71 447.24 786.71 447.24C804.81 428.89 834.44 428.89 852.53 447.24C901.8 497.17 1074.21 671.95 1098.83 696.91C1116.94 715.27 1116.94 745.29 1098.83 763.64C1098.83 763.64 1098.83 763.64 1098.83 763.64Z" id="axMCc37Xt"></path><linearGradient id="gradientc8BXyxsA98" gradientUnits="userSpaceOnUse" x1="1098.83" y1="763.64" x2="786.71" y2="447.24"><stop style="stop-color: #ff7f47;stop-opacity: 1" offset="0%"></stop><stop style="stop-color: #ffca1e;stop-opacity: 1" offset="100%"></stop></linearGradient><path d="M751.53 596.18C754.86 599.56 781.48 626.53 784.8 629.91C792.42 637.63 792.42 650.16 784.8 657.88C784.8 657.88 784.8 657.88 784.8 657.88C777.18 665.61 764.83 665.61 757.21 657.88C754.99 655.63 733.18 633.49 723.93 624.15C714.69 614.82 718.86 601.34 723.94 596.19C723.94 596.19 723.94 596.19 723.94 596.19C731.55 588.46 743.91 588.46 751.53 596.18Z" id="a2r2lDThKX"></path><path d="M1211.16 395.09C1214.49 398.47 1241.1 425.45 1244.43 428.83C1252.05 436.55 1252.05 449.07 1244.42 456.8C1244.42 456.8 1244.42 456.8 1244.42 456.8C1236.8 464.53 1224.45 464.53 1216.84 456.8C1214.62 454.55 1193.52 433.78 1183.56 423.07C1173.6 412.36 1178.48 400.25 1183.56 395.1C1183.56 395.1 1183.56 395.1 1183.56 395.1C1191.19 387.37 1203.54 387.37 1211.16 395.09Z" id="bYhIwhAOs"></path><path d="M267.71 875.73C271.04 879.1 297.66 906.09 300.99 909.46C308.61 917.19 308.61 929.71 300.99 937.44C300.99 937.44 300.99 937.44 300.99 937.44C293.37 945.16 281.01 945.16 273.39 937.44C271.18 935.19 253.08 915.87 241.63 903.7C230.18 891.54 235.04 880.88 240.12 875.73C240.12 875.73 240.12 875.73 240.12 875.73C247.74 868.01 260.09 868.01 267.71 875.73Z" id="b7255qkv1f"></path><path d="M1125.77 1132.5C1133.59 1140.44 1196.19 1203.89 1204.01 1211.82C1221.92 1229.99 1221.92 1259.42 1204.01 1277.59C1204.01 1277.59 1204.01 1277.59 1204.01 1277.59C1186.09 1295.75 1157.04 1295.75 1139.12 1277.59C1133.91 1272.3 1081.99 1222.52 1060.89 1198.28C1039.78 1174.04 1048.95 1144.62 1060.89 1132.51C1060.89 1132.51 1060.89 1132.51 1060.89 1132.51C1078.81 1114.35 1107.85 1114.35 1125.77 1132.5Z" id="b3tr9vygSP"></path><path d="M752.02 341.67C755.47 345.16 783.06 373.12 786.51 376.62C794.4 384.62 794.4 397.6 786.5 405.61C786.5 405.61 786.5 405.61 786.5 405.61C778.61 413.61 765.8 413.61 757.91 405.61C755.61 403.28 734.33 382.98 723.42 370.65C712.52 358.33 718.17 347.01 723.42 341.67C723.42 341.67 723.42 341.67 723.42 341.67C731.32 333.66 744.12 333.66 752.02 341.67Z" id="d2sZvjULVe"></path><path d="M1241.95 812.28C1228.43 825.98 1206.33 825.98 1192.81 812.28C1174.42 793.63 1027.31 644.51 1008.92 625.86C995.4 612.17 995.4 589.75 1008.92 576.05C1008.92 576.05 1008.92 576.05 1008.92 576.05C1022.43 562.35 1044.55 562.35 1058.07 576.05C1094.84 613.32 1223.56 743.81 1241.95 762.45C1255.47 776.15 1255.47 798.57 1241.95 812.28C1241.95 812.28 1241.95 812.28 1241.95 812.28Z" id="c4rxIBuJK"></path><linearGradient id="gradienta1NWkti7gL" gradientUnits="userSpaceOnUse" x1="1241.95" y1="812.28" x2="1008.92" y2="576.05"><stop style="stop-color: #ffa21d;stop-opacity: 1" offset="0%"></stop><stop style="stop-color: #ffca1e;stop-opacity: 1" offset="100%"></stop></linearGradient><path d="M677.67 708.97C655.72 731.22 619.8 731.22 597.85 708.97C560.88 671.48 265.05 371.6 228.07 334.12C206.13 311.87 206.13 275.46 228.07 253.21C228.07 253.21 228.07 253.21 228.07 253.21C250.03 230.96 285.94 230.96 307.9 253.21C381.85 328.18 640.69 590.57 677.67 628.05C699.62 650.3 699.62 686.71 677.67 708.97C677.67 708.97 677.67 708.97 677.67 708.97Z" id="c71BIWV6kN"></path><path d="M757.58 548.29C734.58 571.61 696.93 571.61 673.92 548.29C635.16 509.01 325.12 194.7 286.36 155.4C263.35 132.09 263.35 93.93 286.36 70.6C286.36 70.6 286.36 70.6 286.36 70.6C309.36 47.28 347.01 47.28 370.02 70.6C447.53 149.18 718.83 424.2 757.58 463.49C780.59 486.81 780.59 524.97 757.58 548.29C757.58 548.29 757.58 548.29 757.58 548.29Z" id="aZfy129F1"></path><linearGradient id="gradientfIhLacA4" gradientUnits="userSpaceOnUse" x1="757.58" y1="547.67" x2="286.35" y2="53.11"><stop style="stop-color: #ff762f;stop-opacity: 1" offset="0%"></stop><stop style="stop-color: #ffca1e;stop-opacity: 1" offset="100%"></stop></linearGradient><path d="M825.03 100.68C828.48 104.18 856.06 132.14 859.51 135.63C867.41 143.64 867.4 156.62 859.51 164.62C859.51 164.62 859.51 164.62 859.51 164.62C851.61 172.63 838.82 172.63 830.92 164.63C828.62 162.29 806.58 140.53 796.43 129.66C786.28 118.8 791.17 106.02 796.44 100.69C796.44 100.69 796.44 100.69 796.44 100.69C804.33 92.68 817.14 92.68 825.03 100.68Z" id="bHRl2RWDi"></path><path d="M917.14 334.83C899.03 353.17 869.41 353.17 851.3 334.83C826.67 309.86 629.64 110.11 605 85.15C586.9 66.8 586.9 36.77 605 18.41C605 18.41 605 18.41 605 18.41C623.11 0.06 652.73 0.06 670.84 18.41C720.09 68.35 892.5 243.12 917.14 268.09C935.24 286.44 935.24 316.47 917.14 334.83C917.14 334.83 917.14 334.83 917.14 334.83Z" id="a1hUKrlwg"></path><linearGradient id="gradienta2RDJz7Db" gradientUnits="userSpaceOnUse" x1="917.14" y1="334.26" x2="605" y2="4.65"><stop style="stop-color: #ff7f47;stop-opacity: 1" offset="0%"></stop><stop style="stop-color: #ffca1e;stop-opacity: 1" offset="100%"></stop></linearGradient><path d="M846.2 282.04C864.12 300.21 864.12 329.65 846.2 347.82C846.2 347.82 846.2 347.82 846.2 347.82C828.29 365.97 799.24 365.97 781.32 347.82C729.16 294.94 705.6 271.05 710.62 276.14C705.63 271.07 701.37 265.32 697.99 259.06C687.03 238.74 687.4 221.31 699.09 206.73C720.3 180.29 750.05 184.58 767.97 202.73C775.79 210.67 838.39 274.11 846.2 282.04Z" id="awR7H4wKQ"></path><linearGradient id="gradientcGIEQdIrP" gradientUnits="userSpaceOnUse" x1="685.45" y1="274.72" x2="859.64" y2="274.72"><stop style="stop-color: #ffca1e;stop-opacity: 1" offset="0%"></stop><stop style="stop-color: #df3e34;stop-opacity: 1" offset="100%"></stop></linearGradient><path d="M1571.87 433.14C1553.77 451.49 1524.14 451.49 1506.04 433.14C1481.41 408.17 1284.37 208.44 1259.74 183.47C1241.64 165.11 1241.64 135.08 1259.74 116.73C1259.74 116.73 1259.74 116.73 1259.74 116.73C1277.85 98.39 1307.47 98.39 1325.58 116.73C1374.83 166.67 1547.24 341.45 1571.87 366.41C1589.98 384.76 1589.98 414.79 1571.87 433.14C1571.87 433.14 1571.87 433.14 1571.87 433.14Z" id="b3QW1wl05R"></path><linearGradient id="gradientdwYTlJ0p7" gradientUnits="userSpaceOnUse" x1="1571.87" y1="433.14" x2="1259.74" y2="116.73"><stop style="stop-color: #ff7f47;stop-opacity: 1" offset="0%"></stop><stop style="stop-color: #ffca1e;stop-opacity: 1" offset="100%"></stop></linearGradient><path d="M1416.03 992.17C1433.95 1010.34 1433.94 1039.79 1416.03 1057.95C1416.03 1057.95 1416.03 1057.95 1416.03 1057.95C1398.11 1076.11 1369.06 1076.12 1351.14 1057.95C1298.99 1005.08 1275.42 981.19 1280.44 986.29C1275.44 981.22 1271.19 975.47 1267.81 969.2C1256.85 948.88 1257.21 931.44 1268.91 916.87C1290.13 890.42 1319.88 894.71 1337.79 912.87C1345.61 920.8 1408.2 984.25 1416.03 992.17Z" id="a3F1MrXlp7"></path><linearGradient id="gradientc9bBWhAaa" gradientUnits="userSpaceOnUse" x1="1255.27" y1="984.86" x2="1429.47" y2="984.86"><stop style="stop-color: #ffca1e;stop-opacity: 1" offset="0%"></stop><stop style="stop-color: #df3e34;stop-opacity: 1" offset="100%"></stop></linearGradient><path d="M1213.26 1136.57C1195.15 1154.93 1165.53 1154.93 1147.42 1136.57C1122.79 1111.61 925.76 911.87 901.12 886.9C883.02 868.54 883.02 838.52 901.12 820.17C901.12 820.17 901.12 820.17 901.12 820.17C919.23 801.82 948.86 801.82 966.96 820.17C1016.21 870.1 1188.62 1044.88 1213.26 1069.85C1231.35 1088.2 1231.35 1118.22 1213.26 1136.57C1213.26 1136.57 1213.26 1136.57 1213.26 1136.57Z" id="e3thNzn9sh"></path><linearGradient id="gradienta3hSGuLRc" gradientUnits="userSpaceOnUse" x1="1213.26" y1="1136.58" x2="901.12" y2="820.17"><stop style="stop-color: #ff7f47;stop-opacity: 1" offset="0%"></stop><stop style="stop-color: #ffca1e;stop-opacity: 1" offset="100%"></stop></linearGradient></defs><g><g><g><use xlink:href="#c16vlDkeDL" opacity="1" fill="url(#gradientb10xnLGRP4)"></use><g><use xlink:href="#c16vlDkeDL" opacity="1" fill-opacity="0" stroke="#000000" stroke-width="1" stroke-opacity="0"></use></g></g><g><use xlink:href="#b3PM7uZXp" opacity="1" fill="url(#gradientbs2vxTE6N)"></use><g><use xlink:href="#b3PM7uZXp" opacity="1" fill-opacity="0" stroke="#000000" stroke-width="1" stroke-opacity="0"></use></g></g><g><use xlink:href="#fvfSvl6ia" opacity="1" fill="url(#gradientb5YIBXOPWw)"></use><g><use xlink:href="#fvfSvl6ia" opacity="1" fill-opacity="0" stroke="#000000" stroke-width="1" stroke-opacity="0"></use></g></g><g><use xlink:href="#d1z43a2jXZ" opacity="1" fill="url(#gradientcBJVxCQHH)"></use><g><use xlink:href="#d1z43a2jXZ" opacity="1" fill-opacity="0" stroke="#000000" stroke-width="1" stroke-opacity="0"></use></g></g><g><use xlink:href="#f105bppqb6" opacity="1" fill="url(#gradienta224WRJzgh)"></use><g><use xlink:href="#f105bppqb6" opacity="1" fill-opacity="0" stroke="#000000" stroke-width="1" stroke-opacity="0"></use></g></g><g><use xlink:href="#c5Gsi3XID" opacity="1" fill="url(#gradientb1Qo6ip8an)"></use><g><use xlink:href="#c5Gsi3XID" opacity="1" fill-opacity="0" stroke="#000000" stroke-width="1" stroke-opacity="0"></use></g></g><g><use xlink:href="#axMCc37Xt" opacity="1" fill="url(#gradientc8BXyxsA98)"></use><g><use xlink:href="#axMCc37Xt" opacity="1" fill-opacity="0" stroke="#000000" stroke-width="1" stroke-opacity="0"></use></g></g><g><use xlink:href="#a2r2lDThKX" opacity="1" fill="#ffca1e" fill-opacity="1"></use><g><use xlink:href="#a2r2lDThKX" opacity="1" fill-opacity="0" stroke="#000000" stroke-width="1" stroke-opacity="0"></use></g></g><g><use xlink:href="#bYhIwhAOs" opacity="1" fill="#fb9400" fill-opacity="1"></use><g><use xlink:href="#bYhIwhAOs" opacity="1" fill-opacity="0" stroke="#000000" stroke-width="1" stroke-opacity="0"></use></g></g><g><use xlink:href="#b7255qkv1f" opacity="1" fill="#ffca1e" fill-opacity="1"></use><g><use xlink:href="#b7255qkv1f" opacity="1" fill-opacity="0" stroke="#000000" stroke-width="1" stroke-opacity="0"></use></g></g><g><use xlink:href="#b3tr9vygSP" opacity="1" fill="#ffca1e" fill-opacity="1"></use><g><use xlink:href="#b3tr9vygSP" opacity="1" fill-opacity="0" stroke="#000000" stroke-width="1" stroke-opacity="0"></use></g></g><g><use xlink:href="#d2sZvjULVe" opacity="1" fill="#ffca1e" fill-opacity="1"></use><g><use xlink:href="#d2sZvjULVe" opacity="1" fill-opacity="0" stroke="#000000" stroke-width="1" stroke-opacity="0"></use></g></g><g><use xlink:href="#c4rxIBuJK" opacity="1" fill="url(#gradienta1NWkti7gL)"></use><g><use xlink:href="#c4rxIBuJK" opacity="1" fill-opacity="0" stroke="#000000" stroke-width="1" stroke-opacity="0"></use></g></g><g><use xlink:href="#c71BIWV6kN" opacity="1" fill="#ffca1e" fill-opacity="1"></use><g><use xlink:href="#c71BIWV6kN" opacity="1" fill-opacity="0" stroke="#000000" stroke-width="1" stroke-opacity="0"></use></g></g><g><use xlink:href="#aZfy129F1" opacity="1" fill="url(#gradientfIhLacA4)"></use><g><use xlink:href="#aZfy129F1" opacity="1" fill-opacity="0" stroke="#000000" stroke-width="1" stroke-opacity="0"></use></g></g><g><use xlink:href="#bHRl2RWDi" opacity="1" fill="#ffca1e" fill-opacity="1"></use><g><use xlink:href="#bHRl2RWDi" opacity="1" fill-opacity="0" stroke="#000000" stroke-width="1" stroke-opacity="0"></use></g></g><g><use xlink:href="#a1hUKrlwg" opacity="1" fill="url(#gradienta2RDJz7Db)"></use><g><use xlink:href="#a1hUKrlwg" opacity="1" fill-opacity="0" stroke="#000000" stroke-width="1" stroke-opacity="0"></use></g></g><g><use xlink:href="#awR7H4wKQ" opacity="1" fill="url(#gradientcGIEQdIrP)"></use><g><use xlink:href="#awR7H4wKQ" opacity="1" fill-opacity="0" stroke="#000000" stroke-width="1" stroke-opacity="0"></use></g></g><g><use xlink:href="#b3QW1wl05R" opacity="1" fill="url(#gradientdwYTlJ0p7)"></use><g><use xlink:href="#b3QW1wl05R" opacity="1" fill-opacity="0" stroke="#000000" stroke-width="1" stroke-opacity="0"></use></g></g><g><use xlink:href="#a3F1MrXlp7" opacity="1" fill="url(#gradientc9bBWhAaa)"></use><g><use xlink:href="#a3F1MrXlp7" opacity="1" fill-opacity="0" stroke="#000000" stroke-width="1" stroke-opacity="0"></use></g></g><g><use xlink:href="#e3thNzn9sh" opacity="1" fill="url(#gradienta3hSGuLRc)"></use><g><use xlink:href="#e3thNzn9sh" opacity="1" fill-opacity="0" stroke="#000000" stroke-width="1" stroke-opacity="0"></use></g></g></g></g></svg>