<?xml version="1.0" encoding="UTF-8" standalone="no"?>
<!DOCTYPE svg PUBLIC "-//W3C//DTD SVG 1.1//EN" "http://www.w3.org/Graphics/SVG/1.1/DTD/svg11.dtd">
<svg version="1.1" xmlns="http://www.w3.org/2000/svg" xmlns:xlink="http://www.w3.org/1999/xlink" preserveAspectRatio="xMidYMid meet" viewBox="0 0 2010 1530" width="2010" height="1530"><defs><path d="M0 1323.25L0 1346.12L181.39 1530L203.95 1530L0 1323.25Z" id="an05vKJ98"></path><path d="M0 1239.48L0 1267.22L260.16 1530L287.53 1530L0 1239.48Z" id="b1Zbf9z4MV"></path><path d="M0 1055.15L0 1082.89L443.18 1530L467.55 1530L0 1055.15Z" id="aWro2feDt"></path><path d="M0 870.67L0 898.41L621.21 1530L647.58 1530L0 870.67Z" id="ceL9XnIEM"></path><path d="M0 691.19L0 718.93L803.23 1530L830.61 1530L0 691.19Z" id="i1bpqvNCVJ"></path><path d="M0 507.7L0 535.45L985.26 1533L1013.63 1530L0 507.7Z" id="aL3voyp9I"></path><path d="M0 324.22L0 351.97L1167.29 1530L1194.66 1530L0 324.22Z" id="b7toNKtycl"></path><path d="M0 143.74L0 171.49L1342.31 1530L1367.68 1530L0 143.74Z" id="c4fQVjrAu"></path><path d="M126.85 0L99.48 0L1652.34 1530L1679.71 1530L126.85 0Z" id="bwcRC941M"></path><path d="M1734.61 0L1710.71 0L2010 303.39L2010 279.17L1734.61 0Z" id="c39MEqmuT7"></path><path d="M1909.83 0L1889.74 0L2010 121.91L2010 101.54L1909.83 0Z" id="dFPoKNotp"></path><path d="M0 1141.77L0 1166.69L358.4 1530L382.98 1530L0 1141.77Z" id="cC7seXHo6"></path><path d="M0 960.29L0 986.04L536.6 1530L562 1530L0 960.29Z" id="e9vgTvy4m"></path><path d="M0 778.81L0 805.02L715.18 1530L741.03 1530L0 778.81Z" id="abbXAnxA5"></path><path d="M0 597.33L0 623.82L893.92 1530L920.05 1530L0 597.33Z" id="j1dQqY1xI"></path><path d="M1378.33 0L1352.66 0L2010 666.35L2010 640.33L1378.33 0Z" id="afOvgze8X"></path><path d="M219.32 0L191.95 0L1744.81 1530L1772.18 1530L219.32 0Z" id="e1UaUrzeR"></path><path d="M400.35 0L372.98 0L1925.84 1530L1953.21 1530L400.35 0Z" id="b8tSvhaG8o"></path><path d="M0 52.89L0 79.83L1430.56 1530L1457.13 1530L0 52.89Z" id="aki7JRpfg"></path><path d="M36.3 0L8.93 0L1561.79 1530L1589.16 1530L36.3 0Z" id="etupVEU3P"></path><path d="M574.37 0L547.01 0L2010 1464.42L2010 1433.35L574.37 0Z" id="a2n9UJ04Ym"></path><path d="M745.4 0L718.03 0L2010 1305.94L2010 1277.19L745.4 0Z" id="j2Z6q24KEg"></path><path d="M924.43 0L897.06 0L2010 1131.46L2010 1100.71L924.43 0Z" id="a4eXjY9Ujx"></path><path d="M1109.45 0L1082.08 0L2010 936.98L2010 907.23L1109.45 0Z" id="aMkIYZE4I"></path><path d="M1286.48 0L1259.11 0L2010 760.5L2010 728.75L1286.48 0Z" id="cvqWtopi2"></path><path d="M1466.5 0L1439.14 0L2010 586.02L2010 550.27L1466.5 0Z" id="b8hrlkfxyc"></path><path d="M1640.53 0L1613.16 0L2010 410L2010 383.79L1640.53 0Z" id="c1IsLmADyn"></path><path d="M1827.56 0L1800.19 0L2010 205.06L2010 178.31L1827.56 0Z" id="bPhGXLM99"></path><path d="M305.87 0L278.5 0L1831.37 1530L1858.74 1530L305.87 0Z" id="b2f2WXAL1R"></path><path d="M484.86 0L457.53 0L2010 1530L2010 1502.76L484.86 0Z" id="c4nOCJv5kk"></path><path d="M663.09 0L636.56 0L2010 1384.74L2010 1355.85L663.09 0Z" id="bIQFwjSWg"></path><path d="M841.99 0L815.58 0L2010 1210.79L2010 1184.02L841.99 0Z" id="d5DqRfyaw3"></path><path d="M1020.85 0L994.61 0L2010 1029.31L2010 1002.71L1020.85 0Z" id="bJNga0DDQ"></path><path d="M1199.65 0L1173.63 0L2010 847.83L2010 821.46L1199.65 0Z" id="b3nx8SYhgw"></path><path d="M1556.77 0L1531.69 0L2010 484.87L2010 459.44L1556.77 0Z" id="bSiVaF1Jk"></path><path d="M0 415.85L0 442.54L1072.75 1530L1099.08 1530L0 415.85Z" id="f2eLKptMp2"></path><path d="M0 234.37L0 261.2L1251.64 1530L1278.11 1530L0 234.37Z" id="exGgwSpAS"></path><path d="M0 1408.11L0 1435.85L99.48 1530L124.61 1530L0 1408.11Z" id="b2kxC8Pex3"></path><path d="M1728.49 1345.94C1761.56 1379.47 1761.56 1434.33 1728.49 1467.85C1728.49 1467.85 1728.49 1467.85 1728.49 1467.85C1695.42 1501.37 1641.31 1501.37 1608.24 1467.85C1552.53 1411.37 1106.83 959.56 1051.12 903.09C1018.05 869.57 1018.05 814.71 1051.12 781.18C1051.12 781.18 1051.12 781.18 1051.12 781.18C1084.19 747.66 1138.3 747.66 1171.37 781.18C1282.8 894.14 1672.78 1289.47 1728.49 1345.94Z" id="g2Lq8Z5i4V"></path><linearGradient id="gradienti2hiWg7wjG" gradientUnits="userSpaceOnUse" x1="1728.49" y1="1467.85" x2="1051.11" y2="781.18"><stop style="stop-color: #ff9a1d;stop-opacity: 1" offset="0%"></stop><stop style="stop-color: #ffb713;stop-opacity: 1" offset="100%"></stop></linearGradient><path d="M1159.73 1084.86C1221.96 1147.94 1221.96 1251.17 1159.73 1314.25C1159.73 1314.25 1159.73 1314.25 1159.73 1314.25C1097.5 1377.33 995.67 1377.33 933.44 1314.25C877.18 1257.21 427.05 800.91 370.79 743.88C308.56 680.8 308.56 577.57 370.79 514.49C370.79 514.49 370.79 514.49 370.79 514.49C433.01 451.41 534.84 451.41 597.07 514.49C709.6 628.56 1103.46 1027.82 1159.73 1084.86Z" id="h1DE4g8rqy"></path><linearGradient id="gradientaftO0fcjU" gradientUnits="userSpaceOnUse" x1="1159.73" y1="1314.25" x2="370.79" y2="514.49"><stop style="stop-color: #f26007;stop-opacity: 1" offset="0%"></stop><stop style="stop-color: #ffca1e;stop-opacity: 1" offset="100%"></stop></linearGradient><path d="M1856.36 805.64C1907.88 857.87 1907.88 943.33 1856.36 995.55C1856.36 995.55 1856.36 995.55 1856.36 995.55C1804.84 1047.78 1720.54 1047.78 1669.02 995.55C1622.43 948.33 1249.77 570.56 1203.19 523.34C1151.67 471.11 1151.67 385.65 1203.19 333.43C1203.19 333.43 1203.19 333.43 1203.19 333.43C1254.71 281.2 1339.01 281.2 1390.53 333.42C1483.7 427.87 1809.78 758.42 1856.36 805.64Z" id="a1WGcaU2ek"></path><linearGradient id="gradientbS82oYlq" gradientUnits="userSpaceOnUse" x1="1856.36" y1="995.55" x2="1203.19" y2="333.43"><stop style="stop-color: #e65f00;stop-opacity: 1" offset="0%"></stop><stop style="stop-color: #ffca1e;stop-opacity: 1" offset="100%"></stop></linearGradient><path d="M1667.78 930.95C1690.79 954.27 1690.79 992.44 1667.78 1015.76C1667.78 1015.76 1667.78 1015.76 1667.78 1015.76C1644.78 1039.08 1607.13 1039.08 1584.12 1015.76C1545.36 976.47 1235.28 662.14 1196.52 622.84C1173.51 599.52 1173.51 561.36 1196.52 538.03C1196.52 538.03 1196.52 538.03 1196.52 538.03C1219.53 514.71 1257.18 514.71 1280.18 538.03C1357.7 616.62 1629.02 891.66 1667.78 930.95Z" id="b1AfVMKQB"></path><linearGradient id="gradientc39cAM8yHg" gradientUnits="userSpaceOnUse" x1="1667.78" y1="1015.76" x2="1196.52" y2="538.03"><stop style="stop-color: #ff721d;stop-opacity: 1" offset="0%"></stop><stop style="stop-color: #ffde00;stop-opacity: 1" offset="100%"></stop></linearGradient><path d="M882.88 1130.36C915.95 1163.88 915.95 1218.74 882.88 1252.26C882.88 1252.26 882.88 1252.26 882.88 1252.26C849.81 1285.79 795.7 1285.79 762.63 1252.26C706.91 1195.79 261.22 743.98 205.5 687.5C172.43 653.98 172.43 599.12 205.5 565.6C205.5 565.6 205.5 565.6 205.5 565.6C238.57 532.07 292.69 532.07 325.76 565.6C437.18 678.55 827.17 1073.88 882.88 1130.36Z" id="k1WPThuq9V"></path><linearGradient id="gradienta1Ncol7jWK" gradientUnits="userSpaceOnUse" x1="882.88" y1="1252.26" x2="205.5" y2="565.6"><stop style="stop-color: #ff5c33;stop-opacity: 1" offset="0%"></stop><stop style="stop-color: #ffb627;stop-opacity: 1" offset="100%"></stop></linearGradient><path d="M800.6 1366.64C818.71 1384.98 818.71 1415.02 800.6 1433.37C800.6 1433.37 800.6 1433.37 800.6 1433.37C782.5 1451.72 752.87 1451.72 734.77 1433.37C710.14 1408.4 513.09 1208.64 488.45 1183.68C470.35 1165.32 470.35 1135.29 488.45 1116.94C488.45 1116.94 488.45 1116.94 488.45 1116.94C506.56 1098.59 536.18 1098.59 554.29 1116.94C603.55 1166.88 775.97 1341.67 800.6 1366.64Z" id="b128t0g12"></path><linearGradient id="gradientivQs4X9fr" gradientUnits="userSpaceOnUse" x1="800.6" y1="1433.37" x2="488.45" y2="1116.94"><stop style="stop-color: #ffca1e;stop-opacity: 1" offset="0%"></stop><stop style="stop-color: #ffca1e;stop-opacity: 1" offset="100%"></stop></linearGradient><path d="M1279.62 832C1297.73 850.36 1297.73 880.39 1279.62 898.74C1279.62 898.74 1279.62 898.74 1279.62 898.74C1261.52 917.09 1231.89 917.09 1213.79 898.74C1189.16 873.77 992.1 674.01 967.47 649.04C949.37 630.69 949.37 600.66 967.47 582.31C967.47 582.31 967.47 582.31 967.47 582.31C985.57 563.96 1015.2 563.96 1033.3 582.31C1082.57 632.25 1254.99 807.04 1279.62 832Z" id="kaNNHuYwb"></path><linearGradient id="gradientd3MqOnq4n" gradientUnits="userSpaceOnUse" x1="1279.62" y1="898.74" x2="967.47" y2="582.31"><stop style="stop-color: #ff7f47;stop-opacity: 1" offset="0%"></stop><stop style="stop-color: #ffca1e;stop-opacity: 1" offset="100%"></stop></linearGradient><path d="M904.7 731.27C904.7 731.27 904.7 731.27 904.7 731.27C912.31 723.54 924.67 723.54 932.29 731.26C935.62 734.64 962.24 761.62 965.56 765C973.18 772.72 973.18 785.25 965.56 792.97C965.56 792.97 965.56 792.97 965.56 792.97C957.94 800.7 945.59 800.7 937.97 792.97C935.75 790.72 924.66 779.48 904.69 759.24C899.61 745.74 899.61 736.42 904.7 731.27Z" id="c6gvD4sc5b"></path><path d="M1364.35 530.17C1364.35 530.17 1364.35 530.17 1364.35 530.17C1371.98 522.44 1384.33 522.44 1391.95 530.16C1395.28 533.54 1421.9 560.52 1425.23 563.9C1432.85 571.62 1432.85 584.14 1425.22 591.87C1425.22 591.87 1425.22 591.87 1425.22 591.87C1417.6 599.6 1405.25 599.6 1397.63 591.87C1395.41 589.62 1384.32 578.38 1364.35 558.14C1359.27 544.64 1359.27 535.32 1364.35 530.17Z" id="b4S1p387S"></path><path d="M420.84 1010.84C420.84 1010.84 420.84 1010.84 420.84 1010.84C428.46 1003.12 440.81 1003.12 448.43 1010.84C451.76 1014.21 478.38 1041.2 481.71 1044.57C489.33 1052.3 489.33 1064.82 481.71 1072.55C481.71 1072.55 481.71 1072.55 481.71 1072.55C474.09 1080.27 461.73 1080.27 454.11 1072.55C451.9 1070.3 440.8 1059.05 420.84 1038.81C415.76 1025.32 415.76 1015.99 420.84 1010.84Z" id="b23X8BnNuL"></path><path d="M1440.05 1046.92C1440.05 1046.92 1440.05 1046.92 1440.05 1046.92C1457.97 1028.76 1487.02 1028.76 1504.94 1046.92C1512.76 1054.85 1575.36 1118.3 1583.18 1126.23C1601.1 1144.4 1601.1 1173.84 1583.18 1192.01C1583.18 1192.01 1583.18 1192.01 1583.18 1192.01C1565.26 1210.17 1536.21 1210.17 1518.29 1192.01C1513.08 1186.72 1486.99 1160.28 1440.05 1112.69C1428.11 1080.96 1428.11 1059.03 1440.05 1046.92Z" id="e7469MuD9s"></path><linearGradient id="gradientb3gPRmBMDp" gradientUnits="userSpaceOnUse" x1="1426.61" y1="1119.47" x2="1596.62" y2="1119.47"><stop style="stop-color: #ffca1e;stop-opacity: 1" offset="0%"></stop><stop style="stop-color: #df3e34;stop-opacity: 1" offset="100%"></stop></linearGradient><path d="M1241.67 1267.64C1241.67 1267.64 1241.67 1267.64 1241.67 1267.64C1259.59 1249.48 1288.64 1249.48 1306.56 1267.63C1314.38 1275.57 1376.98 1339.02 1384.8 1346.95C1402.72 1365.12 1402.72 1394.56 1384.8 1412.73C1384.8 1412.73 1384.8 1412.73 1384.8 1412.73C1366.88 1430.89 1337.83 1430.89 1319.91 1412.73C1314.7 1407.44 1288.61 1381 1241.67 1333.41C1229.73 1301.67 1229.73 1279.75 1241.67 1267.64Z" id="a5nWrgc9P"></path><path d="M904.18 476.73C904.18 476.73 904.18 476.73 904.18 476.73C912.08 468.72 924.88 468.72 932.78 476.73C936.23 480.22 963.82 508.19 967.27 511.69C975.16 519.69 975.16 532.67 967.26 540.68C967.26 540.68 967.26 540.68 967.26 540.68C959.37 548.68 946.56 548.68 938.67 540.68C936.37 538.35 924.87 526.69 904.18 505.72C898.92 491.73 898.92 482.07 904.18 476.73Z" id="b8LCimCwq"></path><path d="M1422.75 897.55C1436.27 911.25 1436.27 933.67 1422.75 947.38C1422.75 947.38 1422.75 947.38 1422.75 947.38C1409.23 961.08 1387.12 961.08 1373.6 947.38C1355.21 928.73 1208.09 779.6 1189.7 760.95C1176.18 747.25 1176.18 724.83 1189.7 711.13C1189.7 711.13 1189.7 711.13 1189.7 711.13C1203.21 697.43 1225.33 697.43 1238.85 711.13C1275.63 748.41 1404.36 878.91 1422.75 897.55Z" id="bfHMP02Gk"></path><linearGradient id="gradientb10Kuag5IP" gradientUnits="userSpaceOnUse" x1="1422.75" y1="947.38" x2="1189.7" y2="711.13"><stop style="stop-color: #ffa21d;stop-opacity: 1" offset="0%"></stop><stop style="stop-color: #ffca1e;stop-opacity: 1" offset="100%"></stop></linearGradient><path d="M858.42 763.14C880.37 785.39 880.37 821.8 858.42 844.06C858.42 844.06 858.42 844.06 858.42 844.06C836.47 866.31 800.55 866.31 778.6 844.06C741.62 806.57 445.77 506.67 408.79 469.18C386.84 446.93 386.84 410.52 408.79 388.27C408.79 388.27 408.79 388.27 408.79 388.27C430.75 366.01 466.66 366.01 488.62 388.27C562.58 463.24 821.44 725.65 858.42 763.14Z" id="aVO5ZTtmh"></path><path d="M905.55 564.05C928.56 587.37 928.56 625.54 905.55 648.86C905.55 648.86 905.55 648.86 905.55 648.86C882.54 672.18 844.89 672.18 821.88 648.86C783.12 609.57 473.05 295.24 434.29 255.94C411.28 232.62 411.28 194.46 434.29 171.13C434.29 171.13 434.29 171.13 434.29 171.13C457.29 147.81 494.94 147.81 517.95 171.13C595.47 249.72 866.79 524.76 905.55 564.05Z" id="a1p5jKxhr4"></path><linearGradient id="gradientb2oQ6G9eBD" gradientUnits="userSpaceOnUse" x1="905.55" y1="648.86" x2="434.28" y2="171.13"><stop style="stop-color: #ff762f;stop-opacity: 1" offset="0%"></stop><stop style="stop-color: #ffca1e;stop-opacity: 1" offset="100%"></stop></linearGradient><path d="M977.14 240.38C977.14 240.38 977.14 240.38 977.14 240.38C985.03 232.37 997.84 232.37 1005.73 240.37C1009.18 243.87 1036.77 271.84 1040.22 275.33C1048.12 283.34 1048.11 296.32 1040.22 304.32C1040.22 304.32 1040.22 304.32 1040.22 304.32C1032.32 312.33 1019.52 312.33 1011.62 304.33C1009.32 301.99 997.83 290.34 977.13 269.36C971.87 255.38 971.87 245.71 977.14 240.38Z" id="cZzdlgVuj"></path><path d="M1116.51 417.1C1134.61 435.45 1134.61 465.48 1116.51 483.84C1116.51 483.84 1116.51 483.84 1116.51 483.84C1098.4 502.19 1068.78 502.19 1050.67 483.84C1026.04 458.87 828.99 259.11 804.35 234.14C786.25 215.79 786.25 185.76 804.35 167.4C804.35 167.4 804.35 167.4 804.35 167.4C822.46 149.05 852.08 149.05 870.19 167.4C919.45 217.34 1091.87 392.13 1116.51 417.1Z" id="b20JwOTALr"></path><linearGradient id="gradientbambh65t" gradientUnits="userSpaceOnUse" x1="1116.51" y1="483.84" x2="804.35" y2="167.4"><stop style="stop-color: #ff7f47;stop-opacity: 1" offset="0%"></stop><stop style="stop-color: #ffca1e;stop-opacity: 1" offset="100%"></stop></linearGradient><path d="M879.84 341.78C901.06 315.34 930.81 319.63 948.73 337.78C956.55 345.72 1019.15 409.17 1026.97 417.1C1044.89 435.27 1044.89 464.71 1026.97 482.88C1026.97 482.88 1026.97 482.88 1026.97 482.88C1009.05 501.04 980 501.04 962.08 482.88C909.92 430 886.35 406.11 891.37 411.2C886.38 406.13 882.12 400.38 878.74 394.12C867.78 373.8 868.15 356.36 879.84 341.78Z" id="a15pVxoOV7"></path><linearGradient id="gradientad05DlHv9" gradientUnits="userSpaceOnUse" x1="866.2" y1="409.78" x2="1040.41" y2="409.78"><stop style="stop-color: #ffca1e;stop-opacity: 1" offset="0%"></stop><stop style="stop-color: #df3e34;stop-opacity: 1" offset="100%"></stop></linearGradient><path d="M1752.69 501.48C1770.8 519.83 1770.8 549.86 1752.69 568.21C1752.69 568.21 1752.69 568.21 1752.69 568.21C1734.59 586.56 1704.96 586.56 1686.86 568.21C1662.23 543.24 1465.17 343.49 1440.54 318.52C1422.44 300.16 1422.44 270.13 1440.54 251.78C1440.54 251.78 1440.54 251.78 1440.54 251.78C1458.65 233.43 1488.27 233.43 1506.38 251.78C1555.64 301.72 1728.06 476.51 1752.69 501.48Z" id="e1oYyCgDSR"></path><linearGradient id="gradientbMD8fRh3a" gradientUnits="userSpaceOnUse" x1="1752.69" y1="568.21" x2="1440.54" y2="251.78"><stop style="stop-color: #ff7f47;stop-opacity: 1" offset="0%"></stop><stop style="stop-color: #ffca1e;stop-opacity: 1" offset="100%"></stop></linearGradient></defs><g><g><g><use xlink:href="#an05vKJ98" opacity="0.02" fill="#000000" fill-opacity="1"></use><g><use xlink:href="#an05vKJ98" opacity="0.02" fill-opacity="0" stroke="#000000" stroke-width="1" stroke-opacity="0"></use></g></g><g><use xlink:href="#b1Zbf9z4MV" opacity="0.02" fill="#000000" fill-opacity="1"></use><g><use xlink:href="#b1Zbf9z4MV" opacity="0.02" fill-opacity="0" stroke="#000000" stroke-width="1" stroke-opacity="0"></use></g></g><g><use xlink:href="#aWro2feDt" opacity="0.02" fill="#000000" fill-opacity="1"></use><g><use xlink:href="#aWro2feDt" opacity="0.02" fill-opacity="0" stroke="#000000" stroke-width="1" stroke-opacity="0"></use></g></g><g><use xlink:href="#ceL9XnIEM" opacity="0.02" fill="#000000" fill-opacity="1"></use><g><use xlink:href="#ceL9XnIEM" opacity="0.02" fill-opacity="0" stroke="#000000" stroke-width="1" stroke-opacity="0"></use></g></g><g><use xlink:href="#i1bpqvNCVJ" opacity="0.02" fill="#000000" fill-opacity="1"></use><g><use xlink:href="#i1bpqvNCVJ" opacity="0.02" fill-opacity="0" stroke="#000000" stroke-width="1" stroke-opacity="0"></use></g></g><g><use xlink:href="#aL3voyp9I" opacity="0.02" fill="#000000" fill-opacity="1"></use><g><use xlink:href="#aL3voyp9I" opacity="0.02" fill-opacity="0" stroke="#000000" stroke-width="1" stroke-opacity="0"></use></g></g><g><use xlink:href="#b7toNKtycl" opacity="0.02" fill="#000000" fill-opacity="1"></use><g><use xlink:href="#b7toNKtycl" opacity="0.02" fill-opacity="0" stroke="#000000" stroke-width="1" stroke-opacity="0"></use></g></g><g><use xlink:href="#c4fQVjrAu" opacity="0.02" fill="#000000" fill-opacity="1"></use><g><use xlink:href="#c4fQVjrAu" opacity="0.02" fill-opacity="0" stroke="#000000" stroke-width="1" stroke-opacity="0"></use></g></g><g><use xlink:href="#bwcRC941M" opacity="0.02" fill="#000000" fill-opacity="1"></use><g><use xlink:href="#bwcRC941M" opacity="0.02" fill-opacity="0" stroke="#000000" stroke-width="1" stroke-opacity="0"></use></g></g><g><use xlink:href="#c39MEqmuT7" opacity="0.02" fill="#000000" fill-opacity="1"></use><g><use xlink:href="#c39MEqmuT7" opacity="0.02" fill-opacity="0" stroke="#000000" stroke-width="1" stroke-opacity="0"></use></g></g><g><use xlink:href="#dFPoKNotp" opacity="0.02" fill="#000000" fill-opacity="1"></use><g><use xlink:href="#dFPoKNotp" opacity="0.02" fill-opacity="0" stroke="#000000" stroke-width="1" stroke-opacity="0"></use></g></g><g><use xlink:href="#cC7seXHo6" opacity="0.02" fill="#000000" fill-opacity="1"></use><g><use xlink:href="#cC7seXHo6" opacity="0.02" fill-opacity="0" stroke="#000000" stroke-width="1" stroke-opacity="0"></use></g></g><g><use xlink:href="#e9vgTvy4m" opacity="0.02" fill="#000000" fill-opacity="1"></use><g><use xlink:href="#e9vgTvy4m" opacity="0.02" fill-opacity="0" stroke="#000000" stroke-width="1" stroke-opacity="0"></use></g></g><g><use xlink:href="#abbXAnxA5" opacity="0.02" fill="#000000" fill-opacity="1"></use><g><use xlink:href="#abbXAnxA5" opacity="0.02" fill-opacity="0" stroke="#000000" stroke-width="1" stroke-opacity="0"></use></g></g><g><use xlink:href="#j1dQqY1xI" opacity="0.02" fill="#000000" fill-opacity="1"></use><g><use xlink:href="#j1dQqY1xI" opacity="0.02" fill-opacity="0" stroke="#000000" stroke-width="1" stroke-opacity="0"></use></g></g><g><use xlink:href="#afOvgze8X" opacity="0.02" fill="#000000" fill-opacity="1"></use><g><use xlink:href="#afOvgze8X" opacity="0.02" fill-opacity="0" stroke="#000000" stroke-width="1" stroke-opacity="0"></use></g></g><g><use xlink:href="#e1UaUrzeR" opacity="0.02" fill="#000000" fill-opacity="1"></use><g><use xlink:href="#e1UaUrzeR" opacity="0.02" fill-opacity="0" stroke="#000000" stroke-width="1" stroke-opacity="0"></use></g></g><g><use xlink:href="#b8tSvhaG8o" opacity="0.02" fill="#000000" fill-opacity="1"></use><g><use xlink:href="#b8tSvhaG8o" opacity="0.02" fill-opacity="0" stroke="#000000" stroke-width="1" stroke-opacity="0"></use></g></g><g><use xlink:href="#aki7JRpfg" opacity="0.02" fill="#000000" fill-opacity="1"></use><g><use xlink:href="#aki7JRpfg" opacity="0.02" fill-opacity="0" stroke="#000000" stroke-width="1" stroke-opacity="0"></use></g></g><g><use xlink:href="#etupVEU3P" opacity="0.02" fill="#000000" fill-opacity="1"></use><g><use xlink:href="#etupVEU3P" opacity="0.02" fill-opacity="0" stroke="#000000" stroke-width="1" stroke-opacity="0"></use></g></g><g><use xlink:href="#a2n9UJ04Ym" opacity="0.02" fill="#000000" fill-opacity="1"></use><g><use xlink:href="#a2n9UJ04Ym" opacity="0.02" fill-opacity="0" stroke="#000000" stroke-width="1" stroke-opacity="0"></use></g></g><g><use xlink:href="#j2Z6q24KEg" opacity="0.02" fill="#000000" fill-opacity="1"></use><g><use xlink:href="#j2Z6q24KEg" opacity="0.02" fill-opacity="0" stroke="#000000" stroke-width="1" stroke-opacity="0"></use></g></g><g><use xlink:href="#a4eXjY9Ujx" opacity="0.02" fill="#000000" fill-opacity="1"></use><g><use xlink:href="#a4eXjY9Ujx" opacity="0.02" fill-opacity="0" stroke="#000000" stroke-width="1" stroke-opacity="0"></use></g></g><g><use xlink:href="#aMkIYZE4I" opacity="0.02" fill="#000000" fill-opacity="1"></use><g><use xlink:href="#aMkIYZE4I" opacity="0.02" fill-opacity="0" stroke="#000000" stroke-width="1" stroke-opacity="0"></use></g></g><g><use xlink:href="#cvqWtopi2" opacity="0.02" fill="#000000" fill-opacity="1"></use><g><use xlink:href="#cvqWtopi2" opacity="0.02" fill-opacity="0" stroke="#000000" stroke-width="1" stroke-opacity="0"></use></g></g><g><use xlink:href="#b8hrlkfxyc" opacity="0.02" fill="#000000" fill-opacity="1"></use><g><use xlink:href="#b8hrlkfxyc" opacity="0.02" fill-opacity="0" stroke="#000000" stroke-width="1" stroke-opacity="0"></use></g></g><g><use xlink:href="#c1IsLmADyn" opacity="0.02" fill="#000000" fill-opacity="1"></use><g><use xlink:href="#c1IsLmADyn" opacity="0.02" fill-opacity="0" stroke="#000000" stroke-width="1" stroke-opacity="0"></use></g></g><g><use xlink:href="#bPhGXLM99" opacity="0.02" fill="#000000" fill-opacity="1"></use><g><use xlink:href="#bPhGXLM99" opacity="0.02" fill-opacity="0" stroke="#000000" stroke-width="1" stroke-opacity="0"></use></g></g><g><use xlink:href="#b2f2WXAL1R" opacity="0.02" fill="#000000" fill-opacity="1"></use><g><use xlink:href="#b2f2WXAL1R" opacity="0.02" fill-opacity="0" stroke="#000000" stroke-width="1" stroke-opacity="0"></use></g></g><g><use xlink:href="#c4nOCJv5kk" opacity="0.02" fill="#000000" fill-opacity="1"></use><g><use xlink:href="#c4nOCJv5kk" opacity="0.02" fill-opacity="0" stroke="#000000" stroke-width="1" stroke-opacity="0"></use></g></g><g><use xlink:href="#bIQFwjSWg" opacity="0.02" fill="#000000" fill-opacity="1"></use><g><use xlink:href="#bIQFwjSWg" opacity="0.02" fill-opacity="0" stroke="#000000" stroke-width="1" stroke-opacity="0"></use></g></g><g><use xlink:href="#d5DqRfyaw3" opacity="0.02" fill="#000000" fill-opacity="1"></use><g><use xlink:href="#d5DqRfyaw3" opacity="0.02" fill-opacity="0" stroke="#000000" stroke-width="1" stroke-opacity="0"></use></g></g><g><use xlink:href="#bJNga0DDQ" opacity="0.02" fill="#000000" fill-opacity="1"></use><g><use xlink:href="#bJNga0DDQ" opacity="0.02" fill-opacity="0" stroke="#000000" stroke-width="1" stroke-opacity="0"></use></g></g><g><use xlink:href="#b3nx8SYhgw" opacity="0.02" fill="#000000" fill-opacity="1"></use><g><use xlink:href="#b3nx8SYhgw" opacity="0.02" fill-opacity="0" stroke="#000000" stroke-width="1" stroke-opacity="0"></use></g></g><g><use xlink:href="#bSiVaF1Jk" opacity="0.02" fill="#000000" fill-opacity="1"></use><g><use xlink:href="#bSiVaF1Jk" opacity="0.02" fill-opacity="0" stroke="#000000" stroke-width="1" stroke-opacity="0"></use></g></g><g><use xlink:href="#f2eLKptMp2" opacity="0.02" fill="#000000" fill-opacity="1"></use><g><use xlink:href="#f2eLKptMp2" opacity="0.02" fill-opacity="0" stroke="#000000" stroke-width="1" stroke-opacity="0"></use></g></g><g><use xlink:href="#exGgwSpAS" opacity="0.02" fill="#000000" fill-opacity="1"></use><g><use xlink:href="#exGgwSpAS" opacity="0.02" fill-opacity="0" stroke="#000000" stroke-width="1" stroke-opacity="0"></use></g></g><g><use xlink:href="#b2kxC8Pex3" opacity="0.02" fill="#000000" fill-opacity="1"></use><g><use xlink:href="#b2kxC8Pex3" opacity="0.02" fill-opacity="0" stroke="#000000" stroke-width="1" stroke-opacity="0"></use></g></g><g><use xlink:href="#g2Lq8Z5i4V" opacity="1" fill="url(#gradienti2hiWg7wjG)"></use><g><use xlink:href="#g2Lq8Z5i4V" opacity="1" fill-opacity="0" stroke="#000000" stroke-width="1" stroke-opacity="0"></use></g></g><g><use xlink:href="#h1DE4g8rqy" opacity="1" fill="url(#gradientaftO0fcjU)"></use><g><use xlink:href="#h1DE4g8rqy" opacity="1" fill-opacity="0" stroke="#000000" stroke-width="1" stroke-opacity="0"></use></g></g><g><use xlink:href="#a1WGcaU2ek" opacity="1" fill="url(#gradientbS82oYlq)"></use><g><use xlink:href="#a1WGcaU2ek" opacity="1" fill-opacity="0" stroke="#000000" stroke-width="1" stroke-opacity="0"></use></g></g><g><use xlink:href="#b1AfVMKQB" opacity="1" fill="url(#gradientc39cAM8yHg)"></use><g><use xlink:href="#b1AfVMKQB" opacity="1" fill-opacity="0" stroke="#000000" stroke-width="1" stroke-opacity="0"></use></g></g><g><use xlink:href="#k1WPThuq9V" opacity="1" fill="url(#gradienta1Ncol7jWK)"></use><g><use xlink:href="#k1WPThuq9V" opacity="1" fill-opacity="0" stroke="#000000" stroke-width="1" stroke-opacity="0"></use></g></g><g><use xlink:href="#b128t0g12" opacity="1" fill="url(#gradientivQs4X9fr)"></use><g><use xlink:href="#b128t0g12" opacity="1" fill-opacity="0" stroke="#000000" stroke-width="1" stroke-opacity="0"></use></g></g><g><use xlink:href="#kaNNHuYwb" opacity="1" fill="url(#gradientd3MqOnq4n)"></use><g><use xlink:href="#kaNNHuYwb" opacity="1" fill-opacity="0" stroke="#000000" stroke-width="1" stroke-opacity="0"></use></g></g><g><use xlink:href="#c6gvD4sc5b" opacity="1" fill="#ffca1e" fill-opacity="1"></use><g><use xlink:href="#c6gvD4sc5b" opacity="1" fill-opacity="0" stroke="#000000" stroke-width="1" stroke-opacity="0"></use></g></g><g><use xlink:href="#b4S1p387S" opacity="1" fill="#fb9400" fill-opacity="1"></use><g><use xlink:href="#b4S1p387S" opacity="1" fill-opacity="0" stroke="#000000" stroke-width="1" stroke-opacity="0"></use></g></g><g><use xlink:href="#b23X8BnNuL" opacity="1" fill="#ffca1e" fill-opacity="1"></use><g><use xlink:href="#b23X8BnNuL" opacity="1" fill-opacity="0" stroke="#000000" stroke-width="1" stroke-opacity="0"></use></g></g><g><use xlink:href="#e7469MuD9s" opacity="1" fill="url(#gradientb3gPRmBMDp)"></use><g><use xlink:href="#e7469MuD9s" opacity="1" fill-opacity="0" stroke="#000000" stroke-width="1" stroke-opacity="0"></use></g></g><g><use xlink:href="#a5nWrgc9P" opacity="1" fill="#ffca1e" fill-opacity="1"></use><g><use xlink:href="#a5nWrgc9P" opacity="1" fill-opacity="0" stroke="#000000" stroke-width="1" stroke-opacity="0"></use></g></g><g><use xlink:href="#b8LCimCwq" opacity="1" fill="#ffca1e" fill-opacity="1"></use><g><use xlink:href="#b8LCimCwq" opacity="1" fill-opacity="0" stroke="#000000" stroke-width="1" stroke-opacity="0"></use></g></g><g><use xlink:href="#bfHMP02Gk" opacity="1" fill="url(#gradientb10Kuag5IP)"></use><g><use xlink:href="#bfHMP02Gk" opacity="1" fill-opacity="0" stroke="#000000" stroke-width="1" stroke-opacity="0"></use></g></g><g><use xlink:href="#aVO5ZTtmh" opacity="1" fill="#ffca1e" fill-opacity="1"></use><g><use xlink:href="#aVO5ZTtmh" opacity="1" fill-opacity="0" stroke="#000000" stroke-width="1" stroke-opacity="0"></use></g></g><g><use xlink:href="#a1p5jKxhr4" opacity="1" fill="url(#gradientb2oQ6G9eBD)"></use><g><use xlink:href="#a1p5jKxhr4" opacity="1" fill-opacity="0" stroke="#000000" stroke-width="1" stroke-opacity="0"></use></g></g><g><use xlink:href="#cZzdlgVuj" opacity="1" fill="#ffca1e" fill-opacity="1"></use><g><use xlink:href="#cZzdlgVuj" opacity="1" fill-opacity="0" stroke="#000000" stroke-width="1" stroke-opacity="0"></use></g></g><g><use xlink:href="#b20JwOTALr" opacity="1" fill="url(#gradientbambh65t)"></use><g><use xlink:href="#b20JwOTALr" opacity="1" fill-opacity="0" stroke="#000000" stroke-width="1" stroke-opacity="0"></use></g></g><g><use xlink:href="#a15pVxoOV7" opacity="1" fill="url(#gradientad05DlHv9)"></use><g><use xlink:href="#a15pVxoOV7" opacity="1" fill-opacity="0" stroke="#000000" stroke-width="1" stroke-opacity="0"></use></g></g><g><use xlink:href="#e1oYyCgDSR" opacity="1" fill="url(#gradientbMD8fRh3a)"></use><g><use xlink:href="#e1oYyCgDSR" opacity="1" fill-opacity="0" stroke="#000000" stroke-width="1" stroke-opacity="0"></use></g></g></g></g></svg>