<?xml version="1.0" encoding="UTF-8" standalone="no"?>
<!DOCTYPE svg PUBLIC "-//W3C//DTD SVG 1.1//EN" "http://www.w3.org/Graphics/SVG/1.1/DTD/svg11.dtd">
<svg version="1.1" xmlns="http://www.w3.org/2000/svg" xmlns:xlink="http://www.w3.org/1999/xlink" preserveAspectRatio="xMidYMid meet" viewBox="0 0 1700 1340" width="1700" height="1340"><defs><path d="M1135.5 1296.55C1135.5 1296.55 1135.5 1296.55 1135.5 1296.55C1102.43 1330.06 1048.33 1330.06 1015.26 1296.55C959.55 1240.07 513.89 788.3 458.18 731.83C425.12 698.31 425.12 643.46 458.18 609.93C458.18 609.93 458.18 609.93 458.18 609.93C491.25 576.41 545.36 576.41 578.42 609.93C689.85 722.88 1079.79 1118.18 1135.5 1174.65C1168.57 1208.17 1168.57 1263.03 1135.5 1296.55Z" id="fnOVJM1ra"></path><linearGradient id="gradientf5CoST9y9" gradientUnits="userSpaceOnUse" x1="1135.5" y1="1296.55" x2="458.17" y2="609.93"><stop style="stop-color: #ff9a1d;stop-opacity: 1" offset="0%"></stop><stop style="stop-color: #ffb713;stop-opacity: 1" offset="100%"></stop></linearGradient><path d="M978.95 1160.52C978.95 1160.52 978.95 1160.52 978.95 1160.52C916.73 1223.59 814.91 1223.59 752.68 1160.52C696.43 1103.48 246.33 647.22 190.08 590.2C127.85 527.12 127.85 423.9 190.08 360.82C190.08 360.82 190.08 360.82 190.08 360.82C252.29 297.75 354.11 297.75 416.34 360.82C528.86 474.88 922.69 874.11 978.95 931.15C1041.18 994.22 1041.18 1097.44 978.95 1160.52Z" id="dmwcvuxVX"></path><linearGradient id="gradienta134h2C7SI" gradientUnits="userSpaceOnUse" x1="978.95" y1="1160.52" x2="190.08" y2="360.82"><stop style="stop-color: #f26007;stop-opacity: 1" offset="0%"></stop><stop style="stop-color: #ffca1e;stop-opacity: 1" offset="100%"></stop></linearGradient><path d="M1661.36 840.37C1661.36 840.37 1661.36 840.37 1661.36 840.37C1609.85 892.6 1525.55 892.6 1474.04 840.37C1427.45 793.16 1054.82 415.42 1008.25 368.2C956.73 315.97 956.73 230.52 1008.25 178.31C1008.25 178.31 1008.25 178.31 1008.25 178.31C1059.76 126.08 1144.05 126.08 1195.57 178.3C1288.73 272.74 1614.79 603.26 1661.36 650.48C1712.88 702.7 1712.88 788.16 1661.36 840.37Z" id="b3ZdSzE2aX"></path><linearGradient id="gradienta7w76uZuZv" gradientUnits="userSpaceOnUse" x1="1661.36" y1="840.37" x2="1008.25" y2="178.31"><stop style="stop-color: #e65f00;stop-opacity: 1" offset="0%"></stop><stop style="stop-color: #ffca1e;stop-opacity: 1" offset="100%"></stop></linearGradient><path d="M1486.96 862.05C1486.96 862.05 1486.96 862.05 1486.96 862.05C1463.97 885.37 1426.32 885.37 1403.31 862.05C1364.55 822.77 1054.5 508.46 1015.74 469.16C992.73 445.85 992.73 407.69 1015.74 384.36C1015.74 384.36 1015.74 384.36 1015.74 384.36C1038.75 361.04 1076.4 361.04 1099.39 384.36C1176.91 462.95 1448.21 737.96 1486.96 777.25C1509.97 800.57 1509.97 838.74 1486.96 862.05Z" id="bBig8YEXc"></path><linearGradient id="gradientb1CDBCUZuR" gradientUnits="userSpaceOnUse" x1="1486.96" y1="862.05" x2="1015.74" y2="384.36"><stop style="stop-color: #ff721d;stop-opacity: 1" offset="0%"></stop><stop style="stop-color: #ffde00;stop-opacity: 1" offset="100%"></stop></linearGradient><path d="M702.13 1098.53C702.13 1098.53 702.13 1098.53 702.13 1098.53C669.06 1132.06 614.95 1132.06 581.89 1098.53C526.17 1042.07 80.52 590.3 24.8 533.82C-8.27 500.3 -8.27 445.45 24.8 411.93C24.8 411.93 24.8 411.93 24.8 411.93C57.87 378.4 111.98 378.4 145.05 411.93C256.46 524.87 646.42 920.17 702.13 976.64C735.19 1010.16 735.19 1065.02 702.13 1098.53Z" id="a6CBEMqeXV"></path><linearGradient id="gradientb1NATWZYuZ" gradientUnits="userSpaceOnUse" x1="702.13" y1="1098.53" x2="24.8" y2="411.93"><stop style="stop-color: #ff5c33;stop-opacity: 1" offset="0%"></stop><stop style="stop-color: #ffb627;stop-opacity: 1" offset="100%"></stop></linearGradient><path d="M619.85 1279.63C619.85 1279.63 619.85 1279.63 619.85 1279.63C601.75 1297.98 572.13 1297.98 554.03 1279.63C529.4 1254.66 332.37 1054.92 307.73 1029.96C289.63 1011.6 289.63 981.57 307.73 963.23C307.73 963.23 307.73 963.23 307.73 963.23C325.84 944.88 355.45 944.88 373.56 963.23C422.82 1013.16 595.22 1187.94 619.85 1212.91C637.96 1231.24 637.96 1261.28 619.85 1279.63Z" id="fS5LPgNdb"></path><linearGradient id="gradientilHfC4ChV" gradientUnits="userSpaceOnUse" x1="619.85" y1="1279.63" x2="307.73" y2="963.23"><stop style="stop-color: #ffca1e;stop-opacity: 1" offset="0%"></stop><stop style="stop-color: #ffca1e;stop-opacity: 1" offset="100%"></stop></linearGradient><path d="M1098.83 745.04C1098.83 745.04 1098.83 745.04 1098.83 745.04C1080.74 763.39 1051.11 763.39 1033.01 745.04C1008.38 720.07 811.34 520.33 786.71 495.36C768.61 477.01 768.61 446.99 786.71 428.64C786.71 428.64 786.71 428.64 786.71 428.64C804.81 410.29 834.44 410.29 852.53 428.64C901.8 478.57 1074.21 653.35 1098.83 678.31C1116.94 696.67 1116.94 726.69 1098.83 745.04Z" id="c4lIRAYrZJ"></path><linearGradient id="gradientb3K4ybCmMk" gradientUnits="userSpaceOnUse" x1="1098.83" y1="745.04" x2="786.71" y2="428.64"><stop style="stop-color: #ff7f47;stop-opacity: 1" offset="0%"></stop><stop style="stop-color: #ffca1e;stop-opacity: 1" offset="100%"></stop></linearGradient><path d="M723.94 577.59C731.55 569.86 743.91 569.86 751.53 577.58C754.86 580.96 781.48 607.93 784.8 611.31C792.42 619.03 792.42 631.56 784.8 639.28C784.8 639.28 784.8 639.28 784.8 639.28C777.18 647.01 764.83 647.01 757.21 639.28C754.99 637.03 733.18 614.89 723.93 605.55C714.69 596.22 718.86 582.74 723.94 577.59C723.94 577.59 723.94 577.59 723.94 577.59Z" id="a2j1tz53e"></path><path d="M1183.56 376.5C1191.19 368.77 1203.54 368.77 1211.16 376.49C1214.49 379.87 1241.1 406.85 1244.43 410.23C1252.05 417.95 1252.05 430.47 1244.42 438.2C1244.42 438.2 1244.42 438.2 1244.42 438.2C1236.8 445.93 1224.45 445.93 1216.84 438.2C1214.62 435.95 1193.52 415.18 1183.56 404.47C1173.6 393.76 1178.48 381.65 1183.56 376.5C1183.56 376.5 1183.56 376.5 1183.56 376.5Z" id="cloZ2cKLp"></path><path d="M240.12 857.13C247.74 849.41 260.09 849.41 267.71 857.13C271.04 860.5 297.66 887.49 300.99 890.86C308.61 898.59 308.61 911.11 300.99 918.84C300.99 918.84 300.99 918.84 300.99 918.84C293.37 926.56 281.01 926.56 273.39 918.84C271.18 916.59 253.08 897.27 241.63 885.1C230.18 872.94 235.04 862.28 240.12 857.13C240.12 857.13 240.12 857.13 240.12 857.13Z" id="bmBqqYy89"></path><path d="M1060.89 1113.91C1078.81 1095.75 1107.85 1095.75 1125.77 1113.9C1133.59 1121.84 1196.19 1185.29 1204.01 1193.22C1221.92 1211.39 1221.92 1240.82 1204.01 1258.99C1204.01 1258.99 1204.01 1258.99 1204.01 1258.99C1186.09 1277.15 1157.04 1277.15 1139.12 1258.99C1133.91 1253.7 1081.99 1203.92 1060.89 1179.68C1039.78 1155.44 1048.95 1126.02 1060.89 1113.91C1060.89 1113.91 1060.89 1113.91 1060.89 1113.91Z" id="a3u8a03rQ"></path><path d="M723.42 323.07C731.32 315.06 744.12 315.06 752.02 323.07C755.47 326.56 783.06 354.52 786.51 358.02C794.4 366.02 794.4 379 786.5 387.01C786.5 387.01 786.5 387.01 786.5 387.01C778.61 395.01 765.8 395.01 757.91 387.01C755.61 384.68 734.33 364.38 723.42 352.05C712.52 339.73 718.17 328.41 723.42 323.07C723.42 323.07 723.42 323.07 723.42 323.07Z" id="e9l7cg4ubL"></path><path d="M1241.95 793.68C1241.95 793.68 1241.95 793.68 1241.95 793.68C1228.43 807.38 1206.33 807.38 1192.81 793.68C1174.42 775.03 1027.31 625.91 1008.92 607.26C995.4 593.57 995.4 571.15 1008.92 557.45C1008.92 557.45 1008.92 557.45 1008.92 557.45C1022.43 543.75 1044.55 543.75 1058.07 557.45C1094.84 594.72 1223.56 725.21 1241.95 743.85C1255.47 757.55 1255.47 779.97 1241.95 793.68Z" id="a3YlLBkKf"></path><linearGradient id="gradientbnYXakE4g" gradientUnits="userSpaceOnUse" x1="1241.95" y1="793.68" x2="1008.92" y2="557.45"><stop style="stop-color: #ffa21d;stop-opacity: 1" offset="0%"></stop><stop style="stop-color: #ffca1e;stop-opacity: 1" offset="100%"></stop></linearGradient><path d="M677.67 690.37C677.67 690.37 677.67 690.37 677.67 690.37C655.72 712.62 619.8 712.62 597.85 690.37C560.88 652.88 265.05 353 228.07 315.52C206.13 293.27 206.13 256.86 228.07 234.61C228.07 234.61 228.07 234.61 228.07 234.61C250.03 212.36 285.94 212.36 307.9 234.61C381.85 309.58 640.69 571.97 677.67 609.45C699.62 631.7 699.62 668.11 677.67 690.37Z" id="b2BhJesv0"></path><path d="M724.79 495.18C724.79 495.18 724.79 495.18 724.79 495.18C701.79 518.5 664.14 518.5 641.13 495.18C602.37 455.9 292.33 141.59 253.57 102.29C230.56 78.98 230.56 40.82 253.57 17.49C253.57 17.49 253.57 17.49 253.57 17.49C276.57 -5.83 314.22 -5.83 337.23 17.49C414.74 96.07 686.04 371.09 724.79 410.38C747.8 433.7 747.8 471.86 724.79 495.18Z" id="bj7KFweL5"></path><linearGradient id="gradienti7M55pVnEH" gradientUnits="userSpaceOnUse" x1="724.79" y1="495.18" x2="253.56" y2="17.49"><stop style="stop-color: #ff762f;stop-opacity: 1" offset="0%"></stop><stop style="stop-color: #ffca1e;stop-opacity: 1" offset="100%"></stop></linearGradient><path d="M796.38 86.74C804.27 78.73 817.08 78.73 824.97 86.73C828.42 90.23 856 118.19 859.45 121.68C867.35 129.69 867.34 142.67 859.45 150.67C859.45 150.67 859.45 150.67 859.45 150.67C851.55 158.68 838.76 158.68 830.86 150.68C828.56 148.34 806.52 126.58 796.37 115.71C786.22 104.85 791.11 92.07 796.38 86.74C796.38 86.74 796.38 86.74 796.38 86.74Z" id="a3OiCePNdp"></path><path d="M935.74 330.18C935.74 330.18 935.74 330.18 935.74 330.18C917.63 348.52 888.01 348.52 869.9 330.18C845.27 305.21 648.24 105.46 623.6 80.5C605.5 62.15 605.5 32.12 623.6 13.76C623.6 13.76 623.6 13.76 623.6 13.76C641.71 -4.59 671.33 -4.59 689.44 13.76C738.69 63.7 911.1 238.47 935.74 263.44C953.84 281.79 953.84 311.82 935.74 330.18Z" id="b1ytI8ZINj"></path><linearGradient id="gradientcA6KjOkF" gradientUnits="userSpaceOnUse" x1="935.74" y1="330.18" x2="623.6" y2="13.76"><stop style="stop-color: #ff7f47;stop-opacity: 1" offset="0%"></stop><stop style="stop-color: #ffca1e;stop-opacity: 1" offset="100%"></stop></linearGradient><path d="M767.97 184.13C775.79 192.07 838.39 255.51 846.2 263.44C864.12 281.61 864.12 311.05 846.2 329.22C846.2 329.22 846.2 329.22 846.2 329.22C828.29 347.37 799.24 347.37 781.32 329.22C729.16 276.34 705.6 252.45 710.62 257.54C705.63 252.47 701.37 246.72 697.99 240.46C687.03 220.14 687.4 202.71 699.09 188.13C720.3 161.69 750.05 165.98 767.97 184.13Z" id="b82RD1Y3Vi"></path><linearGradient id="gradientc8iAdjehBf" gradientUnits="userSpaceOnUse" x1="685.45" y1="256.12" x2="859.64" y2="256.12"><stop style="stop-color: #ffca1e;stop-opacity: 1" offset="0%"></stop><stop style="stop-color: #df3e34;stop-opacity: 1" offset="100%"></stop></linearGradient><path d="M1571.87 414.54C1571.87 414.54 1571.87 414.54 1571.87 414.54C1553.77 432.89 1524.14 432.89 1506.04 414.54C1481.41 389.57 1284.37 189.84 1259.74 164.87C1241.64 146.51 1241.64 116.48 1259.74 98.13C1259.74 98.13 1259.74 98.13 1259.74 98.13C1277.85 79.79 1307.47 79.79 1325.58 98.13C1374.83 148.07 1547.24 322.85 1571.87 347.81C1589.98 366.16 1589.98 396.19 1571.87 414.54Z" id="c3eRs3CfGK"></path><linearGradient id="gradientazEfgyDoR" gradientUnits="userSpaceOnUse" x1="1571.87" y1="414.54" x2="1259.74" y2="98.13"><stop style="stop-color: #ff7f47;stop-opacity: 1" offset="0%"></stop><stop style="stop-color: #ffca1e;stop-opacity: 1" offset="100%"></stop></linearGradient><path d="M1337.79 894.27C1345.61 902.2 1408.2 965.65 1416.03 973.57C1433.95 991.74 1433.94 1021.19 1416.03 1039.35C1416.03 1039.35 1416.03 1039.35 1416.03 1039.35C1398.11 1057.51 1369.06 1057.52 1351.14 1039.35C1298.99 986.48 1275.42 962.59 1280.44 967.69C1275.44 962.62 1271.19 956.87 1267.81 950.6C1256.85 930.28 1257.21 912.84 1268.91 898.27C1290.13 871.82 1319.88 876.11 1337.79 894.27Z" id="a854mLdk2"></path><linearGradient id="gradientej4j2AKuC" gradientUnits="userSpaceOnUse" x1="1255.27" y1="966.26" x2="1429.47" y2="966.26"><stop style="stop-color: #ffca1e;stop-opacity: 1" offset="0%"></stop><stop style="stop-color: #df3e34;stop-opacity: 1" offset="100%"></stop></linearGradient><path d="M1213.26 1117.97C1213.26 1117.97 1213.26 1117.97 1213.26 1117.97C1195.15 1136.33 1165.53 1136.33 1147.42 1117.97C1122.79 1093.01 925.76 893.27 901.12 868.3C883.02 849.94 883.02 819.92 901.12 801.57C901.12 801.57 901.12 801.57 901.12 801.57C919.23 783.22 948.86 783.22 966.96 801.57C1016.21 851.5 1188.62 1026.28 1213.26 1051.25C1231.35 1069.6 1231.35 1099.62 1213.26 1117.97Z" id="aPvL0aitM"></path><linearGradient id="gradientamZh4xO8G" gradientUnits="userSpaceOnUse" x1="1213.26" y1="1117.97" x2="901.12" y2="801.57"><stop style="stop-color: #ff7f47;stop-opacity: 1" offset="0%"></stop><stop style="stop-color: #ffca1e;stop-opacity: 1" offset="100%"></stop></linearGradient></defs><g><g><g><use xlink:href="#fnOVJM1ra" opacity="1" fill="url(#gradientf5CoST9y9)"></use><g><use xlink:href="#fnOVJM1ra" opacity="1" fill-opacity="0" stroke="#000000" stroke-width="1" stroke-opacity="0"></use></g></g><g><use xlink:href="#dmwcvuxVX" opacity="1" fill="url(#gradienta134h2C7SI)"></use><g><use xlink:href="#dmwcvuxVX" opacity="1" fill-opacity="0" stroke="#000000" stroke-width="1" stroke-opacity="0"></use></g></g><g><use xlink:href="#b3ZdSzE2aX" opacity="1" fill="url(#gradienta7w76uZuZv)"></use><g><use xlink:href="#b3ZdSzE2aX" opacity="1" fill-opacity="0" stroke="#000000" stroke-width="1" stroke-opacity="0"></use></g></g><g><use xlink:href="#bBig8YEXc" opacity="1" fill="url(#gradientb1CDBCUZuR)"></use><g><use xlink:href="#bBig8YEXc" opacity="1" fill-opacity="0" stroke="#000000" stroke-width="1" stroke-opacity="0"></use></g></g><g><use xlink:href="#a6CBEMqeXV" opacity="1" fill="url(#gradientb1NATWZYuZ)"></use><g><use xlink:href="#a6CBEMqeXV" opacity="1" fill-opacity="0" stroke="#000000" stroke-width="1" stroke-opacity="0"></use></g></g><g><use xlink:href="#fS5LPgNdb" opacity="1" fill="url(#gradientilHfC4ChV)"></use><g><use xlink:href="#fS5LPgNdb" opacity="1" fill-opacity="0" stroke="#000000" stroke-width="1" stroke-opacity="0"></use></g></g><g><use xlink:href="#c4lIRAYrZJ" opacity="1" fill="url(#gradientb3K4ybCmMk)"></use><g><use xlink:href="#c4lIRAYrZJ" opacity="1" fill-opacity="0" stroke="#000000" stroke-width="1" stroke-opacity="0"></use></g></g><g><use xlink:href="#a2j1tz53e" opacity="1" fill="#ffca1e" fill-opacity="1"></use><g><use xlink:href="#a2j1tz53e" opacity="1" fill-opacity="0" stroke="#000000" stroke-width="1" stroke-opacity="0"></use></g></g><g><use xlink:href="#cloZ2cKLp" opacity="1" fill="#fb9400" fill-opacity="1"></use><g><use xlink:href="#cloZ2cKLp" opacity="1" fill-opacity="0" stroke="#000000" stroke-width="1" stroke-opacity="0"></use></g></g><g><use xlink:href="#bmBqqYy89" opacity="1" fill="#ffca1e" fill-opacity="1"></use><g><use xlink:href="#bmBqqYy89" opacity="1" fill-opacity="0" stroke="#000000" stroke-width="1" stroke-opacity="0"></use></g></g><g><use xlink:href="#a3u8a03rQ" opacity="1" fill="#ffca1e" fill-opacity="1"></use><g><use xlink:href="#a3u8a03rQ" opacity="1" fill-opacity="0" stroke="#000000" stroke-width="1" stroke-opacity="0"></use></g></g><g><use xlink:href="#e9l7cg4ubL" opacity="1" fill="#ffca1e" fill-opacity="1"></use><g><use xlink:href="#e9l7cg4ubL" opacity="1" fill-opacity="0" stroke="#000000" stroke-width="1" stroke-opacity="0"></use></g></g><g><use xlink:href="#a3YlLBkKf" opacity="1" fill="url(#gradientbnYXakE4g)"></use><g><use xlink:href="#a3YlLBkKf" opacity="1" fill-opacity="0" stroke="#000000" stroke-width="1" stroke-opacity="0"></use></g></g><g><use xlink:href="#b2BhJesv0" opacity="1" fill="#ffca1e" fill-opacity="1"></use><g><use xlink:href="#b2BhJesv0" opacity="1" fill-opacity="0" stroke="#000000" stroke-width="1" stroke-opacity="0"></use></g></g><g><use xlink:href="#bj7KFweL5" opacity="1" fill="url(#gradienti7M55pVnEH)"></use><g><use xlink:href="#bj7KFweL5" opacity="1" fill-opacity="0" stroke="#000000" stroke-width="1" stroke-opacity="0"></use></g></g><g><use xlink:href="#a3OiCePNdp" opacity="1" fill="#ffca1e" fill-opacity="1"></use><g><use xlink:href="#a3OiCePNdp" opacity="1" fill-opacity="0" stroke="#000000" stroke-width="1" stroke-opacity="0"></use></g></g><g><use xlink:href="#b1ytI8ZINj" opacity="1" fill="url(#gradientcA6KjOkF)"></use><g><use xlink:href="#b1ytI8ZINj" opacity="1" fill-opacity="0" stroke="#000000" stroke-width="1" stroke-opacity="0"></use></g></g><g><use xlink:href="#b82RD1Y3Vi" opacity="1" fill="url(#gradientc8iAdjehBf)"></use><g><use xlink:href="#b82RD1Y3Vi" opacity="1" fill-opacity="0" stroke="#000000" stroke-width="1" stroke-opacity="0"></use></g></g><g><use xlink:href="#c3eRs3CfGK" opacity="1" fill="url(#gradientazEfgyDoR)"></use><g><use xlink:href="#c3eRs3CfGK" opacity="1" fill-opacity="0" stroke="#000000" stroke-width="1" stroke-opacity="0"></use></g></g><g><use xlink:href="#a854mLdk2" opacity="1" fill="url(#gradientej4j2AKuC)"></use><g><use xlink:href="#a854mLdk2" opacity="1" fill-opacity="0" stroke="#000000" stroke-width="1" stroke-opacity="0"></use></g></g><g><use xlink:href="#aPvL0aitM" opacity="1" fill="url(#gradientamZh4xO8G)"></use><g><use xlink:href="#aPvL0aitM" opacity="1" fill-opacity="0" stroke="#000000" stroke-width="1" stroke-opacity="0"></use></g></g></g></g></svg>