<?xml version="1.0" encoding="utf-8"?>
<!DOCTYPE svg PUBLIC "-//W3C//DTD SVG 1.1//EN" "http://www.w3.org/Graphics/SVG/1.1/DTD/svg11.dtd">
<svg version="1.1" xmlns="http://www.w3.org/2000/svg" xmlns:xlink="http://www.w3.org/1999/xlink" x="0px" y="0px" viewBox="0 0 1000 1000" enable-background="new 0 0 1000 1000" xml:space="preserve">
<path d="M846.5,153.5c-191.4-191.4-501.6-191.4-693,0c-191.4,191.4-191.4,501.6,0,693c191.4,191.4,501.6,191.4,693,0C1037.8,655.1,1037.8,344.9,846.5,153.5L846.5,153.5z M618.7,717.7L500,599L381.2,717.7c-27.4,27.4-71.8,27.3-99,0c-27.3-27.3-27.3-71.7,0-99L401,500L282.3,381.2c-27.4-27.4-27.3-71.8,0-99c27.3-27.3,71.7-27.3,99,0L500,401l118.7-118.7c27.4-27.4,71.8-27.3,99,0c27.3,27.3,27.3,71.7,0,99L599,500l118.7,118.7c27.4,27.4,27.3,71.8,0,99C690.5,745.1,646.1,745.1,618.7,717.7L618.7,717.7z"/>
</svg>