<?xml version="1.0" encoding="iso-8859-1"?>
<!-- Generator: Adobe Illustrator 18.0.0, SVG Export Plug-In . SVG Version: 6.00 Build 0)  -->
<!DOCTYPE svg PUBLIC "-//W3C//DTD SVG 1.1//EN" "http://www.w3.org/Graphics/SVG/1.1/DTD/svg11.dtd">
<svg version="1.1" id="Capa_1" xmlns="http://www.w3.org/2000/svg" xmlns:xlink="http://www.w3.org/1999/xlink" x="0px" y="0px"
	 viewBox="0 0 1000 1000" style="enable-background:new 0 0 469.863 469.863;" xml:space="preserve">
<g>
  <path d="M433 45c50 134 24 207-32 265-61 64-156 112-223 206-89 125-104 400 217 472-135-71-164-277-18-406-38 125 32 205 119 176 85-29 141 32 139 102-1 48-20 89-69 112 209-37 293-210 293-342 0-174-155-198-77-344-93 8-125 69-116 169 6 66-63 111-114 81-41-25-40-73-4-109 77-76 107-251-115-382z"/>
</g>
<g>
</g>
<g>
</g>
<g>
</g>
<g>
</g>
<g>
</g>
<g>
</g>
<g>
</g>
<g>
</g>
<g>
</g>
<g>
</g>
<g>
</g>
<g>
</g>
<g>
</g>
<g>
</g>
<g>
</g>
</svg>
