<svg version="1.1" xmlns="http://www.w3.org/2000/svg" xmlns:xlink="http://www.w3.org/1999/xlink" preserveAspectRatio="xMidYMid meet" viewBox="0 0 200 200">
    <defs>
        <path d="M95.68 23.4L96.69 23.41L97.69 23.42L98.68 23.44L99.66 23.46L100.62 23.48L101.57 23.51L102.51 23.54L103.43 23.57L104.34 23.61L105.25 23.65L106.13 23.7L107.01 23.75L107.87 23.8L108.72 23.86L109.56 23.92L110.39 23.98L111.2 24.05L112 24.12L112.79 24.2L113.57 24.28L114.34 24.36L115.09 24.44L115.83 24.53L116.55 24.63L117.27 24.72L117.97 24.82L118.66 24.93L119.34 25.04L120 25.15L120.66 25.26L121.3 25.38L121.92 25.5L122.54 25.63L123.14 25.76L123.73 25.89L124.31 26.03L124.88 26.17L125.43 26.32L126.16 26.52L126.89 26.73L127.61 26.95L128.33 27.17L129.04 27.41L129.75 27.65L130.45 27.9L131.15 28.15L131.84 28.42L132.52 28.69L133.2 28.97L133.88 29.25L134.55 29.55L135.21 29.85L135.87 30.16L136.52 30.48L137.17 30.81L137.82 31.14L138.45 31.48L139.09 31.83L139.71 32.19L140.34 32.55L140.95 32.92L141.56 33.3L142.17 33.69L142.77 34.09L143.37 34.49L143.96 34.9L144.54 35.32L145.12 35.74L145.7 36.18L146.27 36.62L146.83 37.07L147.39 37.52L147.94 37.99L148.49 38.46L149.03 38.94L149.57 39.43L150.1 39.92L150.63 40.43L151.15 40.94L151.67 41.45L152.18 41.97L152.68 42.5L153.18 43.03L153.67 43.57L154.15 44.11L154.63 44.66L155.1 45.22L155.56 45.78L156.02 46.35L156.47 46.92L156.92 47.5L157.36 48.08L157.79 48.67L158.22 49.26L158.64 49.87L159.06 50.47L159.47 51.08L159.87 51.7L160.26 52.32L160.65 52.95L161.04 53.59L161.41 54.23L161.78 54.87L162.15 55.53L162.51 56.18L162.86 56.85L163.21 57.52L163.55 58.19L163.88 58.87L164.21 59.56L164.53 60.25L164.84 60.95L165.15 61.65L165.45 62.36L165.75 63.07L166.04 63.79L166.32 64.52L166.6 65.25L166.87 65.99L167.13 66.73L167.39 67.49L167.64 68.25L167.88 69.03L168.11 69.81L168.34 70.6L168.57 71.4L168.78 72.2L168.99 73.02L169.19 73.84L169.39 74.68L169.57 75.52L169.76 76.37L169.93 77.23L170.1 78.09L170.26 78.97L170.41 79.85L170.56 80.74L170.7 81.65L170.83 82.55L170.96 83.47L171.08 84.4L171.19 85.34L171.3 86.28L171.4 87.23L171.49 88.19L171.58 89.16L171.66 90.14L171.73 91.13L171.79 92.12L171.85 93.13L171.9 94.14L171.95 95.16L171.98 96.19L172.01 97.23L172.04 98.27L172.06 99.33L172.07 100.39L172.07 101.46L172.07 102.41L172.06 103.34L172.04 104.27L172.02 105.19L171.99 106.11L171.95 107.02L171.91 107.92L171.86 108.82L171.81 109.71L171.75 110.6L171.68 111.47L171.61 112.34L171.53 113.21L171.44 114.07L171.35 114.92L171.25 115.76L171.14 116.6L171.03 117.43L170.91 118.26L170.79 119.07L170.65 119.89L170.52 120.69L170.37 121.49L170.22 122.28L170.06 123.07L169.9 123.85L169.73 124.62L169.55 125.39L169.37 126.15L169.18 126.9L168.99 127.65L168.78 128.39L168.58 129.12L168.36 129.85L168.14 130.57L167.91 131.28L167.68 131.99L167.44 132.69L167.19 133.38L166.94 134.07L166.62 134.9L166.3 135.73L165.97 136.54L165.63 137.35L165.29 138.15L164.94 138.95L164.58 139.73L164.21 140.51L163.84 141.27L163.47 142.03L163.08 142.79L162.69 143.53L162.3 144.27L161.89 145L161.48 145.72L161.06 146.43L160.64 147.13L160.21 147.83L159.77 148.52L159.33 149.2L158.88 149.87L158.42 150.54L157.95 151.2L157.48 151.84L157.01 152.48L156.52 153.12L156.03 153.74L155.53 154.36L155.03 154.97L154.52 155.57L154 156.16L153.47 156.75L152.94 157.32L152.41 157.89L151.86 158.45L151.31 159.01L150.75 159.55L150.19 160.09L149.62 160.62L149.04 161.14L148.59 161.53L148.14 161.92L147.69 162.3L147.22 162.67L146.75 163.05L146.26 163.41L145.78 163.78L145.28 164.14L144.77 164.49L144.26 164.84L143.74 165.19L143.21 165.53L142.68 165.87L142.14 166.21L141.59 166.53L141.03 166.86L140.46 167.18L139.89 167.5L139.31 167.81L138.72 168.12L138.12 168.42L137.52 168.72L136.9 169.02L136.28 169.31L135.66 169.59L135.02 169.87L134.38 170.15L133.73 170.43L133.07 170.69L132.4 170.96L131.73 171.22L131.05 171.48L130.36 171.73L129.66 171.97L128.96 172.22L128.24 172.46L127.52 172.69L126.8 172.92L126.06 173.15L125.32 173.37L124.75 173.53L124.18 173.69L123.6 173.84L123.01 173.99L122.41 174.13L121.8 174.27L121.18 174.4L120.55 174.54L119.91 174.66L119.26 174.79L118.6 174.91L117.94 175.02L117.26 175.13L116.57 175.24L115.88 175.34L115.17 175.44L114.46 175.54L113.74 175.63L113 175.72L112.26 175.8L111.51 175.88L110.75 175.95L109.98 176.02L109.2 176.09L108.41 176.15L107.61 176.21L106.8 176.27L105.99 176.32L105.16 176.36L104.32 176.41L103.48 176.45L102.62 176.48L101.76 176.51L100.88 176.54L100 176.56L99.11 176.58L98.21 176.59L97.3 176.6L96.37 176.61L95.44 176.61L31.93 176.61L31.93 23.39L93.62 23.39L94.66 23.39L95.68 23.4ZM65.66 150.65L90.91 150.65L91.61 150.65L92.31 150.64L92.99 150.64L93.66 150.63L94.33 150.63L94.98 150.62L95.63 150.6L96.26 150.59L96.89 150.57L97.5 150.56L98.11 150.54L98.7 150.52L99.29 150.49L99.86 150.47L100.43 150.44L100.98 150.41L101.53 150.38L102.06 150.35L102.59 150.32L103.11 150.28L103.61 150.25L104.11 150.21L104.6 150.17L105.07 150.12L105.54 150.08L106 150.03L106.44 149.98L106.88 149.93L107.31 149.88L107.73 149.83L108.13 149.77L108.53 149.71L108.92 149.65L109.3 149.59L109.67 149.53L110.03 149.47L110.37 149.4L110.71 149.33L111.04 149.26L111.36 149.19L111.77 149.09L112.18 148.99L112.58 148.89L112.98 148.79L113.37 148.68L113.77 148.57L114.15 148.45L114.54 148.33L114.92 148.21L115.3 148.09L115.67 147.96L116.04 147.83L116.41 147.69L116.78 147.55L117.14 147.41L117.49 147.27L117.85 147.12L118.2 146.97L118.54 146.82L118.89 146.66L119.23 146.5L119.56 146.33L119.89 146.17L120.22 146L120.55 145.82L120.87 145.65L121.19 145.46L121.5 145.28L121.82 145.09L122.12 144.9L122.43 144.71L122.73 144.51L123.03 144.31L123.32 144.11L123.61 143.9L123.9 143.69L124.18 143.48L124.46 143.27L124.74 143.05L125.01 142.82L125.28 142.6L125.55 142.36L125.82 142.12L126.08 141.87L126.34 141.61L126.6 141.35L126.85 141.08L127.1 140.8L127.35 140.51L127.6 140.22L127.85 139.92L128.09 139.61L128.33 139.3L128.57 138.97L128.8 138.64L129.04 138.31L129.27 137.96L129.49 137.61L129.72 137.26L129.94 136.89L130.16 136.52L130.38 136.14L130.59 135.75L130.81 135.36L131.02 134.95L131.22 134.55L131.43 134.13L131.63 133.71L131.83 133.28L132.03 132.84L132.22 132.39L132.42 131.94L132.61 131.48L132.79 131.01L132.98 130.54L133.16 130.06L133.34 129.57L133.52 129.07L133.69 128.57L133.87 128.06L134.04 127.54L134.2 127.02L134.36 126.48L134.52 125.93L134.67 125.38L134.82 124.81L134.96 124.24L135.1 123.65L135.24 123.06L135.37 122.46L135.49 121.85L135.62 121.23L135.73 120.6L135.85 119.96L135.96 119.31L136.06 118.65L136.16 117.98L136.26 117.3L136.35 116.62L136.44 115.92L136.52 115.22L136.6 114.5L136.68 113.78L136.75 113.05L136.81 112.3L136.88 111.55L136.93 110.79L136.99 110.02L137.04 109.24L137.08 108.45L137.12 107.65L137.16 106.85L137.19 106.03L137.22 105.2L137.24 104.37L137.26 103.52L137.28 102.67L137.29 101.81L137.29 100.93L137.3 100.05L137.29 99.17L137.29 98.3L137.28 97.44L137.26 96.59L137.24 95.75L137.22 94.92L137.19 94.1L137.16 93.29L137.12 92.49L137.08 91.7L137.04 90.92L136.99 90.15L136.93 89.4L136.88 88.65L136.81 87.91L136.75 87.18L136.68 86.47L136.6 85.76L136.52 85.06L136.44 84.38L136.35 83.7L136.26 83.04L136.16 82.38L136.06 81.74L135.96 81.1L135.85 80.48L135.73 79.87L135.62 79.26L135.49 78.67L135.37 78.09L135.24 77.51L135.1 76.95L134.96 76.4L134.82 75.86L134.67 75.33L134.52 74.81L134.36 74.29L134.2 73.79L134.04 73.3L133.87 72.82L133.69 72.35L133.52 71.88L133.34 71.42L133.15 70.97L132.97 70.52L132.78 70.07L132.58 69.63L132.39 69.19L132.19 68.76L131.98 68.34L131.77 67.92L131.56 67.5L131.35 67.09L131.13 66.69L130.91 66.29L130.69 65.9L130.46 65.51L130.23 65.12L129.99 64.75L129.76 64.37L129.51 64.01L129.27 63.64L129.02 63.29L128.77 62.93L128.51 62.59L128.25 62.25L127.99 61.91L127.73 61.58L127.46 61.25L127.18 60.93L126.91 60.62L126.63 60.3L126.35 60L126.06 59.7L125.77 59.4L125.48 59.12L125.18 58.83L124.88 58.55L124.58 58.28L124.27 58.01L123.96 57.74L123.65 57.49L123.33 57.23L123 56.98L122.68 56.73L122.35 56.49L122.01 56.25L121.67 56.02L121.33 55.79L120.98 55.56L120.63 55.34L120.27 55.13L119.91 54.91L119.55 54.71L119.18 54.5L118.81 54.3L118.43 54.11L118.05 53.92L117.66 53.73L117.27 53.55L116.88 53.37L116.48 53.2L116.08 53.03L115.67 52.86L115.26 52.7L114.85 52.55L114.43 52.4L114.01 52.25L113.58 52.1L113.15 51.97L112.72 51.83L112.28 51.7L111.84 51.57L111.39 51.45L110.94 51.33L110.48 51.22L110.02 51.11L109.56 51.01L109.09 50.91L108.62 50.81L108.26 50.74L107.88 50.67L107.48 50.6L107.07 50.53L106.63 50.47L106.19 50.41L105.72 50.35L105.24 50.29L104.74 50.23L104.23 50.17L103.69 50.12L103.14 50.07L102.58 50.02L101.99 49.97L101.39 49.92L100.78 49.88L100.14 49.83L99.49 49.79L98.82 49.75L98.14 49.72L97.43 49.68L96.71 49.65L95.98 49.62L95.22 49.58L94.45 49.56L93.66 49.53L92.86 49.51L92.04 49.48L91.2 49.46L90.34 49.44L89.47 49.42L88.58 49.41L87.68 49.4L86.75 49.38L85.81 49.37L84.86 49.37L83.88 49.36L82.89 49.35L81.88 49.35L80.86 49.35L65.66 49.35L65.66 150.65Z" id="b1B0YNKg8E"></path>
    </defs>
        <rect rx="35" height="200" width="200"/>
        <use xlink:href="#b1B0YNKg8E" fill="#ffffff"></use>
</svg>