<?xml version="1.0" encoding="UTF-8" standalone="no"?>
<!DOCTYPE svg PUBLIC "-//W3C//DTD SVG 1.1//EN" "http://www.w3.org/Graphics/SVG/1.1/DTD/svg11.dtd">
<svg version="1.1" xmlns="http://www.w3.org/2000/svg" xmlns:xlink="http://www.w3.org/1999/xlink" preserveAspectRatio="xMidYMid meet" viewBox="0 0 320 360" width="320" height="360"><defs><path d="M46.14 1.29C49.9 -0.57 54.36 -0.41 57.98 1.73C109.29 32 255.65 118.35 306.52 148.37C310.14 150.5 310.14 155.73 306.53 157.86C266.27 181.71 153.39 248.57 113.1 272.43C109.62 274.49 105.21 271.98 105.21 267.93C105.21 259.46 105.21 242.57 105.21 233.94C105.21 228.75 107.91 223.94 112.34 221.24C134.7 207.61 195.35 170.66 217.88 156.93C220.7 155.21 220.65 151.1 217.79 149.46C174.16 124.43 49.17 52.73 5.43 27.63C2.96 26.21 3.07 22.62 5.62 21.36C14.93 16.75 36.84 5.9 46.14 1.29Z" id="bIKxThOjl"></path><linearGradient id="gradiente9npB25Kz" gradientUnits="userSpaceOnUse" x1="221.36" y1="152.43" x2="107.08" y2="273.17"><stop style="stop-color: #ffca1e;stop-opacity: 1" offset="0%"></stop><stop style="stop-color: #ff8d00;stop-opacity: 1" offset="100%"></stop></linearGradient><path d="M8.12 338.01C3.21 335.59 0.11 330.59 0.11 325.12C0.08 264.84 0.02 92.07 0 31.57C0 28.07 3.78 25.88 6.82 27.62C50.26 52.56 173.66 123.41 217.07 148.34C220.2 150.13 220.26 154.62 217.19 156.5C211.06 160.26 202.14 165.73 196.67 169.08C190.4 172.93 182.54 173.11 176.1 169.56C151.19 155.83 83.97 118.8 58.33 104.67C55.28 102.99 51.55 105.2 51.55 108.68C51.6 158.87 51.74 297.97 51.79 347.23C51.8 352.92 45.82 356.64 40.72 354.12C32.6 350.1 16.85 342.33 8.12 338.01Z" id="gEf9SbGI4"></path><linearGradient id="gradientc7pNC1orn" gradientUnits="userSpaceOnUse" x1="50.57" y1="104.13" x2="217.5" y2="152.93"><stop style="stop-color: #fec61d;stop-opacity: 1" offset="0%"></stop><stop style="stop-color: #ff8d00;stop-opacity: 1" offset="100%"></stop></linearGradient><path d="M315.17 196.45C315.17 201.31 312.6 205.82 308.41 208.29C257.16 238.49 111.84 324.14 61.01 354.1C57.1 356.4 52.16 353.59 52.15 349.05C52.05 299.38 51.74 157.83 51.64 107.46C51.63 104.42 54.89 102.49 57.56 103.96C67.08 109.23 88.05 120.83 97.16 125.87C102.11 128.6 105.17 133.81 105.17 139.46C105.17 166.83 105.17 239.23 105.17 266.46C105.17 270.81 109.9 273.51 113.65 271.3C153.95 247.5 266.11 181.27 306.35 157.52C310.25 155.21 315.17 158.02 315.17 162.56C315.17 170.9 315.17 187.62 315.17 196.45Z" id="b5njXkxlRM"></path><linearGradient id="gradienta5rxCMVTZH" gradientUnits="userSpaceOnUse" x1="106.03" y1="222.75" x2="49.93" y2="103.46"><stop style="stop-color: #ffc91e;stop-opacity: 1" offset="0%"></stop><stop style="stop-color: #ff8d00;stop-opacity: 1" offset="100%"></stop></linearGradient></defs><g><g><g><use xlink:href="#bIKxThOjl" opacity="1" fill="url(#gradiente9npB25Kz)"></use><g><use xlink:href="#bIKxThOjl" opacity="1" fill-opacity="0" stroke="#000000" stroke-width="2" stroke-opacity="1"></use></g></g><g><use xlink:href="#gEf9SbGI4" opacity="1" fill="url(#gradientc7pNC1orn)"></use><g><use xlink:href="#gEf9SbGI4" opacity="1" fill-opacity="0" stroke="#000000" stroke-width="2" stroke-opacity="1"></use></g></g><g><use xlink:href="#b5njXkxlRM" opacity="1" fill="url(#gradienta5rxCMVTZH)"></use><g><use xlink:href="#b5njXkxlRM" opacity="1" fill-opacity="0" stroke="#000000" stroke-width="2" stroke-opacity="1"></use></g></g></g></g></svg>