<?xml version="1.0" encoding="utf-8"?>
<!-- Svg Vector Icons : http://www.onlinewebfonts.com/icon -->
<!DOCTYPE svg PUBLIC "-//W3C//DTD SVG 1.1//EN" "http://www.w3.org/Graphics/SVG/1.1/DTD/svg11.dtd">
<svg version="1.1" xmlns="http://www.w3.org/2000/svg" xmlns:xlink="http://www.w3.org/1999/xlink" x="0px" y="0px" viewBox="0 0 1000 1000" enable-background="new 0 0 1000 1000" xml:space="preserve">
<metadata> Svg Vector Icons : http://www.onlinewebfonts.com/icon </metadata>
<g><g transform="translate(0.000000,128.000000) scale(0.100000,-0.100000)"><path d="M4587.8,441.1c-202.2-404.5-365.6-754.5-365.6-777.8c0-23.3,350-38.9,777.8-38.9c427.8,0,777.8,15.6,777.8,38.9c0,77.8-738.9,1516.7-777.8,1516.7C4976.7,1180,4790,845.6,4587.8,441.1z"/><path d="M1515.6-305.6c23.3-62.2,155.6-451.1,295.5-878.9l248.9-762.2l575.5,567.8c318.9,318.9,575.6,575.5,575.6,583.3c0,7.8-342.2,132.2-754.5,272.2c-420,132.2-808.9,264.4-871.1,287.8C1515.6-204.4,1484.4-235.6,1515.6-305.6z"/><path d="M7613.3-500c-420-140-777.8-272.2-793.3-287.8c-15.6-15.6,233.3-280,544.4-591.1l575.5-567.8l248.9,762.2c140,427.8,272.2,816.7,295.5,871.1C8531.1-188.9,8500-188.9,7613.3-500z"/><path d="M4541.1-1013.3c-528.9-77.8-1260-466.7-1578.9-832.2c-132.2-147.8-342.2-497.8-474.4-770c-591.1-1267.8-62.2-2838.9,1174.4-3500c855.6-458.9,1812.2-458.9,2660-7.8c567.8,303.4,878.9,637.8,1182.2,1291.2c194.5,412.2,233.3,591.1,233.3,1104.4c0,528.9-31.1,692.2-225.6,1112.2c-303.3,653.3-614.4,995.5-1166.7,1291.1c-396.6,210-583.3,264.5-1228.9,357.8C5031.1-951.1,4774.5-974.5,4541.1-1013.3z"/><path d="M823.3-3315.5C426.7-3517.8,100-3696.7,100-3720c0-38.9,1438.9-777.8,1516.7-777.8c23.3,0,38.9,350,38.9,777.8c0,427.8-23.3,777.8-54.5,770C1562.2-2950,1212.2-3113.3,823.3-3315.5z"/><path d="M8344.4-3720c0-427.8,15.6-777.8,38.9-777.8c77.8,0,1516.7,738.9,1516.7,777.8s-1438.9,777.8-1516.7,777.8C8360-2942.2,8344.4-3292.2,8344.4-3720z"/><path d="M1780-6333.3c-155.6-458.9-264.4-847.8-256.7-863.4c23.4-23.3,1610,497.8,1656.7,544.4c15.5,15.6-233.3,280-544.4,591.2L2060-5493.3L1780-6333.3z"/><path d="M7341.1-6084.5L6773.3-6660l840-280c458.9-155.6,847.8-264.4,863.4-256.7c23.3,23.3-497.8,1610-544.4,1656.6C7916.7-5524.5,7652.2-5773.4,7341.1-6084.5z"/><path d="M4222.2-7103.3c0-77.8,738.9-1516.7,777.8-1516.7s777.8,1438.9,777.8,1516.7c0,23.3-350,38.9-777.8,38.9C4572.2-7064.4,4222.2-7080,4222.2-7103.3z"/></g></g>
</svg>