<?xml version="1.0" encoding="utf-8"?>
<!-- Generator: Adobe Illustrator 16.0.0, SVG Export Plug-In . SVG Version: 6.00 Build 0)  -->
<!DOCTYPE svg PUBLIC "-//W3C//DTD SVG 1.0//EN" "http://www.w3.org/TR/2001/REC-SVG-20010904/DTD/svg10.dtd">
<svg version="1.0" id="Layer_1" xmlns="http://www.w3.org/2000/svg" xmlns:xlink="http://www.w3.org/1999/xlink" x="0px" y="0px"
	 width="1700px" height="1700px" viewBox="-50 -250 1700 1700" enable-background="new -50 -250 1700 1700" xml:space="preserve">
<g>
	<g>
		<g opacity="0.11">
			<polygon opacity="0.23" enable-background="new    " points="31.193,1366.078 -206.346,1128.537 -206.346,1154.809 
				4.923,1366.078 			"/>
			<polygon opacity="0.23" enable-background="new    " points="203.013,1366.078 -206.346,956.717 -206.346,982.988 
				176.744,1366.078 			"/>
			<polygon opacity="0.23" enable-background="new    " points="374.833,1366.078 -206.346,784.897 -206.346,811.167 
				348.563,1366.078 			"/>
			<polygon opacity="0.23" enable-background="new    " points="546.653,1366.078 -206.346,613.078 -206.346,639.348 
				520.383,1366.078 			"/>
			<polygon opacity="0.23" enable-background="new    " points="718.473,1366.078 -206.346,441.257 -206.346,467.527 
				692.203,1366.078 			"/>
			<polygon opacity="0.23" enable-background="new    " points="890.293,1366.078 -206.346,269.437 -206.346,295.707 
				864.023,1366.078 			"/>
			<polygon opacity="0.23" enable-background="new    " points="1062.113,1366.078 -206.346,97.617 -206.346,123.886 
				1035.844,1366.078 			"/>
			<polygon opacity="0.23" enable-background="new    " points="1233.934,1366.078 -206.346,-74.204 -206.346,-47.934 
				1207.663,1366.078 			"/>
			<polygon opacity="0.23" enable-background="new    " points="1405.754,1366.078 -84.604,-124.279 -110.872,-124.279 
				1379.483,1366.078 			"/>
			<polygon opacity="0.23" enable-background="new    " points="1577.573,1366.078 87.217,-124.279 60.948,-124.279 
				1551.304,1366.078 			"/>
			<polygon opacity="0.23" enable-background="new    " points="1749.394,1366.078 259.038,-124.279 232.769,-124.279 
				1723.124,1366.078 			"/>
			<polygon opacity="0.23" enable-background="new    " points="1764.547,1209.411 430.855,-124.279 404.589,-124.279 
				1764.547,1235.68 			"/>
			<polygon opacity="0.23" enable-background="new    " points="1764.547,1037.591 602.675,-124.279 576.407,-124.279 
				1764.547,1063.859 			"/>
			<polygon opacity="0.23" enable-background="new    " points="1764.547,865.771 774.495,-124.279 748.227,-124.279 
				1764.547,892.04 			"/>
			<polygon opacity="0.23" enable-background="new    " points="1764.547,693.951 946.315,-124.279 920.049,-124.279 
				1764.547,720.22 			"/>
			<polygon opacity="0.23" enable-background="new    " points="1764.547,522.131 1118.136,-124.279 1091.867,-124.279 
				1764.547,548.4 			"/>
			<polygon opacity="0.23" enable-background="new    " points="1764.547,350.311 1289.956,-124.279 1263.688,-124.279 
				1764.547,376.58 			"/>
			<polygon opacity="0.23" enable-background="new    " points="1764.547,178.491 1461.775,-124.279 1435.507,-124.279 
				1764.547,204.759 			"/>
			<polygon opacity="0.23" enable-background="new    " points="1764.547,6.67 1633.596,-124.279 1607.327,-124.279 
				1764.547,32.939 			"/>
		</g>
		<g opacity="0.11">
			<polygon opacity="0.23" enable-background="new    " points="72.992,1324.279 -164.548,1086.741 -164.548,1113.01 
				46.722,1324.279 			"/>
			<polygon opacity="0.23" enable-background="new    " points="244.812,1324.279 -164.548,914.921 -164.548,941.189 
				218.542,1324.279 			"/>
			<polygon opacity="0.23" enable-background="new    " points="416.63,1324.279 -164.548,743.1 -164.548,769.369 390.362,1324.279 
							"/>
			<polygon opacity="0.23" enable-background="new    " points="588.45,1324.279 -164.548,571.28 -164.548,597.549 
				562.182,1324.279 			"/>
			<polygon opacity="0.23" enable-background="new    " points="760.271,1324.279 -164.548,399.46 -164.548,425.729 
				734.002,1324.279 			"/>
			<polygon opacity="0.23" enable-background="new    " points="932.092,1324.279 -164.548,227.639 -164.548,253.908 
				905.822,1324.279 			"/>
			<polygon opacity="0.23" enable-background="new    " points="1103.912,1324.279 -164.548,55.819 -164.548,82.088 
				1077.642,1324.279 			"/>
			<polygon opacity="0.23" enable-background="new    " points="1275.731,1324.279 -164.548,-116.001 -164.548,-89.732 
				1249.462,1324.279 			"/>
			<polygon opacity="0.23" enable-background="new    " points="1447.552,1324.279 -42.806,-166.078 -69.075,-166.078 
				1421.282,1324.279 			"/>
			<polygon opacity="0.23" enable-background="new    " points="1619.372,1324.279 129.014,-166.078 102.746,-166.078 
				1593.103,1324.279 			"/>
			<polygon opacity="0.23" enable-background="new    " points="1791.192,1324.279 300.835,-166.078 274.566,-166.078 
				1764.922,1324.279 			"/>
			<polygon opacity="0.23" enable-background="new    " points="1806.346,1167.612 472.655,-166.078 446.386,-166.078 
				1806.346,1193.881 			"/>
			<polygon opacity="0.23" enable-background="new    " points="1806.346,995.792 644.475,-166.078 618.205,-166.078 
				1806.346,1022.062 			"/>
			<polygon opacity="0.23" enable-background="new    " points="1806.346,823.973 816.295,-166.078 790.025,-166.078 
				1806.346,850.241 			"/>
			<polygon opacity="0.23" enable-background="new    " points="1806.346,652.152 988.115,-166.078 961.846,-166.078 
				1806.346,678.422 			"/>
			<polygon opacity="0.23" enable-background="new    " points="1806.346,480.332 1159.935,-166.078 1133.666,-166.078 
				1806.346,506.602 			"/>
			<polygon opacity="0.23" enable-background="new    " points="1806.346,308.512 1331.754,-166.078 1305.485,-166.078 
				1806.346,334.782 			"/>
			<polygon opacity="0.23" enable-background="new    " points="1806.346,136.692 1503.574,-166.078 1477.306,-166.078 
				1806.346,162.962 			"/>
			<polygon opacity="0.23" enable-background="new    " points="1806.346,-35.128 1675.395,-166.078 1649.126,-166.078 
				1806.346,-8.858 			"/>
		</g>
	</g>
	<g>
		
			<linearGradient id="SVGID_1_" gradientUnits="userSpaceOnUse" x1="-2378.8203" y1="-288.7969" x2="-1459.4121" y2="-288.7969" gradientTransform="matrix(-0.7071 -0.7071 -0.7071 0.7071 -391.9014 -212.4202)">
			<stop  offset="0" style="stop-color:#661DFF"/>
			<stop  offset="0.2123" style="stop-color:#8227F2"/>
			<stop  offset="0.6671" style="stop-color:#C842D1"/>
			<stop  offset="1" style="stop-color:#FF57B7"/>
		</linearGradient>
		<path fill="url(#SVGID_1_)" d="M959.675,615.322l534.697,534.699c31.739,31.738,31.739,83.677,0,115.414l0,0
			c-31.739,31.74-83.676,31.74-115.416,0L844.259,730.737c-31.739-31.738-31.739-83.677,0-115.415h0.001
			C875.999,583.583,927.936,583.583,959.675,615.322z"/>
		
			<linearGradient id="SVGID_2_" gradientUnits="userSpaceOnUse" x1="-1272.2207" y1="-286.6836" x2="-661.9424" y2="-286.6836" gradientTransform="matrix(-0.7071 -0.7071 -0.7071 0.7071 -391.9014 -212.4202)">
			<stop  offset="0" style="stop-color:#661DFF"/>
			<stop  offset="0.2123" style="stop-color:#8227F2"/>
			<stop  offset="0.6671" style="stop-color:#C842D1"/>
			<stop  offset="1" style="stop-color:#FF57B7"/>
		</linearGradient>
		<path fill="url(#SVGID_2_)" d="M355.482,52.925L710.4,407.844c21.067,21.067,21.067,55.542,0,76.61l0,0
			c-21.066,21.067-55.542,21.067-76.608,0L278.873,129.535c-21.068-21.068-21.068-55.542,0-76.609l0,0
			C299.94,31.857,334.415,31.857,355.482,52.925z"/>
		
			<linearGradient id="SVGID_3_" gradientUnits="userSpaceOnUse" x1="-1160.5234" y1="-263.4878" x2="-89.6885" y2="-263.4878" gradientTransform="matrix(-0.7071 -0.7071 -0.7071 0.7071 -58.417 485.7184)">
			<stop  offset="0" style="stop-color:#CC1A82"/>
			<stop  offset="0.1271" style="stop-color:#D73A9D"/>
			<stop  offset="0.3195" style="stop-color:#E563C0"/>
			<stop  offset="0.5074" style="stop-color:#F084DB"/>
			<stop  offset="0.6872" style="stop-color:#F89BEF"/>
			<stop  offset="0.8553" style="stop-color:#FDA9FB"/>
			<stop  offset="1" style="stop-color:#FFAEFF"/>
		</linearGradient>
		<path fill="url(#SVGID_3_)" d="M408.491,362.824l540.01,540.011c59.724,59.723,59.724,157.453,0,217.177H948.5
			c-59.723,59.725-157.453,59.725-217.178,0l-540.009-540.01c-59.724-59.724-59.724-157.454,0-217.178l0,0
			C251.037,303.1,348.766,303.1,408.491,362.824z"/>
		
			<linearGradient id="SVGID_4_" gradientUnits="userSpaceOnUse" x1="-1419.9355" y1="-949.6182" x2="-533.3838" y2="-949.6182" gradientTransform="matrix(-0.7071 -0.7071 -0.7071 0.7071 -58.417 485.7184)">
			<stop  offset="0" style="stop-color:#A4CCD0"/>
			<stop  offset="1" style="stop-color:#34A5DF"/>
		</linearGradient>
		<path fill="url(#SVGID_4_)" d="M1170.016,191.397l447.078,447.08c49.446,49.445,49.446,130.356,0,179.803h-0.002
			c-49.445,49.446-130.355,49.446-179.803,0L990.213,371.201c-49.445-49.446-49.445-130.358,0-179.803l0,0
			C1039.658,141.951,1120.569,141.951,1170.016,191.397z"/>
		
			<linearGradient id="SVGID_5_" gradientUnits="userSpaceOnUse" x1="-1660.6172" y1="140.75" x2="-741.209" y2="140.75" gradientTransform="matrix(-0.7071 -0.7071 -0.7071 0.7071 -391.9014 -212.4202)">
			<stop  offset="0" style="stop-color:#FFCCFF"/>
			<stop  offset="1" style="stop-color:#34A5DF"/>
		</linearGradient>
		<path fill="url(#SVGID_5_)" d="M148.099,411.213L682.798,945.91c31.739,31.74,31.739,83.677,0,115.417l0,0
			c-31.739,31.737-83.677,31.737-115.416,0L32.684,526.628c-31.739-31.739-31.739-83.676,0-115.415l0,0
			C64.423,379.473,116.36,379.473,148.099,411.213z"/>
		
			<linearGradient id="SVGID_6_" gradientUnits="userSpaceOnUse" x1="-2034.9561" y1="-550.2598" x2="-1395.3086" y2="-550.2598" gradientTransform="matrix(-0.7071 -0.7071 -0.7071 0.7071 -391.9014 -212.4202)">
			<stop  offset="0" style="stop-color:#CC1A82"/>
			<stop  offset="0.1271" style="stop-color:#D73A9D"/>
			<stop  offset="0.3195" style="stop-color:#E563C0"/>
			<stop  offset="0.5074" style="stop-color:#F084DB"/>
			<stop  offset="0.6872" style="stop-color:#F89BEF"/>
			<stop  offset="0.8553" style="stop-color:#FDA9FB"/>
			<stop  offset="1" style="stop-color:#FFAEFF"/>
		</linearGradient>
		<path fill="url(#SVGID_6_)" d="M1064.107,385.114l371.998,372c22.082,22.083,22.082,58.216,0,80.296l0,0
			c-22.082,22.083-58.216,22.083-80.296,0L983.811,465.411c-22.083-22.083-22.083-58.215,0-80.297l0,0
			C1005.893,363.032,1042.025,363.032,1064.107,385.114z"/>
		
			<linearGradient id="SVGID_7_" gradientUnits="userSpaceOnUse" x1="-1693.1895" y1="-365.1724" x2="-1269.5059" y2="-365.1724" gradientTransform="matrix(-0.7071 -0.7071 -0.7071 0.7071 -391.9014 -212.4202)">
			<stop  offset="0" style="stop-color:#A4CCD0"/>
			<stop  offset="1" style="stop-color:#34A5DF"/>
		</linearGradient>
		<path fill="url(#SVGID_7_)" d="M827.164,427.034l236.403,236.404c17.376,17.374,17.376,45.807,0,63.183l0,0
			c-17.375,17.376-45.809,17.376-63.184,0L763.98,490.217c-17.376-17.376-17.376-45.809,0-63.183l0,0
			C781.355,409.657,809.789,409.657,827.164,427.034z"/>
		
			<linearGradient id="SVGID_8_" gradientUnits="userSpaceOnUse" x1="-1726.0254" y1="317.834" x2="-1302.3418" y2="317.834" gradientTransform="matrix(-0.7071 -0.7071 -0.7071 0.7071 -391.9014 -212.4202)">
			<stop  offset="0" style="stop-color:#CC1A82"/>
			<stop  offset="0.1271" style="stop-color:#D73A9D"/>
			<stop  offset="0.3195" style="stop-color:#E563C0"/>
			<stop  offset="0.5074" style="stop-color:#F084DB"/>
			<stop  offset="0.6872" style="stop-color:#F89BEF"/>
			<stop  offset="0.8553" style="stop-color:#FDA9FB"/>
			<stop  offset="1" style="stop-color:#FFAEFF"/>
		</linearGradient>
		<path fill="url(#SVGID_8_)" d="M367.428,933.206l236.403,236.404c17.377,17.373,17.377,45.808,0,63.183l0,0
			c-17.375,17.376-45.809,17.376-63.183,0L304.245,996.389c-17.375-17.376-17.375-45.808,0-63.183l0,0
			C321.621,915.83,350.053,915.83,367.428,933.206z"/>
		<path fill="#7E49C6" d="M703.729,594.543c-7.312-7.312-7.312-19.169,0.003-26.481l0,0c7.313-7.314,19.171-7.314,26.482-0.004
			l31.937,31.938c7.313,7.316,7.313,19.172-0.001,26.485l0,0c-7.313,7.314-19.17,7.316-26.483,0.001L703.729,594.543z"/>
		<path fill="#7E49C6" d="M1144.888,404.148c-7.312-7.312-7.312-19.169,0.002-26.482l0,0c7.314-7.313,19.173-7.313,26.484-0.002
			l31.937,31.938c7.315,7.314,7.313,19.169-0.002,26.485l0,0c-7.313,7.313-19.169,7.315-26.482,0.001L1144.888,404.148z"/>
		<path fill="#7E49C6" d="M239.35,859.238c-7.312-7.311-7.312-19.169,0.002-26.481l0,0c7.313-7.314,19.171-7.314,26.483-0.003
			l31.936,31.938c7.314,7.315,7.314,19.172-0.001,26.484l0,0c-7.313,7.313-19.169,7.314-26.483,0L239.35,859.238z"/>
		
			<linearGradient id="SVGID_9_" gradientUnits="userSpaceOnUse" x1="1204.6416" y1="265.4028" x2="1367.8047" y2="265.4028" gradientTransform="matrix(1 0 0 -1 0 1201)">
			<stop  offset="0" style="stop-color:#A4CCD0"/>
			<stop  offset="1" style="stop-color:#34A5DF"/>
		</linearGradient>
		<path fill="url(#SVGID_9_)" d="M1217.535,929.186c-17.192-17.192-17.191-45.073,0.004-62.27l0,0
			c17.198-17.198,45.08-17.198,62.273-0.007l75.095,75.095c17.199,17.198,17.195,45.077-0.003,62.275l0,0
			c-17.196,17.197-45.074,17.199-62.273,0.003L1217.535,929.186z"/>
		<path fill="#7E49C6" d="M1027.14,1138.156c-17.192-17.192-17.19-45.073,0.005-62.27l0,0c17.198-17.199,45.079-17.199,62.272-0.007
			l75.096,75.094c17.198,17.199,17.195,45.077-0.004,62.276l0,0c-17.196,17.196-45.074,17.199-62.272,0.002L1027.14,1138.156z"/>
		<path fill="#7E49C6" d="M703.238,354.519c-7.576-7.576-7.576-19.866,0.002-27.445l0,0c7.58-7.58,19.868-7.58,27.446-0.002
			l33.098,33.099c7.58,7.58,7.577,19.867-0.003,27.447l0,0c-7.579,7.578-19.866,7.58-27.445,0.001L703.238,354.519z"/>
		
			<linearGradient id="SVGID_10_" gradientUnits="userSpaceOnUse" x1="-1093.4102" y1="-687.5986" x2="-777.0879" y2="-687.5986" gradientTransform="matrix(-0.7071 -0.7071 -0.7071 0.7071 -58.417 485.7184)">
			<stop  offset="0" style="stop-color:#661DFF"/>
			<stop  offset="0.2123" style="stop-color:#8227F2"/>
			<stop  offset="0.6671" style="stop-color:#C842D1"/>
			<stop  offset="1" style="stop-color:#FF57B7"/>
		</linearGradient>
		<path fill="url(#SVGID_10_)" d="M1024.435,548.995l176.499,176.499c12.973,12.974,12.973,34.2,0,47.174l0,0
			c-12.974,12.972-34.2,12.972-47.174,0L977.262,596.169c-12.972-12.974-12.972-34.2,0-47.172l0,0
			C990.234,536.023,1011.462,536.023,1024.435,548.995z"/>
		<path fill="#FFFFFF" d="M304.4,243.32l354.919,354.918c21.067,21.067,21.067,55.542,0,76.61l0,0
			c-21.067,21.066-55.542,21.066-76.609,0L227.791,319.93c-21.067-21.067-21.067-55.542,0-76.61l0,0
			C248.859,222.252,283.333,222.252,304.4,243.32z"/>
	</g>
</g>
</svg>
